<svg height="512pt" viewBox="-66 0 512 512" width="512pt" xmlns="http://www.w3.org/2000/svg"><path d="m279.644531 388.429688v113.269531c0 5.6875-4.613281 10.300781-10.304687 10.300781h-259.039063c-5.6875 0-10.300781-4.613281-10.300781-10.300781v-113.269531c0-36.617188 29.683594-66.300782 66.300781-66.300782h147.039063c36.613281 0 66.304687 29.679688 66.304687 66.300782zm0 0" fill="#4fceb7"/><path d="m92.074219 322.121094h98.664062v189.878906h-98.664062zm0 0" fill="#ebeef2"/><path d="m279.636719 388.414062v113.28125c0 5.691407-4.609375 10.300782-10.300781 10.300782h-12.289063v-123.566406c0-36.613282-29.695313-66.308594-66.308594-66.308594h22.605469c36.613281 0 66.292969 29.683594 66.292969 66.292968zm0 0" fill="#3db4a0"/><path d="m141.40625 359.457031c-12.480469 0-22.597656-10.117187-22.597656-22.601562v-63.394531h45.199218v63.394531c0 12.484375-10.117187 22.601562-22.601562 22.601562zm0 0" fill="#e39f6e"/><path d="m21.84375 185.054688h239.125l6.308594-30.765626c16.332031-79.675781-44.535156-154.289062-125.871094-154.289062-81.332031 0-142.203125 74.613281-125.867188 154.289062zm0 0" fill="#eb5777"/><path d="m274.308594 197.09375c0 16.804688-13.625 30.429688-30.429688 30.429688-16.804687 0-30.425781-13.625-30.425781-30.429688s13.621094-30.425781 30.425781-30.425781c16.804688 0 30.429688 13.621093 30.429688 30.425781zm0 0" fill="#e39f6e"/><path d="m69.363281 197.09375c0 16.804688-13.625 30.429688-30.429687 30.429688-16.804688 0-30.425782-13.625-30.425782-30.429688s13.621094-30.425781 30.425782-30.425781c16.804687 0 30.429687 13.621093 30.429687 30.425781zm0 0" fill="#e39f6e"/><path d="m141.40625 299.007812c-41.359375 0-76.25-30.800781-81.375-71.84375l-15.136719-121.183593h193.027344l-15.136719 121.183593c-5.128906 41.042969-40.015625 71.84375-81.378906 71.84375zm0 0" fill="#f8c298"/><path d="m96.863281 203.078125c-4.167969 0-7.605469-3.320313-7.71875-7.515625l-.132812-4.824219c-.117188-4.265625 3.25-7.816406 7.511719-7.933593 4.265624-.125 7.820312 3.246093 7.9375 7.511718l.132812 4.824219c.117188 4.265625-3.25 7.816406-7.515625 7.933594-.070313.003906-.144531.003906-.214844.003906zm0 0" fill="#aa5b26"/><path d="m186.074219 203.078125c-4.167969 0-7.605469-3.320313-7.71875-7.515625l-.132813-4.824219c-.117187-4.265625 3.25-7.816406 7.511719-7.933593 4.265625-.125 7.820313 3.246093 7.9375 7.511718l.132813 4.824219c.117187 4.265625-3.25 7.816406-7.515626 7.933594-.070312.003906-.140624.003906-.214843.003906zm0 0" fill="#aa5b26"/><path d="m141.40625 245.824219c-13.160156 0-25.636719-6.378907-33.371094-17.058594-2.503906-3.457031-1.730468-8.285156 1.726563-10.789063 3.457031-2.503906 8.285156-1.730468 10.789062 1.726563 4.835938 6.679687 12.632813 10.667969 20.855469 10.667969 8.226562 0 16.023438-3.988282 20.859375-10.667969 2.503906-3.457031 7.332031-4.230469 10.789063-1.726563 3.457031 2.503907 4.230468 7.332032 1.726562 10.789063-7.734375 10.679687-20.210938 17.058594-33.375 17.058594zm0 0" fill="#e39f6e"/><path d="m61.730469 408.496094v103.503906h-15.453125v-103.503906c0-4.261719 3.460937-7.722656 7.726562-7.722656 4.265625-.003907 7.726563 3.460937 7.726563 7.722656zm0 0" fill="#3db4a0"/><path d="m233.355469 408.496094v103.503906h-15.453125v-103.503906c0-4.261719 3.460937-7.722656 7.726562-7.722656 4.277344-.003907 7.726563 3.460937 7.726563 7.722656zm0 0" fill="#3db4a0"/><path d="m27.742188 114.355469s20.410156 20.246093 75.363281 21.714843c3.484375.09375 6.367187-2.695312 6.367187-6.179687v-8.15625s19.96875 13.105469 62.292969 14.328125c3.488281.101562 6.386719-2.6875 6.386719-6.179688v-4.625s16.464844 10.046876 65.8125 10.847657c3.457031.054687 6.300781-2.722657 6.300781-6.183594v-34.285156h-222.523437zm0 0" fill="#eb5777"/><path d="m244.070312 143.832031c-.078124 0-.15625 0-.230468-.003906-30.65625-.492187-49.222656-4.457031-59.429688-7.710937-.691406 1.371093-1.613281 2.628906-2.75 3.734374-2.722656 2.648438-6.324218 4.050782-10.121094 3.933594-26.085937-.753906-44.230468-5.886718-54.871093-10.066406-.652344 2.304688-1.902344 4.40625-3.671875 6.125-2.71875 2.648438-6.304688 4.054688-10.113282 3.949219-35.074218-.941407-57.039062-9.253907-69.285156-16.0625-3.730468-2.070313-5.074218-6.777344-3-10.503907 2.074219-3.730468 6.777344-5.074218 10.503906-3 10.566407 5.871094 29.617188 13.027344 60.644532 14.074219v-6.566406c0-2.839844 1.558594-5.453125 4.054687-6.800781 2.5-1.347656 5.539063-1.21875 7.910157.339844.148437.09375 18.597656 11.617187 56.714843 13.015624v-3.03125c0-2.832031 1.457031-5.496093 3.945313-6.847656 2.472656-1.34375 5.390625-1.292968 7.757812.21875.960938.519532 17.042969 8.832032 60.40625 9.722656v-13.996093c0-4.265625 3.460938-7.726563 7.726563-7.726563 4.269531 0 7.726562 3.460938 7.726562 7.726563v15.566406c0 3.757813-1.472656 7.273437-4.152343 9.910156-2.625 2.585938-6.085938 4-9.765626 4zm0 0" fill="#ce3f63"/><path d="m379.378906 330.828125c0 45.257813-36.6875 81.945313-81.945312 81.945313-45.257813 0-81.945313-36.6875-81.945313-81.945313s36.6875-81.945313 81.945313-81.945313c45.257812 0 81.945312 36.6875 81.945312 81.945313zm0 0" fill="#5f9eeb"/><path d="m331.6875 315.453125h-18.878906v-18.878906c0-5.6875-4.613282-10.300781-10.300782-10.300781h-10.144531c-5.691406 0-10.304687 4.613281-10.304687 10.300781v18.878906h-18.878906c-5.6875 0-10.300782 4.613281-10.300782 10.304687v10.140626c0 5.691406 4.613282 10.304687 10.300782 10.304687h18.878906v18.878906c0 5.6875 4.613281 10.300781 10.304687 10.300781h10.144531c5.6875 0 10.300782-4.613281 10.300782-10.300781v-18.878906h18.878906c5.691406 0 10.300781-4.613281 10.300781-10.304687v-10.140626c0-5.691406-4.613281-10.304687-10.300781-10.304687zm0 0" fill="#ebeef2"/></svg>