<svg height="512pt" viewBox="-52 0 512 512" width="512pt" xmlns="http://www.w3.org/2000/svg"><path d="m125.960938 456.199219c4.5 31.542969 31.609374 55.796875 64.394531 55.796875 32.785156 0 59.894531-24.253906 64.390625-55.796875zm0 0" fill="#e79732"/><path d="m214.371094 456.199219c-3.53125 24.765625-20.992188 45.03125-44.199219 52.597656 6.359375 2.089844 13.136719 3.203125 20.183594 3.203125 32.789062 0 59.886719-24.257812 64.386719-55.800781zm0 0" fill="#dd801b"/><path d="m190.355469 90.039062c-24.824219 0-45.019531-20.195312-45.019531-45.019531s20.195312-45.019531 45.019531-45.019531 45.019531 20.195312 45.019531 45.019531-20.195312 45.019531-45.019531 45.019531zm0-62.550781c-9.667969 0-17.53125 7.863281-17.53125 17.53125s7.863281 17.53125 17.53125 17.53125 17.53125-7.863281 17.53125-17.53125-7.863281-17.53125-17.53125-17.53125zm0 0" fill="#faaa3c"/><path d="m356.601562 436.460938h-332.492187c0-16.164063 6.144531-30.886719 16.238281-41.957032 9.65625-10.601562 15.097656-24.355468 15.097656-38.695312v-136.328125c0-37.25 15.105469-70.972657 39.515626-95.390625 24.410156-24.421875 58.140624-39.515625 95.394531-39.515625 59 0 109.15625 37.886719 127.476562 90.652343 4.816407 13.867188 7.433594 28.753907 7.433594 44.257813v136.324219c0 14.339844 5.441406 28.09375 15.09375 38.695312 5.046875 5.527344 9.105469 11.984375 11.910156 19.0625 2.792969 7.09375 4.332031 14.8125 4.332031 22.894532zm0 0" fill="#f1dd47"/><path d="m356.601562 436.460938h-21.1875c0-8.082032-1.539062-15.800782-4.332031-22.894532-2.804687-7.082031-6.863281-13.535156-11.910156-19.066406-9.652344-10.597656-15.09375-24.351562-15.09375-38.691406v-136.328125c0-15.5-2.617187-30.386719-7.433594-44.253907-17.207031-49.578124-62.53125-86.027343-116.886719-90.238281 3.496094-.273437 7.035157-.417969 10.597657-.417969 59 0 109.160156 37.890626 127.476562 90.65625 4.816407 13.867188 7.433594 28.753907 7.433594 44.253907v136.328125c0 14.339844 5.441406 28.09375 15.09375 38.695312 5.046875 5.527344 9.105469 11.984375 11.910156 19.0625 2.792969 7.09375 4.332031 14.8125 4.332031 22.894532zm0 0" fill="#efc40f"/><path d="m325.265625 219.480469v102.652343l-114.328125 114.328126h-154.328125l261.222656-261.234376c4.816407 13.867188 7.433594 28.753907 7.433594 44.253907zm0 0" fill="#efc40f"/><path d="m55.445312 241.824219h269.820313v67.015625h-269.820313zm0 0" fill="#faaa3c"/><path d="m325.265625 241.824219v67.015625h-141.035156l67.003906-67.015625zm0 0" fill="#e79732"/><path d="m407.710938 182.160156c0 45.710938-37.054688 82.765625-82.765626 82.765625-45.707031 0-82.761718-37.054687-82.761718-82.765625 0-45.710937 37.054687-82.765625 82.761718-82.765625 45.710938 0 82.765626 37.054688 82.765626 82.765625zm0 0" fill="#eb5777"/><path d="m337.027344 205.859375h-4.078125v-55.125c0-2.703125-1.410157-5.207031-3.722657-6.605469-2.3125-1.402344-5.179687-1.496094-7.578124-.246094l-12.355469 6.449219c-3.78125 1.972657-5.25 6.640625-3.277344 10.421875 1.972656 3.785156 6.640625 5.25 10.425781 3.277344l1.054688-.550781v42.378906h-4.078125c-4.269531 0-7.726563 3.460937-7.726563 7.726563 0 4.265624 3.460938 7.726562 7.726563 7.726562h23.613281c4.265625 0 7.726562-3.460938 7.726562-7.726562 0-4.265626-3.460937-7.726563-7.730468-7.726563zm0 0" fill="#ebeef2"/><path d="m369.714844 465.980469h-358.71875c-6.074219 0-10.996094-4.921875-10.996094-10.996094v-24.097656c0-6.074219 4.921875-10.996094 10.996094-10.996094h358.71875c6.070312 0 10.996094 4.921875 10.996094 10.996094v24.097656c0 6.074219-4.925782 10.996094-10.996094 10.996094zm0 0" fill="#ffeb9b"/></svg>