<svg height="512pt" viewBox="-1 0 512 512.001" width="512pt" xmlns="http://www.w3.org/2000/svg"><g fill="#93a3af"><path d="m158.324219 13.140625v17.082031h51.246093v-17.082031c0-7.257813-5.882812-13.140625-13.140624-13.140625h-24.964844c-7.257813 0-13.140625 5.882812-13.140625 13.140625zm0 0"/><path d="m497.335938 163.851562h-17.082032v130.085938h17.082032c7.257812 0 13.140624-5.882812 13.140624-13.136719v-103.808593c0-7.257813-5.882812-13.140626-13.140624-13.140626zm0 0"/><path d="m76.855469 13.140625v17.082031h51.246093v-17.082031c0-7.257813-5.882812-13.140625-13.140624-13.140625h-24.964844c-7.257813 0-13.140625 5.882812-13.140625 13.140625zm0 0"/></g><path d="m482.210938 89.140625v363.507813c0 32.78125-26.566407 59.351562-59.351563 59.351562h-363.507813c-32.78125 0-59.351562-26.570312-59.351562-59.351562v-363.507813c0-32.785156 26.570312-59.351563 59.351562-59.351563h363.507813c32.785156-.003906 59.351563 26.566407 59.351563 59.351563zm0 0" fill="#ba6f3c"/><path d="m482.210938 89.140625v363.503906c0 32.792969-26.566407 59.355469-59.347657 59.355469h-26.8125c32.78125 0 59.347657-26.5625 59.347657-59.355469v-363.503906c0-32.785156-26.566407-59.347656-59.347657-59.347656h26.8125c32.78125 0 59.347657 26.5625 59.347657 59.347656zm0 0" fill="#aa5b26"/><path d="m482.210938 89.132812v83.644532h-482.210938v-83.644532c0-32.78125 26.566406-59.347656 59.359375-59.347656h363.503906c32.78125 0 59.347657 26.566406 59.347657 59.347656zm0 0" fill="#ebeef2"/><path d="m482.210938 89.132812v83.644532h-26.8125v-83.644532c0-32.78125-26.566407-59.347656-59.347657-59.347656h26.8125c32.78125 0 59.347657 26.566406 59.347657 59.347656zm0 0" fill="#d3d8df"/><path d="m387.234375 271.410156c0 80.703125-65.421875 146.125-146.128906 146.125-80.703125 0-146.128907-65.421875-146.128907-146.125 0-80.707031 65.425782-146.128906 146.128907-146.128906 80.707031 0 146.128906 65.421875 146.128906 146.128906zm0 0" fill="#93a3af"/><path d="m241.105469 391.339844c-66.128907 0-119.929688-53.800782-119.929688-119.929688 0-66.132812 53.800781-119.933594 119.929688-119.933594 66.132812 0 119.933593 53.800782 119.933593 119.933594 0 66.128906-53.800781 119.929688-119.933593 119.929688zm0 0" fill="#7b8c98"/><path d="m348.667969 271.40625c0 59.40625-48.160157 107.554688-107.558594 107.554688-14.425781 0-28.203125-2.84375-40.773437-7.992188-13.035157-5.351562-24.789063-13.179688-34.667969-22.902344-3.054688-2.992187-5.921875-6.175781-8.582031-9.515625-6.539063-8.136719-11.890626-17.253906-15.839844-27.082031-4.96875-12.375-7.703125-25.902344-7.703125-40.0625 0-59.398438 48.160156-107.554688 107.566406-107.554688 14.160156 0 27.679687 2.730469 40.054687 7.703126 9.828126 3.949218 18.929688 9.300781 27.078126 15.828124 3.339843 2.660157 6.527343 5.539063 9.527343 8.589844 9.726563 9.878906 17.550781 21.632813 22.894531 34.667969 5.15625 12.574219 8.003907 26.339844 8.003907 40.765625zm0 0" fill="#faaa3c"/><path d="m308.242188 187.382812-151.15625 151.167969c-6.535157-8.136719-11.886719-17.253906-15.839844-27.082031l139.917968-139.914062c9.828126 3.949218 18.933594 9.300781 27.078126 15.828124zm0 0" fill="#ffcf64"/><path d="m340.664062 230.640625-140.328124 140.332031c-13.035157-5.355468-24.789063-13.179687-34.667969-22.90625l152.105469-152.09375c9.722656 9.878906 17.550781 21.636719 22.890624 34.667969zm0 0" fill="#ffcf64"/><path d="m423.25 105.238281c0 15.222657-12.339844 27.5625-27.5625 27.5625s-27.5625-12.339843-27.5625-27.5625c0-15.21875 12.339844-27.558593 27.5625-27.558593s27.5625 12.339843 27.5625 27.558593zm0 0" fill="#faaa3c"/><path d="m94.976562 90.738281h-39.792968c-4.269532 0-7.726563-3.457031-7.726563-7.726562 0-4.265625 3.457031-7.726563 7.726563-7.726563h39.792968c4.269532 0 7.726563 3.460938 7.726563 7.726563 0 4.269531-3.457031 7.726562-7.726563 7.726562zm0 0" fill="#5f9eeb"/><path d="m94.976562 112.964844h-39.792968c-4.269532 0-7.726563-3.457032-7.726563-7.726563 0-4.265625 3.457031-7.722656 7.726563-7.722656h39.792968c4.269532 0 7.726563 3.457031 7.726563 7.722656 0 4.269531-3.457031 7.726563-7.726563 7.726563zm0 0" fill="#4fceb7"/><path d="m94.976562 135.195312h-39.792968c-4.269532 0-7.726563-3.460937-7.726563-7.726562 0-4.269531 3.457031-7.726562 7.726563-7.726562h39.792968c4.269532 0 7.726563 3.457031 7.726563 7.726562 0 4.265625-3.457031 7.726562-7.726563 7.726562zm0 0" fill="#eb5777"/></svg>