<svg height="512pt" viewBox="-27 0 512 512" width="512pt" xmlns="http://www.w3.org/2000/svg"><path d="m458.292969 229.148438c0 53.964843-18.65625 103.582031-49.875 142.734374-41.980469 52.65625-106.679688 86.410157-179.273438 86.410157-72.117187 0-136.441406-33.3125-178.449219-85.386719-31.710937-39.308594-50.695312-89.320312-50.695312-143.761719 0-126.554687 102.589844-229.144531 229.144531-229.144531 126.558594 0 229.148438 102.589844 229.148438 229.148438zm0 0" fill="#f1dd47"/><path d="m408.417969 371.882812c-41.980469 52.65625-106.679688 86.410157-179.273438 86.410157-72.117187 0-136.441406-33.3125-178.449219-85.386719 27.316407-49.761719 30.363282-89.941406 30.6875-99.554688v-83.796874c0-81.609376 66.390626-148 148-148 81.609376 0 148 66.390624 148 148v83.367187c1.398438 14.148437 7.257813 53.605469 31.035157 98.960937zm0 0" fill="#efc40f"/><path d="m425.535156 423.632812c-49.640625-64.546874-59.722656-129.246093-61.683594-150.0625v-84.019531c0-74.265625-60.203124-134.46875-134.46875-134.46875-74.265624 0-134.46875 60.203125-134.46875 134.46875v84.019531c-.46875 14.902344-6.207031 79.53125-61.542968 149.835938-10.050782 12.773438-.921875 31.515625 15.332031 31.515625h50.085937c21.351563 0 41.519532 9.203125 56.015626 24.875 18.316406 19.804687 44.523437 32.203125 73.625 32.203125h1.492187c29.105469 0 55.308594-12.398438 73.628906-32.203125 14.496094-15.671875 34.664063-24.875 56.011719-24.875h50.460938c16.121093 0 25.335937-18.507813 15.511718-31.289063zm0 0" fill="#ebeef2"/><path d="m410.027344 454.921875h-25.335938c16.117188 0 25.335938-18.507813 15.503906-31.292969-49.640624-64.546875-59.726562-129.242187-61.675781-150.054687v-84.019531c0-69.996094-53.488281-127.5-121.804687-133.878907 4.167968-.402343 8.398437-.597656 12.667968-.597656 74.261719 0 134.472657 60.214844 134.472657 134.476563v84.019531c1.949219 20.8125 12.035156 85.507812 61.675781 150.058593 9.832031 12.78125.613281 31.289063-15.503906 31.289063zm0 0" fill="#d3d8df"/><g fill="#efc40f"><path d="m195.699219 206.210938c-4.269531 0-7.726563-3.460938-7.726563-7.726563v-9.253906c0-4.265625 3.457032-7.726563 7.726563-7.726563 4.265625 0 7.726562 3.460938 7.726562 7.726563v9.253906c0 4.265625-3.460937 7.726563-7.726562 7.726563zm0 0"/><path d="m262.65625 206.210938c-4.269531 0-7.726562-3.460938-7.726562-7.726563v-9.253906c0-4.265625 3.460937-7.726563 7.726562-7.726563 4.269531 0 7.726562 3.460938 7.726562 7.726563v9.253906c0 4.265625-3.457031 7.726563-7.726562 7.726563zm0 0"/></g></svg>