<svg height="512pt" viewBox="0 -45 512 512" width="512pt" xmlns="http://www.w3.org/2000/svg"><g fill="#93a3af"><path d="m158.132812 98.125v13.390625h-81.386718v-13.390625c0-5.691406 4.613281-10.304688 10.304687-10.304688h60.78125c5.6875.003907 10.300781 4.613282 10.300781 10.304688zm0 0"/><path d="m251.878906 411.300781v-13.394531h-40.175781v13.394531c0 5.6875 4.609375 10.300781 10.300781 10.300781h19.574219c5.6875 0 10.300781-4.613281 10.300781-10.300781zm0 0"/><path d="m178.734375 411.300781v-13.394531h-101.988281v13.394531c0 5.6875 4.613281 10.300781 10.304687 10.300781h81.382813c5.691406 0 10.300781-4.613281 10.300781-10.300781zm0 0"/><path d="m315.75 411.300781v-13.394531h-40.175781v13.394531c0 5.6875 4.609375 10.300781 10.300781 10.300781h19.574219c5.6875 0 10.300781-4.613281 10.300781-10.300781zm0 0"/></g><path d="m512 129.460938v250.5c0 11.382812-9.21875 20.601562-20.605469 20.601562h-470.789062c-11.386719 0-20.605469-9.21875-20.605469-20.601562v-250.5c0-11.382813 9.21875-20.605469 20.605469-20.605469h470.792969c11.382812.003906 20.601562 9.222656 20.601562 20.605469zm0 0" fill="#7b8c98"/><path d="m512 129.460938v250.5c0 11.382812-9.21875 20.601562-20.605469 20.601562h-18.027343c11.386718 0 20.605468-9.21875 20.605468-20.601562v-250.5c0-11.382813-9.21875-20.605469-20.605468-20.605469h18.027343c11.386719.003906 20.605469 9.222656 20.605469 20.605469zm0 0" fill="#627687"/><path d="m52.023438 108.859375h407.953124v291.703125h-407.953124zm0 0" fill="#faaa3c"/><path d="m442.464844 108.855469h17.511718v291.710937h-17.511718zm0 0" fill="#e79732"/><path d="m27.644531 282.609375c-4.269531 0-7.726562-3.457031-7.726562-7.722656v-40.347657c0-4.265624 3.457031-7.726562 7.726562-7.726562 4.265625 0 7.722657 3.460938 7.722657 7.726562v40.347657c0 4.265625-3.457032 7.722656-7.722657 7.722656zm0 0" fill="#627687"/><path d="m406.703125 20.605469v231.574219c0 2.109374-.648437 4.160156-1.851563 5.890624l-33.113281 47.480469c-4.097656 5.882813-12.804687 5.882813-16.902343 0l-33.109376-47.480469c-1.207031-1.730468-1.855468-3.78125-1.855468-5.890624v-231.574219c0-11.386719 9.21875-20.605469 20.605468-20.605469h45.625c11.382813 0 20.601563 9.222656 20.601563 20.605469zm0 0" fill="#5f9eeb"/><path d="m355.558594 74.300781h15.453125v177.707031h-15.453125zm0 0" fill="#3a82d0"/><path d="m406.707031 20.605469v231.574219c0 2.109374-.648437 4.160156-1.851562 5.890624l-33.113281 47.480469c-4.097657 5.882813-12.804688 5.882813-16.902344 0l-1.328125-1.914062 31.769531-45.566407c1.203125-1.730468 1.855469-3.78125 1.855469-5.890624v-231.574219c0-11.386719-9.222657-20.605469-20.605469-20.605469h19.574219c11.382812 0 20.601562 9.222656 20.601562 20.605469zm0 0" fill="#3a82d0"/><path d="m406.707031 20.605469v30.007812h-86.832031v-30.007812c0-11.386719 9.21875-20.605469 20.601562-20.605469h45.628907c11.382812 0 20.601562 9.222656 20.601562 20.605469zm0 0" fill="#ed7a98"/><path d="m406.707031 20.605469v30.007812h-19.570312v-30.007812c0-11.386719-9.222657-20.605469-20.605469-20.605469h19.574219c11.382812 0 20.601562 9.222656 20.601562 20.605469zm0 0" fill="#eb5777"/><path d="m319.875 44.957031h86.832031v31.289063h-86.832031zm0 0" fill="#d3d8df"/><path d="m387.136719 44.957031h19.570312v31.289063h-19.570312zm0 0" fill="#c2c6cc"/><path d="m406.707031 243.226562v8.953126c0 2.109374-.648437 4.160156-1.851562 5.890624l-33.113281 47.480469c-4.097657 5.882813-12.804688 5.882813-16.902344 0l-1.328125-1.914062-31.78125-45.566407c-1.207031-1.730468-1.855469-3.78125-1.855469-5.890624v-8.953126zm0 0" fill="#7b8c98"/><path d="m387.136719 243.226562h19.570312v8.953126c0 2.109374-.648437 4.160156-1.851562 5.890624l-33.113281 47.480469c-4.097657 5.882813-12.804688 5.882813-16.902344 0l-1.328125-1.914062 31.769531-45.566407c1.203125-1.730468 1.855469-3.78125 1.855469-5.890624zm0 0" fill="#627687"/><path d="m238.488281 260.207031h-99.582031c-5.691406 0-10.304688-4.613281-10.304688-10.304687v-99.582032c0-5.691406 4.613282-10.300781 10.304688-10.300781h99.582031c5.691407 0 10.300781 4.609375 10.300781 10.300781v99.582032c0 5.691406-4.609374 10.304687-10.300781 10.304687zm0 0" fill="#ebeef2"/><path d="m204.6875 195.429688c2.5625-3.675782 4.070312-8.140626 4.070312-12.953126 0-12.523437-10.1875-22.710937-22.710937-22.710937h-14.988281c-4.265625 0-7.722656 3.457031-7.722656 7.722656v65.246094c0 4.269531 3.457031 7.726563 7.722656 7.726563h17.636718c13.984376 0 25.363282-11.378907 25.363282-25.363282 0-7.925781-3.65625-15.015625-9.371094-19.667968zm-25.902344-20.214844h7.261719c4.003906 0 7.257813 3.257812 7.257813 7.261718 0 4.003907-3.253907 7.257813-7.257813 7.257813h-7.261719zm9.910156 49.792968h-9.910156v-19.820312h9.910156c5.464844 0 9.910157 4.445312 9.910157 9.910156s-4.445313 9.910156-9.910157 9.910156zm0 0" fill="#3a82d0"/><path d="m307.90625 302.273438h-193.515625c-4.269531 0-7.726563-3.460938-7.726563-7.726563 0-4.269531 3.460938-7.726563 7.726563-7.726563h193.515625c4.269531 0 7.726562 3.457032 7.726562 7.726563 0 4.265625-3.457031 7.726563-7.726562 7.726563zm0 0" fill="#dd801b"/><path d="m325.347656 325.933594h-210.957031c-4.269531 0-7.726563-3.460938-7.726563-7.726563 0-4.269531 3.460938-7.726562 7.726563-7.726562h210.957031c4.265625 0 7.722656 3.457031 7.722656 7.726562 0 4.265625-3.457031 7.726563-7.722656 7.726563zm0 0" fill="#dd801b"/><path d="m396.921875 349.59375h-282.53125c-4.265625 0-7.726563-3.460938-7.726563-7.726562 0-4.269532 3.460938-7.726563 7.726563-7.726563h282.53125c4.269531 0 7.726563 3.457031 7.726563 7.726563 0 4.265624-3.460938 7.726562-7.726563 7.726562zm0 0" fill="#dd801b"/><path d="m396.921875 373.253906h-282.53125c-4.265625 0-7.726563-3.460937-7.726563-7.726562 0-4.269532 3.460938-7.726563 7.726563-7.726563h282.53125c4.269531 0 7.726563 3.457031 7.726563 7.726563 0 4.265625-3.460938 7.726562-7.726563 7.726562zm0 0" fill="#dd801b"/></svg>