<svg height="512pt" viewBox="-15 0 512 512.001" width="512pt" xmlns="http://www.w3.org/2000/svg"><g fill="#93a3af"><path d="m323.476562 158.132812h-13.390624v-81.386718h13.390624c5.691407 0 10.304688 4.613281 10.304688 10.304687v60.78125c0 5.6875-4.613281 10.300781-10.304688 10.300781zm0 0"/><path d="m10.300781 251.878906h13.394531v-40.175781h-13.394531c-5.6875 0-10.300781 4.609375-10.300781 10.300781v19.574219c0 5.6875 4.613281 10.300781 10.300781 10.300781zm0 0"/><path d="m10.300781 178.734375h13.394531v-101.988281h-13.394531c-5.6875 0-10.300781 4.613281-10.300781 10.304687v81.382813c0 5.691406 4.613281 10.300781 10.300781 10.300781zm0 0"/><path d="m10.300781 315.75h13.394531v-40.175781h-13.394531c-5.6875 0-10.300781 4.609375-10.300781 10.300781v19.574219c0 5.6875 4.613281 10.300781 10.300781 10.300781zm0 0"/></g><path d="m21.035156 491.394531v-470.789062c0-11.378907 9.226563-20.605469 20.605469-20.605469h250.5c11.378906 0 20.605469 9.226562 20.605469 20.605469v470.792969c0 11.378906-9.226563 20.601562-20.605469 20.601562h-250.5c-11.378906 0-20.605469-9.226562-20.605469-20.605469zm0 0" fill="#7b8c98"/><path d="m312.742188 20.605469v470.792969c0 11.382812-9.21875 20.601562-20.601563 20.601562h-20.171875c11.382812 0 20.605469-9.21875 20.605469-20.601562v-470.792969c0-11.386719-9.222657-20.605469-20.605469-20.605469h20.171875c11.382813 0 20.601563 9.21875 20.601563 20.605469zm0 0" fill="#627687"/><path d="m21.035156 52.023438h291.710938v407.953124h-291.710938zm0 0" fill="#7fb7ea"/><path d="m292.574219 52.023438h20.171875v407.953124h-20.171875zm0 0" fill="#5f9eeb"/><path d="m187.0625 35.371094h-40.34375c-4.269531 0-7.726562-3.460938-7.726562-7.726563s3.457031-7.726562 7.726562-7.726562h40.34375c4.269531 0 7.726562 3.460937 7.726562 7.726562s-3.457031 7.726563-7.726562 7.726563zm0 0" fill="#627687"/><path d="m372.398438 263.726562h-144.589844c-4.265625 0-7.722656-3.460937-7.722656-7.726562s3.457031-7.726562 7.722656-7.726562h144.589844c4.265624 0 7.726562 3.460937 7.726562 7.726562s-3.460938 7.726562-7.726562 7.726562zm0 0" fill="#0d73ce"/><path d="m202.78125 209.402344c-2.625 0-5.183594-1.339844-6.632812-3.753906-2.195313-3.660157-1.011719-8.40625 2.648437-10.601563l166.128906-103.804687c3.660157-2.195313 8.40625-1.007813 10.601563 2.648437 2.195312 3.660156 1.007812 8.40625-2.652344 10.601563l-166.125 103.808593c-1.246094.746094-2.617188 1.101563-3.96875 1.101563zm0 0" fill="#0d73ce"/><path d="m376.765625 427.410156c-1.351563 0-2.722656-.355468-3.96875-1.101562l-176.058594-111.417969c-3.660156-2.195313-4.847656-6.941406-2.652343-10.601563 2.199218-3.65625 6.945312-4.84375 10.601562-2.648437l176.0625 111.414063c3.660156 2.199218 4.84375 6.941406 2.648438 10.601562-1.445313 2.414062-4.007813 3.753906-6.632813 3.753906zm0 0" fill="#0d73ce"/><path d="m234.882812 257.503906c0 8.234375-1.46875 16.128906-4.160156 23.441406-9.546875 25.996094-34.523437 44.546876-63.832031 44.546876s-54.285156-18.550782-63.835937-44.546876c-2.6875-7.3125-4.15625-15.207031-4.15625-23.441406 0-37.5625 30.449218-67.992187 67.992187-67.992187s67.992187 30.429687 67.992187 67.992187zm0 0" fill="#74e2cd"/><path d="m230.71875 280.949219c-9.546875 25.992187-34.519531 44.546875-63.828125 44.546875s-54.28125-18.554688-63.832031-44.546875c5.617187-15.304688 16.578125-28.019531 30.617187-35.898438 9.820313-5.511719 21.152344-8.65625 33.214844-8.65625s23.394531 3.140625 33.210937 8.65625c14.042969 7.878907 25.003907 20.589844 30.617188 35.898438zm0 0" fill="#eb5777"/><path d="m200.101562 245.050781c-8.828124 7.898438-20.46875 12.699219-33.210937 12.699219s-24.382813-4.800781-33.214844-12.699219c9.820313-5.511719 21.152344-8.65625 33.214844-8.65625s23.394531 3.144531 33.210937 8.65625zm0 0" fill="#ce3f63"/><path d="m204.402344 207.875c0 20.71875-16.792969 37.511719-37.511719 37.511719s-37.511719-16.792969-37.511719-37.511719 16.792969-37.511719 37.511719-37.511719 37.511719 16.792969 37.511719 37.511719zm0 0" fill="#f8c298"/><path d="m482.402344 79.113281c0 7.480469-1.332032 14.644531-3.773438 21.285157-8.671875 23.597656-31.347656 40.445312-57.957031 40.445312-26.605469 0-49.28125-16.84375-57.953125-40.445312-2.441406-6.640626-3.773438-13.808594-3.773438-21.285157 0-34.101562 27.640626-61.730469 61.726563-61.730469 34.089844 0 61.730469 27.628907 61.730469 61.730469zm0 0" fill="#a0d37d"/><path d="m478.625 100.402344c-8.667969 23.597656-31.339844 40.441406-57.949219 40.441406s-49.28125-16.84375-57.953125-40.441406c5.097656-13.898438 15.050782-25.4375 27.796875-32.59375 8.914063-5.003906 19.203125-7.859375 30.15625-7.859375 10.949219 0 21.238281 2.855469 30.152344 7.859375 12.75 7.15625 22.699219 18.695312 27.796875 32.59375zm0 0" fill="#f1dd47"/><path d="m450.828125 67.808594c-8.015625 7.171875-18.582031 11.53125-30.152344 11.53125-11.570312 0-22.140625-4.359375-30.15625-11.53125 8.914063-5.003906 19.203125-7.859375 30.15625-7.859375 10.949219 0 21.238281 2.855469 30.152344 7.859375zm0 0" fill="#efc40f"/><path d="m454.734375 34.058594c0 18.808594-15.25 34.058594-34.058594 34.058594-18.8125 0-34.058593-15.25-34.058593-34.058594s15.246093-34.058594 34.058593-34.058594c18.808594 0 34.058594 15.25 34.058594 34.058594zm0 0" fill="#f8c298"/><path d="m482.402344 264.691406c0 7.480469-1.332032 14.644532-3.773438 21.285156-8.671875 23.597657-31.347656 40.445313-57.957031 40.445313-26.605469 0-49.28125-16.84375-57.953125-40.445313-2.441406-6.640624-3.773438-13.808593-3.773438-21.285156 0-34.101562 27.640626-61.730468 61.726563-61.730468 34.089844 0 61.730469 27.628906 61.730469 61.730468zm0 0" fill="#74e2cd"/><path d="m478.625 285.980469c-8.667969 23.597656-31.339844 40.441406-57.949219 40.441406s-49.28125-16.84375-57.953125-40.441406c5.097656-13.898438 15.050782-25.441407 27.796875-32.59375 8.914063-5.003907 19.203125-7.859375 30.15625-7.859375 10.949219 0 21.238281 2.855468 30.152344 7.859375 12.75 7.152343 22.699219 18.695312 27.796875 32.59375zm0 0" fill="#3a82d0"/><path d="m450.828125 253.386719c-8.015625 7.171875-18.582031 11.53125-30.152344 11.53125-11.570312 0-22.140625-4.359375-30.15625-11.53125 8.914063-5.003907 19.203125-7.859375 30.15625-7.859375 10.949219 0 21.238281 2.855468 30.152344 7.859375zm0 0" fill="#0d73ce"/><path d="m454.734375 219.636719c0 18.808593-15.25 34.054687-34.058594 34.054687-18.8125 0-34.058593-15.246094-34.058593-34.054687 0-18.8125 15.246093-34.058594 34.058593-34.058594 18.808594 0 34.058594 15.246094 34.058594 34.058594zm0 0" fill="#ffd6c0"/><path d="m482.402344 450.269531c0 7.476563-1.332032 14.644531-3.773438 21.285157-8.671875 23.597656-31.347656 40.441406-57.957031 40.441406-26.605469 0-49.28125-16.84375-57.953125-40.441406-2.441406-6.640626-3.773438-13.808594-3.773438-21.285157 0-34.101562 27.640626-61.730469 61.726563-61.730469 34.089844 0 61.730469 27.628907 61.730469 61.730469zm0 0" fill="#faaa3c"/><path d="m478.625 471.558594c-8.667969 23.597656-31.339844 40.441406-57.949219 40.441406s-49.28125-16.84375-57.953125-40.441406c5.097656-13.898438 15.050782-25.441406 27.796875-32.59375 8.914063-5.003906 19.203125-7.859375 30.15625-7.859375 10.949219 0 21.238281 2.855469 30.152344 7.859375 12.75 7.152344 22.699219 18.695312 27.796875 32.59375zm0 0" fill="#74e2cd"/><path d="m450.828125 438.964844c-8.015625 7.171875-18.582031 11.53125-30.152344 11.53125-11.570312 0-22.140625-4.359375-30.15625-11.53125 8.914063-5.003906 19.203125-7.859375 30.15625-7.859375 10.949219 0 21.238281 2.855469 30.152344 7.859375zm0 0" fill="#4fceb7"/><path d="m454.734375 405.214844c0 18.808594-15.25 34.054687-34.058594 34.054687-18.8125 0-34.058593-15.246093-34.058593-34.054687 0-18.8125 15.246093-34.058594 34.058593-34.058594 18.808594 0 34.058594 15.246094 34.058594 34.058594zm0 0" fill="#ba6f3c"/></svg>