<svg height="512pt" viewBox="0 -89 512 512" width="512pt" xmlns="http://www.w3.org/2000/svg"><path d="m158.132812 10.300781v13.394531h-81.386718v-13.394531c0-5.6875 4.613281-10.300781 10.304687-10.300781h60.78125c5.6875 0 10.300781 4.613281 10.300781 10.300781zm0 0" fill="#93a3af"/><path d="m251.878906 323.476562v-13.390624h-40.175781v13.390624c0 5.691407 4.609375 10.304688 10.300781 10.304688h19.574219c5.6875-.003906 10.300781-4.613281 10.300781-10.304688zm0 0" fill="#93a3af"/><path d="m178.734375 323.476562v-13.390624h-101.988281v13.390624c0 5.691407 4.613281 10.304688 10.304687 10.304688h81.382813c5.691406-.003906 10.300781-4.613281 10.300781-10.304688zm0 0" fill="#93a3af"/><path d="m315.75 323.476562v-13.390624h-40.175781v13.390624c0 5.691407 4.609375 10.304688 10.300781 10.304688h19.574219c5.6875-.003906 10.300781-4.613281 10.300781-10.304688zm0 0" fill="#93a3af"/><path d="m512 41.640625v250.5c0 11.382813-9.21875 20.601563-20.605469 20.601563h-470.789062c-11.386719 0-20.605469-9.21875-20.605469-20.605469v-250.496094c0-11.382813 9.21875-20.605469 20.605469-20.605469h470.792969c11.382812 0 20.601562 9.222656 20.601562 20.605469zm0 0" fill="#7b8c98"/><path d="m512 41.640625v250.5c0 11.382813-9.21875 20.601563-20.605469 20.601563h-18.027343c11.386718 0 20.605468-9.21875 20.605468-20.601563v-250.5c0-11.382813-9.21875-20.605469-20.605468-20.605469h18.027343c11.386719 0 20.605469 9.222656 20.605469 20.605469zm0 0" fill="#627687"/><path d="m52.023438 21.035156h407.953124v291.707032h-407.953124zm0 0" fill="#74e2cd"/><path d="m363.324219 79.210938c0 15.484374-12.589844 28.070312-28.070313 28.070312h-63.027344c-6.953124 0-12.621093 5.667969-12.621093 12.621094v14.0625c0 4.265625-3.460938 7.726562-7.726563 7.726562s-7.726562-3.460937-7.726562-7.726562v-14.0625c0-15.472656 12.589844-28.070313 28.074218-28.070313h63.027344c6.960938 0 12.617188-5.65625 12.617188-12.621093 0-6.953126-5.65625-12.621094-12.617188-12.621094h-136.171875c-15.484375 0-28.070312-12.585938-28.070312-28.070313v-17.484375h15.453125v17.484375c0 6.964844 5.664062 12.621094 12.617187 12.621094h136.171875c15.480469 0 28.070313 12.597656 28.070313 28.070313zm0 0" fill="#627687"/><path d="m442.464844 21.035156h17.511718v291.707032h-17.511718zm0 0" fill="#4fceb7"/><path d="m27.644531 194.789062c-4.269531 0-7.726562-3.460937-7.726562-7.726562v-40.34375c0-4.269531 3.457031-7.726562 7.726562-7.726562 4.265625 0 7.722657 3.457031 7.722657 7.726562v40.34375c0 4.269531-3.457032 7.726562-7.722657 7.726562zm0 0" fill="#627687"/><path d="m340.179688 129.847656-168.167969-.003906c-36.855469.480469-66.585938 30.492188-66.585938 67.460938 0 37.269531 30.214844 67.480468 67.484375 67.480468 25.863282 0 48.316406-14.558594 59.644532-35.921875h46.890624c11.328126 21.363281 33.78125 35.921875 59.648438 35.921875 37.265625 0 67.480469-30.210937 67.480469-67.480468 0-36.90625-29.628907-66.871094-66.394531-67.457032zm0 0" fill="#ebeef2"/><path d="m406.570312 197.304688c0 37.269531-30.214843 67.476562-67.476562 67.476562-3.171875 0-6.304688-.214844-9.363281-.648438 32.832031-4.542968 58.121093-32.730468 58.121093-66.828124 0-36.902344-29.625-66.871094-66.394531-67.457032h18.71875c36.765625.585938 66.394531 30.554688 66.394531 67.457032zm0 0" fill="#d3d8df"/><g fill="#eb5777"><path d="m307.382812 207.492188c-3.160156 0-6.128906-1.953126-7.265624-5.097657-1.453126-4.011719.621093-8.445312 4.636718-9.894531l.105469-.039062c4.007813-1.449219 8.441406.625 9.894531 4.636718 1.449219 4.011719-.625 8.441406-4.636718 9.894532l-.105469.039062c-.867188.3125-1.753907.460938-2.628907.460938zm0 0"/><path d="m332.574219 198.074219c-3.167969 0-6.140625-1.964844-7.269531-5.121094-1.441407-4.015625.648437-8.441406 4.664062-9.878906l.105469-.039063c4.015625-1.441406 8.441406.648438 9.878906 4.664063 1.441406 4.019531-.648437 8.441406-4.664063 9.882812l-.105468.035157c-.859375.3125-1.742188.457031-2.609375.457031zm0 0"/><path d="m357.773438 188.65625c-3.164063 0-6.128907-1.953125-7.265626-5.097656-1.453124-4.011719.621094-8.441406 4.632813-9.894532l.105469-.039062c4.011718-1.449219 8.445312.625 9.898437 4.636719 1.449219 4.011719-.625 8.441406-4.636719 9.894531l-.105468.039062c-.871094.3125-1.757813.460938-2.628906.460938zm0 0"/><path d="m324.347656 224.550781c-3.136718 0-6.089844-1.921875-7.242187-5.035156-1.488281-4 .550781-8.449219 4.550781-9.933594l.105469-.039062c3.996093-1.492188 8.449219.550781 9.933593 4.550781 1.484376 4-.550781 8.449219-4.550781 9.933594l-.109375.039062c-.886718.328125-1.796875.484375-2.6875.484375zm0 0"/><path d="m349.542969 215.132812c-3.136719 0-6.089844-1.921874-7.242188-5.035156-1.488281-4 .550781-8.449218 4.550781-9.933594l.105469-.039062c3.996094-1.492188 8.449219.550781 9.933594 4.550781s-.550781 8.449219-4.550781 9.933594l-.109375.039063c-.886719.332031-1.792969.484374-2.6875.484374zm0 0"/><path d="m374.738281 205.71875c-3.136719 0-6.089843-1.925781-7.246093-5.039062-1.484376-4 .554687-8.449219 4.554687-9.933594l.105469-.039063c3.996094-1.488281 8.445312.550781 9.933594 4.550781 1.484374 4-.554688 8.449219-4.554688 9.933594l-.105469.039063c-.886719.332031-1.792969.488281-2.6875.488281zm0 0"/><path d="m241.050781 177.074219h-7.539062c-4.269531 0-7.726563-3.460938-7.726563-7.726563 0-4.269531 3.460938-7.726562 7.726563-7.726562h7.539062c4.265625 0 7.726563 3.457031 7.726563 7.726562 0 4.265625-3.460938 7.726563-7.726563 7.726563zm0 0"/><path d="m278.488281 177.074219h-7.539062c-4.265625 0-7.726563-3.460938-7.726563-7.726563 0-4.269531 3.460938-7.726562 7.726563-7.726562h7.539062c4.269531 0 7.726563 3.457031 7.726563 7.726562 0 4.265625-3.457032 7.726563-7.726563 7.726563zm0 0"/></g><path d="m213.761719 198.175781c0 22.914063-18.574219 41.488281-41.488281 41.488281-22.914063 0-41.492188-18.574218-41.492188-41.488281 0-22.914062 18.578125-41.488281 41.492188-41.488281 22.914062 0 41.488281 18.574219 41.488281 41.488281zm0 0" fill="#c2c6cc"/><path d="m192.980469 190.449219h-12.980469v-12.980469c0-4.269531-3.460938-7.726562-7.726562-7.726562-4.269532 0-7.726563 3.457031-7.726563 7.726562v12.980469h-12.980469c-4.269531 0-7.726562 3.457031-7.726562 7.726562 0 4.265625 3.457031 7.726563 7.726562 7.726563h12.980469v12.980468c0 4.269532 3.460937 7.726563 7.726563 7.726563 4.265624 0 7.726562-3.460937 7.726562-7.726563v-12.980468h12.980469c4.269531 0 7.726562-3.460938 7.726562-7.726563 0-4.269531-3.460937-7.726562-7.726562-7.726562zm0 0" fill="#627687"/></svg>