<svg height="512pt" viewBox="-43 0 512 512.001" width="512pt" xmlns="http://www.w3.org/2000/svg"><path d="m323.476562 158.132812h-13.390624v-81.386718h13.390624c5.691407 0 10.304688 4.613281 10.304688 10.304687v60.78125c0 5.6875-4.613281 10.300781-10.304688 10.300781zm0 0" fill="#93a3af"/><path d="m10.300781 251.878906h13.394531v-40.175781h-13.394531c-5.6875 0-10.300781 4.609375-10.300781 10.300781v19.574219c0 5.6875 4.613281 10.300781 10.300781 10.300781zm0 0" fill="#93a3af"/><path d="m10.300781 178.734375h13.394531v-101.988281h-13.394531c-5.6875 0-10.300781 4.613281-10.300781 10.304687v81.382813c0 5.691406 4.613281 10.300781 10.300781 10.300781zm0 0" fill="#93a3af"/><path d="m10.300781 315.75h13.394531v-40.175781h-13.394531c-5.6875 0-10.300781 4.609375-10.300781 10.300781v19.574219c0 5.6875 4.613281 10.300781 10.300781 10.300781zm0 0" fill="#93a3af"/><path d="m21.035156 491.394531v-470.789062c0-11.378907 9.226563-20.605469 20.605469-20.605469h250.5c11.378906 0 20.605469 9.226562 20.605469 20.605469v470.792969c0 11.378906-9.226563 20.601562-20.605469 20.601562h-250.5c-11.378906 0-20.605469-9.226562-20.605469-20.605469zm0 0" fill="#7b8c98"/><path d="m312.742188 20.605469v470.792969c0 11.382812-9.21875 20.601562-20.601563 20.601562h-20.171875c11.382812 0 20.605469-9.21875 20.605469-20.601562v-470.792969c0-11.386719-9.222657-20.605469-20.605469-20.605469h20.171875c11.382813 0 20.601563 9.21875 20.601563 20.605469zm0 0" fill="#627687"/><path d="m21.035156 52.023438h291.710938v407.953124h-291.710938zm0 0" fill="#a0d37d"/><path d="m292.574219 52.023438h20.171875v407.953124h-20.171875zm0 0" fill="#84b75b"/><path d="m187.0625 35.367188h-40.34375c-4.269531 0-7.726562-3.457032-7.726562-7.722657 0-4.269531 3.457031-7.726562 7.726562-7.726562h40.34375c4.269531 0 7.726562 3.457031 7.726562 7.726562 0 4.265625-3.457031 7.722657-7.726562 7.722657zm0 0" fill="#627687"/><path d="m254.820312 193.863281h-175.859374c-8.046876 0-14.574219-6.523437-14.574219-14.574219v-23.390624c0-8.046876 6.527343-14.574219 14.574219-14.574219h175.855468c8.050782 0 14.574219 6.527343 14.574219 14.574219v23.390624c.003906 8.050782-6.523437 14.574219-14.570313 14.574219zm0 0" fill="#d3d8df"/><path d="m99.929688 175.320312c-.023438 0-.046876 0-.070313 0h-.113281c-4.265625-.039062-7.695313-3.527343-7.65625-7.796874.039062-4.242188 3.488281-7.65625 7.726562-7.65625h.066406.113282c4.269531.039062 7.695312 3.527343 7.660156 7.796874-.039062 4.242188-3.492188 7.65625-7.726562 7.65625zm0 0" fill="#eb5777"/><path d="m128.886719 175.320312c-.023438 0-.046875 0-.070313 0h-.113281c-4.265625-.039062-7.695313-3.527343-7.65625-7.796874.039063-4.242188 3.492187-7.65625 7.726563-7.65625h.070312.113281c4.265625.039062 7.695313 3.527343 7.65625 7.796874-.039062 4.242188-3.492187 7.65625-7.726562 7.65625zm0 0" fill="#eb5777"/><path d="m157.84375 175.320312c-.019531 0-.042969 0-.066406 0h-.113282c-4.269531-.039062-7.695312-3.527343-7.660156-7.796874.039063-4.242188 3.492188-7.65625 7.726563-7.65625h.070312.113281c4.265626.039062 7.695313 3.527343 7.65625 7.796874-.039062 4.242188-3.488281 7.65625-7.726562 7.65625zm0 0" fill="#eb5777"/><path d="m186.800781 175.320312c-.019531 0-.042969 0-.066406 0h-.113281c-4.269532-.039062-7.695313-3.527343-7.660156-7.796874.039062-4.242188 3.492187-7.65625 7.726562-7.65625h.070312.113282c4.265625.039062 7.695312 3.527343 7.65625 7.796874-.035156 4.242188-3.488282 7.65625-7.726563 7.65625zm0 0" fill="#eb5777"/><path d="m215.761719 175.320312c-.023438 0-.046875 0-.070313 0h-.113281c-4.265625-.039062-7.695313-3.527343-7.65625-7.796874.035156-4.242188 3.488281-7.65625 7.722656-7.65625h.070313.113281c4.265625.039062 7.695313 3.527343 7.660156 7.796874-.039062 4.242188-3.492187 7.65625-7.726562 7.65625zm0 0" fill="#eb5777"/><g fill="#69a833"><path d="m99.929688 112.898438h-24.417969c-4.265625 0-7.722657-3.457032-7.722657-7.726563 0-4.265625 3.457032-7.726563 7.722657-7.726563h24.417969c4.265624 0 7.726562 3.460938 7.726562 7.726563 0 4.269531-3.460938 7.726563-7.726562 7.726563zm0 0"/><path d="m170.582031 228.476562h-95.070312c-4.265625 0-7.722657-3.457031-7.722657-7.722656 0-4.269531 3.457032-7.726562 7.722657-7.726562h95.070312c4.265625 0 7.722657 3.457031 7.722657 7.726562 0 4.265625-3.457032 7.722656-7.722657 7.722656zm0 0"/><path d="m158.21875 250.625h-82.707031c-4.265625 0-7.722657-3.460938-7.722657-7.726562 0-4.265626 3.457032-7.726563 7.722657-7.726563h82.707031c4.269531 0 7.726562 3.460937 7.726562 7.726563 0 4.265624-3.457031 7.726562-7.726562 7.726562zm0 0"/><path d="m170.582031 406.921875h-23.863281c-4.269531 0-7.726562-3.457031-7.726562-7.726563 0-4.265624 3.457031-7.726562 7.726562-7.726562h23.863281c4.265625 0 7.722657 3.460938 7.722657 7.726562 0 4.269532-3.457032 7.726563-7.722657 7.726563zm0 0"/><path d="m123.046875 406.921875h-47.535156c-4.265625 0-7.722657-3.457031-7.722657-7.726563 0-4.265624 3.457032-7.726562 7.722657-7.726562h47.535156c4.269531 0 7.726563 3.460938 7.726563 7.726562 0 4.269532-3.460938 7.726563-7.726563 7.726563zm0 0"/><path d="m87.71875 379.234375h-12.207031c-4.265625 0-7.722657-3.457031-7.722657-7.726563 0-4.265624 3.457032-7.726562 7.722657-7.726562h12.207031c4.269531 0 7.726562 3.460938 7.726562 7.726562 0 4.269532-3.457031 7.726563-7.726562 7.726563zm0 0"/></g><path d="m425.464844 258.554688v70.414062c0 69.761719-45.851563 131.234375-112.722656 151.105469-66.867188-19.871094-112.722657-81.34375-112.722657-151.105469v-70.414062c0-4.210938 2.554688-7.992188 6.460938-9.558594l102.421875-41.175782c2.46875-.992187 5.222656-.992187 7.683594 0l102.421874 41.175782c2.101563.84375 3.800782 2.316406 4.933594 4.171875.976563 1.585937 1.523438 3.441406 1.523438 5.386719zm0 0" fill="#ffcf64"/><path d="m398.679688 268.898438v59.335937c0 28.910156-9.136719 56.433594-26.414063 79.59375-15.328125 20.550781-35.765625 35.933594-59.523437 44.894531-23.753907-8.960937-44.183594-24.34375-59.511719-44.894531-17.285157-23.160156-26.425781-50.683594-26.425781-79.59375v-59.335937l85.9375-34.550782zm0 0" fill="#7b8c98"/><path d="m398.679688 268.898438v59.335937c0 28.910156-9.136719 56.433594-26.414063 79.59375-15.328125 20.550781-35.765625 35.933594-59.523437 44.894531v-218.375zm0 0" fill="#627687"/><path d="m425.464844 258.554688v66.105468l-76.738282 75.648438c-5.058593 4.984375-11.648437 7.476562-18.242187 7.476562s-13.1875-2.492187-18.257813-7.476562l-49.992187-49.285156c-4.058594-3.996094-4.101563-10.515626-.105469-14.578126l22.027344-22.34375c3.996094-4.058593 10.515625-4.097656 14.578125-.113281l31.75 31.308594 93.457031-92.128906c.976563 1.585937 1.523438 3.441406 1.523438 5.386719zm0 0" fill="#74e2cd"/></svg>