<svg height="512pt" viewBox="-46 0 512 512.001" width="512pt" xmlns="http://www.w3.org/2000/svg"><path d="m323.476562 158.132812h-13.390624v-81.386718h13.390624c5.691407 0 10.304688 4.613281 10.304688 10.304687v60.78125c0 5.6875-4.613281 10.300781-10.304688 10.300781zm0 0" fill="#93a3af"/><path d="m10.300781 251.878906h13.394531v-40.175781h-13.394531c-5.6875 0-10.300781 4.609375-10.300781 10.300781v19.574219c0 5.6875 4.613281 10.300781 10.300781 10.300781zm0 0" fill="#93a3af"/><path d="m10.300781 178.734375h13.394531v-101.988281h-13.394531c-5.6875 0-10.300781 4.613281-10.300781 10.304687v81.382813c0 5.691406 4.613281 10.300781 10.300781 10.300781zm0 0" fill="#93a3af"/><path d="m10.300781 315.75h13.394531v-40.175781h-13.394531c-5.6875 0-10.300781 4.609375-10.300781 10.300781v19.574219c0 5.6875 4.613281 10.300781 10.300781 10.300781zm0 0" fill="#93a3af"/><path d="m21.035156 491.394531v-470.789062c0-11.378907 9.222656-20.605469 20.601563-20.605469h250.503906c11.378906 0 20.605469 9.226562 20.605469 20.605469v470.792969c0 11.378906-9.226563 20.601562-20.605469 20.601562h-250.503906c-11.378907 0-20.601563-9.226562-20.601563-20.605469zm0 0" fill="#7b8c98"/><path d="m312.742188 20.605469v470.792969c0 11.382812-9.21875 20.601562-20.605469 20.601562h-20.167969c11.382812 0 20.601562-9.21875 20.601562-20.601562v-470.792969c0-11.386719-9.21875-20.605469-20.601562-20.605469h20.171875c11.382813 0 20.601563 9.21875 20.601563 20.605469zm0 0" fill="#627687"/><path d="m21.035156 52.023438h291.710938v407.953124h-291.710938zm0 0" fill="#7fb7ea"/><path d="m292.570312 52.023438h20.175782v407.953124h-20.175782zm0 0" fill="#5f9eeb"/><path d="m187.0625 35.367188h-40.347656c-4.265625 0-7.722656-3.457032-7.722656-7.722657 0-4.269531 3.457031-7.726562 7.722656-7.726562h40.347656c4.269531 0 7.726562 3.457031 7.726562 7.726562 0 4.265625-3.457031 7.722657-7.726562 7.722657zm0 0" fill="#627687"/><path d="m254.816406 193.863281h-175.855468c-8.046876 0-14.574219-6.523437-14.574219-14.574219v-23.390624c0-8.046876 6.527343-14.574219 14.574219-14.574219h175.855468c8.050782 0 14.574219 6.527343 14.574219 14.574219v23.390624c0 8.050782-6.523437 14.574219-14.574219 14.574219zm0 0" fill="#d3d8df"/><path d="m99.929688 175.320312c-.023438 0-.046876 0-.070313 0h-.113281c-4.265625-.039062-7.695313-3.527343-7.65625-7.796874.039062-4.242188 3.488281-7.65625 7.726562-7.65625h.066406.113282c4.269531.039062 7.695312 3.527343 7.660156 7.796874-.039062 4.242188-3.492188 7.65625-7.726562 7.65625zm0 0" fill="#dd801b"/><path d="m128.886719 175.320312c-.023438 0-.046875 0-.070313 0h-.113281c-4.265625-.039062-7.695313-3.527343-7.65625-7.796874.039063-4.242188 3.488281-7.65625 7.726563-7.65625h.066406.113281c4.269531.039062 7.695313 3.527343 7.660156 7.796874-.039062 4.242188-3.492187 7.65625-7.726562 7.65625zm0 0" fill="#dd801b"/><path d="m157.84375 175.320312c-.023438 0-.046875 0-.070312 0h-.113282c-4.265625-.039062-7.695312-3.527343-7.65625-7.796874.039063-4.242188 3.492188-7.65625 7.726563-7.65625h.070312.113281c4.265626.039062 7.695313 3.527343 7.65625 7.796874-.039062 4.242188-3.488281 7.65625-7.726562 7.65625zm0 0" fill="#dd801b"/><path d="m186.800781 175.320312c-.019531 0-.042969 0-.066406 0h-.113281c-4.269532-.039062-7.695313-3.527343-7.660156-7.796874.039062-4.242188 3.492187-7.65625 7.726562-7.65625h.070312.113282c4.265625.039062 7.695312 3.527343 7.65625 7.796874-.039063 4.242188-3.488282 7.65625-7.726563 7.65625zm0 0" fill="#dd801b"/><g fill="#3a82d0"><path d="m99.929688 112.898438h-24.417969c-4.265625 0-7.722657-3.457032-7.722657-7.726563 0-4.265625 3.457032-7.726563 7.722657-7.726563h24.417969c4.265624 0 7.726562 3.460938 7.726562 7.726563 0 4.269531-3.460938 7.726563-7.726562 7.726563zm0 0"/><path d="m170.582031 228.476562h-95.070312c-4.265625 0-7.722657-3.457031-7.722657-7.722656 0-4.269531 3.457032-7.726562 7.722657-7.726562h95.070312c4.265625 0 7.722657 3.457031 7.722657 7.726562 0 4.265625-3.457032 7.722656-7.722657 7.722656zm0 0"/><path d="m158.21875 250.625h-82.707031c-4.265625 0-7.726563-3.460938-7.726563-7.726562 0-4.265626 3.460938-7.726563 7.726563-7.726563h82.707031c4.265625 0 7.726562 3.460937 7.726562 7.726563 0 4.265624-3.460937 7.726562-7.726562 7.726562zm0 0"/><path d="m170.582031 406.921875h-23.863281c-4.269531 0-7.726562-3.457031-7.726562-7.726563 0-4.265624 3.457031-7.726562 7.726562-7.726562h23.863281c4.265625 0 7.722657 3.460938 7.722657 7.726562 0 4.269532-3.457032 7.726563-7.722657 7.726563zm0 0"/><path d="m123.046875 406.921875h-47.535156c-4.265625 0-7.726563-3.457031-7.726563-7.726563 0-4.265624 3.460938-7.726562 7.726563-7.726562h47.535156c4.265625 0 7.726563 3.460938 7.726563 7.726562 0 4.269532-3.460938 7.726563-7.726563 7.726563zm0 0"/><path d="m87.71875 379.234375h-12.207031c-4.265625 0-7.726563-3.457031-7.726563-7.726563 0-4.265624 3.460938-7.726562 7.726563-7.726562h12.207031c4.269531 0 7.726562 3.460938 7.726562 7.726562 0 4.269532-3.457031 7.726563-7.726562 7.726563zm0 0"/></g><path d="m371.378906 340.871094c-8.53125 0-15.453125-6.917969-15.453125-15.449219v-113.132813c0-25.277343-20.5625-45.84375-45.839843-45.84375-25.28125 0-45.84375 20.566407-45.84375 45.84375v113.132813c0 8.53125-6.917969 15.449219-15.453126 15.449219-8.535156 0-15.453124-6.917969-15.453124-15.449219v-113.132813c0-42.320312 34.429687-76.75 76.746093-76.75 42.320313 0 76.75 34.433594 76.75 76.75v113.132813c0 8.53125-6.917969 15.449219-15.453125 15.449219zm0 0" fill="#627687"/><path d="m420.316406 372.9375c0 60.878906-49.351562 110.226562-110.230468 110.226562-60.878907 0-110.230469-49.347656-110.230469-110.226562s49.351562-110.230469 110.230469-110.230469c60.878906 0 110.230468 49.351563 110.230468 110.230469zm0 0" fill="#f1dd47"/><path d="m420.3125 372.933594c0 60.886718-49.351562 110.226562-110.230469 110.226562-5.203125 0-10.328125-.363281-15.339843-1.066406 53.617187-7.457031 94.886718-53.480469 94.886718-109.160156 0-55.671875-41.273437-101.695313-94.886718-109.164063 5.011718-.703125 10.136718-1.066406 15.339843-1.066406 60.878907 0 110.230469 49.351563 110.230469 110.230469zm0 0" fill="#efc40f"/><path d="m335.855469 380.480469c0-15.195313-13.160157-27.324219-28.703125-25.605469-11.828125 1.304688-21.351563 10.824219-22.671875 22.648438-1.105469 9.933593 3.441406 18.886718 10.832031 24.066406v23.628906c0 8.160156 6.613281 14.773438 14.773438 14.773438 8.160156 0 14.773437-6.613282 14.773437-14.773438v-23.628906c6.644531-4.660156 10.996094-12.375 10.996094-21.109375zm0 0" fill="#dd801b"/></svg>