<svg height="512pt" viewBox="-89 0 512 512.001" width="512pt" xmlns="http://www.w3.org/2000/svg"><g fill="#93a3af"><path d="m323.476562 158.132812h-13.390624v-81.386718h13.390624c5.691407 0 10.304688 4.613281 10.304688 10.304687v60.78125c0 5.6875-4.613281 10.300781-10.304688 10.300781zm0 0"/><path d="m10.300781 251.878906h13.394531v-40.175781h-13.394531c-5.6875 0-10.300781 4.609375-10.300781 10.300781v19.574219c0 5.6875 4.613281 10.300781 10.300781 10.300781zm0 0"/><path d="m10.300781 178.734375h13.394531v-101.988281h-13.394531c-5.6875 0-10.300781 4.613281-10.300781 10.304687v81.382813c0 5.691406 4.613281 10.300781 10.300781 10.300781zm0 0"/><path d="m10.300781 315.75h13.394531v-40.175781h-13.394531c-5.6875 0-10.300781 4.609375-10.300781 10.300781v19.574219c0 5.6875 4.613281 10.300781 10.300781 10.300781zm0 0"/></g><path d="m21.035156 491.394531v-470.789062c0-11.378907 9.226563-20.605469 20.605469-20.605469h250.5c11.378906 0 20.605469 9.226562 20.605469 20.605469v470.792969c0 11.378906-9.226563 20.601562-20.605469 20.601562h-250.5c-11.378906 0-20.605469-9.226562-20.605469-20.605469zm0 0" fill="#ed7a98"/><path d="m312.742188 20.605469v470.792969c0 11.382812-9.21875 20.601562-20.601563 20.601562h-20.171875c11.382812 0 20.605469-9.21875 20.605469-20.601562v-470.792969c0-11.386719-9.222657-20.605469-20.605469-20.605469h20.171875c11.382813 0 20.601563 9.21875 20.601563 20.605469zm0 0" fill="#eb5777"/><path d="m21.035156 52.023438h291.710938v407.953124h-291.710938zm0 0" fill="#7fb7ea"/><path d="m292.574219 52.023438h20.171875v407.953124h-20.171875zm0 0" fill="#5f9eeb"/><path d="m187.0625 35.371094h-40.34375c-4.269531 0-7.726562-3.460938-7.726562-7.726563s3.457031-7.726562 7.726562-7.726562h40.34375c4.269531 0 7.726562 3.460937 7.726562 7.726562s-3.457031 7.726563-7.726562 7.726563zm0 0" fill="#eb5777"/><path d="m187.363281 396.265625h-40.945312c-4.269531 0-7.726563-3.460937-7.726563-7.726563 0-4.265624 3.457032-7.726562 7.726563-7.726562h40.945312c4.269531 0 7.726563 3.460938 7.726563 7.726562 0 4.265626-3.457032 7.726563-7.726563 7.726563zm0 0" fill="#ebeef2"/><path d="m171.910156 417.222656h-10.039062c-4.269532 0-7.726563-3.457031-7.726563-7.726562 0-4.265625 3.457031-7.726563 7.726563-7.726563h10.039062c4.269532 0 7.726563 3.460938 7.726563 7.726563 0 4.269531-3.457031 7.726562-7.726563 7.726562zm0 0" fill="#ebeef2"/><path d="m258.933594 176.855469c-17.941406-17.9375-47.027344-17.9375-64.96875 0l-14.90625 14.910156-14.90625-14.910156c-17.941406-17.9375-47.027344-17.9375-64.964844 0-17.941406 17.941406-17.941406 47.027343 0 64.96875l71.914062 71.914062c4.394532 4.394531 11.523438 4.394531 15.917969 0l71.914063-71.914062c17.9375-17.941407 17.9375-47.027344 0-64.96875zm0 0" fill="#eb5777"/><path d="m258.929688 241.828125-71.90625 71.90625c-4.402344 4.398437-11.53125 4.398437-15.929688 0l-4.613281-4.617187c.453125-.339844.894531-.710938 1.308593-1.121094l71.914063-71.917969c17.9375-17.945313 17.9375-47.027344 0-64.972656-3.046875-3.050781-6.417969-5.582031-10-7.59375 10.648437.753906 21.078125 5.191406 29.222656 13.34375 17.949219 17.945312 17.949219 47.027343.003907 64.972656zm0 0" fill="#ce3f63"/><path d="m151.859375 275.382812c-9.371094-9.371093-24.5625-9.371093-33.933594 0l-7.785156 7.785157-7.789063-7.785157c-9.367187-9.371093-24.558593-9.371093-33.929687 0-9.371094 9.371094-9.371094 24.5625 0 33.933594l37.5625 37.5625c2.292969 2.292969 6.015625 2.292969 8.3125 0l37.5625-37.5625c9.371094-9.371094 9.371094-24.5625 0-33.933594zm0 0" fill="#f1dd47"/><path d="m255.328125 311.160156c-.023437 0-.050781 0-.078125 0-4.265625-.039062-7.691406-3.53125-7.648438-7.800781l.03125-3.160156c.042969-4.265625 3.503907-7.695313 7.800782-7.648438 4.269531.042969 7.691406 3.535157 7.652344 7.800781l-.03125 3.160157c-.042969 4.242187-3.496094 7.648437-7.726563 7.648437zm0 0" fill="#ed7a98"/><path d="m255.0625 341.519531c-.027344 0-.050781 0-.074219 0-4.269531-.039062-7.695312-3.53125-7.652343-7.800781l.027343-3.160156c.042969-4.242188 3.492188-7.652344 7.726563-7.652344h.074218c4.265626.042969 7.691407 3.535156 7.652344 7.800781l-.03125 3.160157c-.039062 4.242187-3.492187 7.652343-7.722656 7.652343zm0 0" fill="#ed7a98"/><path d="m271.96875 324.910156c-.023438 0-.050781 0-.078125 0l-3.160156-.03125c-4.265625-.042968-7.691407-3.535156-7.648438-7.804687.042969-4.238281 3.492188-7.648438 7.722657-7.648438h.078124l3.160157.03125c4.269531.042969 7.691406 3.535157 7.652343 7.800781-.042968 4.242188-3.492187 7.652344-7.726562 7.652344zm0 0" fill="#ed7a98"/><path d="m241.613281 324.644531c-.027343 0-.054687 0-.078125 0l-3.164062-.03125c-4.265625-.042969-7.691406-3.535156-7.648438-7.804687.042969-4.265625 3.546875-7.6875 7.804688-7.648438l3.160156.03125c4.265625.042969 7.691406 3.535156 7.648438 7.800782-.042969 4.242187-3.492188 7.652343-7.722657 7.652343zm0 0" fill="#ed7a98"/><path d="m178.132812 117.75c-.023437 0-.050781 0-.078124-.003906-4.265626-.039063-7.6875-3.53125-7.648438-7.800782l.03125-3.160156c.042969-4.265625 3.570312-7.675781 7.804688-7.648437 4.265624.042969 7.6875 3.535156 7.648437 7.800781l-.03125 3.160156c-.042969 4.242188-3.492187 7.652344-7.726563 7.652344zm0 0" fill="#f1dd47"/><path d="m177.867188 148.109375c-.027344 0-.050782 0-.078126-.003906-4.265624-.039063-7.691406-3.535157-7.648437-7.800781l.03125-3.160157c.039063-4.242187 3.492187-7.652343 7.722656-7.652343.027344 0 .050781 0 .078125.003906 4.265625.039062 7.691406 3.535156 7.648438 7.800781l-.03125 3.160156c-.039063 4.242188-3.492188 7.652344-7.722656 7.652344zm0 0" fill="#f1dd47"/><path d="m194.777344 131.496094c-.027344 0-.050782 0-.078125 0l-3.160157-.03125c-4.265624-.039063-7.691406-3.535156-7.652343-7.800782.042969-4.269531 3.550781-7.6875 7.804687-7.652343l3.160156.03125c4.265626.042969 7.691407 3.535156 7.648438 7.800781-.039062 4.242188-3.492188 7.652344-7.722656 7.652344zm0 0" fill="#f1dd47"/><path d="m164.417969 131.230469c-.027344 0-.050781 0-.078125 0l-3.160156-.03125c-4.265626-.042969-7.691407-3.535157-7.648438-7.800781.039062-4.269532 3.574219-7.699219 7.800781-7.652344l3.160157.03125c4.265624.039062 7.691406 3.535156 7.648437 7.800781-.039063 4.242187-3.492187 7.652344-7.722656 7.652344zm0 0" fill="#f1dd47"/></svg>