<svg height="512pt" viewBox="0 0 512 512.002" width="512pt" xmlns="http://www.w3.org/2000/svg"><path d="m512 282.699219v-53.402344c0-5.445313-4.132812-10.003906-9.554688-10.539063l-59.585937-5.855468c-4.324219-.425782-7.898437-3.484375-9.089844-7.664063-3.921875-13.773437-9.398437-26.894531-16.234375-39.152343-2.101562-3.769532-1.628906-8.453126 1.109375-11.792969l37.953125-46.226563c3.457032-4.207031 3.152344-10.355468-.699218-14.207031l-37.757813-37.757813c-3.851563-3.855468-10-4.15625-14.207031-.699218l-46.226563 37.953125c-3.335937 2.738281-8.023437 3.210937-11.792969 1.109375-12.257812-6.835938-25.378906-12.3125-39.152343-16.238282-4.179688-1.1875-7.238281-4.761718-7.664063-9.085937l-5.855468-59.589844c-.53125-5.417969-5.09375-9.550781-10.539063-9.550781h-53.402344c-5.449219 0-10.007812 4.132812-10.539062 9.554688l-5.859375 59.589843c-.421875 4.324219-3.480469 7.894531-7.660156 9.085938-13.773438 3.921875-26.894532 9.398437-39.15625 16.238281-3.769532 2.101562-8.453126 1.625-11.789063-1.113281l-46.226563-37.949219c-4.210937-3.457031-10.355468-3.15625-14.207031.695312l-37.761719 37.757813c-3.851562 3.855469-4.152343 10-.699218 14.210937l37.953125 46.226563c2.738281 3.335937 3.214843 8.019531 1.109375 11.789063-6.835938 12.257812-12.3125 25.378906-16.234375 39.15625-1.191407 4.175781-4.765625 7.234374-9.089844 7.660156l-59.585937 5.859375c-5.421876.53125-9.554688 5.089843-9.554688 10.539062v53.402344c0 5.445313 4.132812 10.003906 9.554688 10.539063l59.589843 5.855468c4.324219.425782 7.894531 3.484375 9.085938 7.664063 3.925781 13.773437 9.402343 26.894531 16.238281 39.152343 2.101562 3.769532 1.628906 8.453126-1.113281 11.792969l-37.949219 46.226563c-3.457031 4.207031-3.15625 10.355468.695312 14.207031l37.761719 37.757813c3.851563 3.855468 9.996094 4.15625 14.207031.699218l46.226563-37.953125c3.335937-2.738281 8.019531-3.210937 11.789063-1.109375 12.261718 6.835938 25.382812 12.3125 39.15625 16.238282 4.179687 1.1875 7.238281 4.761718 7.660156 9.085937l5.859375 59.589844c.53125 5.417969 5.089843 9.554687 10.539062 9.554687h53.402344c5.445313 0 10.007813-4.136718 10.539063-9.554687l5.855468-59.589844c.425782-4.324219 3.484375-7.898437 7.664063-9.085937 13.773437-3.925782 26.894531-9.402344 39.152343-16.238282 3.773438-2.101562 8.457032-1.628906 11.792969 1.109375l46.226563 37.953125c4.210937 3.457032 10.355468 3.15625 14.207031-.699218l37.761719-37.757813c3.851562-3.855469 4.152344-10 .695312-14.210937l-37.949218-46.226563c-2.738282-3.335937-3.214844-8.019531-1.113282-11.789063 6.835938-12.261718 12.316406-25.378906 16.238282-39.15625 1.191406-4.175781 4.761718-7.234374 9.085937-7.660156l59.589844-5.859375c5.417969-.53125 9.550781-5.089843 9.550781-10.539062zm0 0" fill="#d3d8df"/><path d="m256 413.617188c-86.910156 0-157.617188-70.707032-157.617188-157.617188s70.707032-157.617188 157.617188-157.617188 157.617188 70.707032 157.617188 157.617188-70.707032 157.617188-157.617188 157.617188zm0 0" fill="#c2c6cc"/><path d="m401.257812 256c0 80.222656-65.035156 145.257812-145.257812 145.257812s-145.253906-65.035156-145.253906-145.257812 65.03125-145.257812 145.253906-145.257812 145.257812 65.035156 145.257812 145.257812zm0 0" fill="#74e2cd"/><path d="m256 378.800781c-67.710938 0-122.800781-55.085937-122.800781-122.800781s55.089843-122.800781 122.800781-122.800781c67.714844 0 122.804688 55.085937 122.804688 122.800781s-55.089844 122.800781-122.804688 122.800781zm0 0" fill="#4fceb7"/><path d="m366.441406 256c0 60.996094-49.445312 110.441406-110.441406 110.441406-60.992188 0-110.4375-49.445312-110.4375-110.441406s49.445312-110.441406 110.4375-110.441406c60.996094 0 110.441406 49.445312 110.441406 110.441406zm0 0" fill="#ebeef2"/><path d="m303.375 308.339844h-94.746094c-4.269531 0-7.726562-3.460938-7.726562-7.726563 0-4.269531 3.457031-7.726562 7.726562-7.726562h94.746094c4.269531 0 7.726562 3.457031 7.726562 7.726562 0 4.265625-3.457031 7.726563-7.726562 7.726563zm0 0" fill="#c2c6cc"/><path d="m259.046875 316.234375c-4.269531 0-7.726563-3.457031-7.726563-7.726563v-15.792968c0-4.269532 3.457032-7.726563 7.726563-7.726563 4.265625 0 7.722656 3.457031 7.722656 7.726563v15.792968c.003907 4.269532-3.457031 7.726563-7.722656 7.726563zm0 0" fill="#eb5777"/><path d="m303.375 263.726562h-94.746094c-4.269531 0-7.726562-3.460937-7.726562-7.726562s3.457031-7.726562 7.726562-7.726562h94.746094c4.269531 0 7.726562 3.460937 7.726562 7.726562s-3.457031 7.726562-7.726562 7.726562zm0 0" fill="#c2c6cc"/><path d="m288.921875 271.625c-4.269531 0-7.726563-3.460938-7.726563-7.726562v-15.796876c0-4.265624 3.457032-7.726562 7.726563-7.726562 4.265625 0 7.726563 3.460938 7.726563 7.726562v15.796876c0 4.265624-3.460938 7.726562-7.726563 7.726562zm0 0" fill="#eb5777"/><path d="m303.375 219.113281h-94.746094c-4.269531 0-7.726562-3.457031-7.726562-7.722656 0-4.269531 3.457031-7.726563 7.726562-7.726563h94.746094c4.269531 0 7.726562 3.457032 7.726562 7.726563 0 4.265625-3.457031 7.722656-7.726562 7.722656zm0 0" fill="#c2c6cc"/><path d="m233.679688 227.011719c-4.269532 0-7.726563-3.457031-7.726563-7.726563v-15.792968c0-4.269532 3.460937-7.726563 7.726563-7.726563 4.265624 0 7.726562 3.457031 7.726562 7.726563v15.792968c0 4.269532-3.457031 7.726563-7.726562 7.726563zm0 0" fill="#eb5777"/><g fill="#ebeef2"><path d="m256.058594 72.046875c-.023438 0-.046875 0-.070313 0l-.113281-.003906c-4.265625-.035157-7.695312-3.527344-7.65625-7.796875.039062-4.238282 3.488281-7.65625 7.722656-7.65625h.070313l.113281.003906c4.269531.035156 7.695312 3.527344 7.65625 7.792969-.035156 4.246093-3.488281 7.660156-7.722656 7.660156zm0 0"/><path d="m256.058594 455.40625c-.023438 0-.046875 0-.070313 0h-.113281c-4.265625-.039062-7.695312-3.527344-7.65625-7.796875.039062-4.242187 3.488281-7.65625 7.722656-7.65625h.070313.113281c4.269531.039063 7.695312 3.53125 7.65625 7.796875-.035156 4.242188-3.488281 7.65625-7.722656 7.65625zm0 0"/><path d="m447.683594 263.78125c-.023438 0-.046875 0-.070313 0-4.265625-.035156-7.695312-3.527344-7.65625-7.792969v-.113281c.039063-4.242188 3.488281-7.65625 7.726563-7.65625h.070312c4.265625.035156 7.691406 3.527344 7.65625 7.792969l-.003906.113281c-.035156 4.242188-3.488281 7.65625-7.722656 7.65625zm0 0"/><path d="m64.320312 263.78125c-.023437 0-.046874 0-.070312 0-4.265625-.035156-7.695312-3.527344-7.65625-7.792969v-.113281c.039062-4.242188 3.492188-7.65625 7.726562-7.65625h.070313c4.265625.035156 7.695313 3.527344 7.65625 7.792969v.113281c-.039063 4.242188-3.492187 7.65625-7.726563 7.65625zm0 0"/></g></svg>