<svg height="512pt" viewBox="0 0 512.00008 512" width="512pt" xmlns="http://www.w3.org/2000/svg"><path d="m512 255.996094c0 25.207031-3.644531 49.546875-10.425781 72.554687-15.898438 53.894531-49.0625 100.398438-93.09375 133.09375-42.59375 31.640625-95.34375 50.351563-152.476563 50.351563-141.382812 0-255.99999975-114.617188-255.99999975-256 0-70.746094 28.70312475-134.785156 75.09765575-181.125 46.316407-46.257813 110.265626-74.871094 180.902344-74.871094 53.019532 0 102.269532 16.121094 143.128906 43.726562 68.097657 46 112.867188 123.914063 112.867188 212.269532zm0 0" fill="#5f9eeb"/><path d="m512 255.996094c0 25.210937-3.648438 49.542968-10.425781 72.558594-15.894531 53.886718-49.066407 100.398437-93.09375 133.085937-42.589844 31.648437-95.34375 50.355469-152.476563 50.355469-5.769531 0-11.496094-.195313-17.171875-.566406 50.519531-3.347657 97.019531-21.335938 135.300781-49.789063 44.03125-32.6875 77.191407-79.199219 93.097657-133.089844 6.777343-23.011719 10.425781-47.34375 10.425781-72.554687 0-88.355469-44.773438-166.269532-112.867188-212.265625-36.417968-24.609375-79.507812-40.09375-125.992187-43.164063 5.6875-.371094 11.425781-.566406 17.207031-.566406 53.019532 0 102.273438 16.121094 143.128906 43.730469 68.09375 45.996093 112.867188 123.910156 112.867188 212.265625zm0 0" fill="#3a82d0"/><path d="m512 255.996094c0 25.210937-3.648438 49.542968-10.425781 72.558594l-45.558594-45.558594c-1.503906-1.507813-3.4375-2.507813-5.535156-2.871094l-52.261719-8.992188c-2.097656-.363281-4.03125-1.363281-5.539062-2.871093l-7.339844-7.339844c-1.933594-1.933594-3.015625-4.550781-3.015625-7.285156v-70.59375c0-2.730469 1.082031-5.351563 3.015625-7.28125l10.777344-10.777344c1.933593-1.933594 3.019531-4.554687 3.019531-7.285156v-113.96875c68.089843 45.996093 112.863281 123.910156 112.863281 212.265625zm0 0" fill="#a0d37d"/><path d="m512 255.996094c0 25.210937-3.648438 49.542968-10.425781 72.558594l-27.824219-27.824219c2.566406-14.527344 3.90625-29.464844 3.90625-44.730469 0-72.472656-30.113281-137.910156-78.519531-184.472656v-27.796875c68.089843 45.996093 112.863281 123.910156 112.863281 212.265625zm0 0" fill="#84b75b"/><path d="m408.476562 411.398438v50.242187c-42.574218 31.636719-95.308593 50.34375-152.421874 50.355469-5.769532 0-11.5-.195313-17.175782-.566406-131.417968-8.765626-236.640625-117.613282-238.8437498-251.125-1.1835942-72.453126 27.7343748-138.15625 75.0664058-185.429688l19.71875 54.660156c1.597657 4.4375 5.820313 7.40625 10.550782 7.40625h76.613281c2.96875 0 5.820313 1.183594 7.921875 3.285156l33.894531 33.894532c2.109375 2.101562 3.285157 4.953125 3.285157 7.929687v129.976563c0 2.976562 1.183593 5.832031 3.285156 7.933594l27.238281 27.238281c2.101563 2.101562 4.953125 3.273437 7.921875 3.273437h82.03125c2.976562 0 5.832031 1.1875 7.933594 3.289063l49.703125 49.703125c2.105469 2.105468 3.277343 4.957031 3.277343 7.933594zm0 0" fill="#a0d37d"/><path d="m408.476562 431.015625v30.625c-42.574218 31.636719-95.308593 50.34375-152.421874 50.355469-5.769532 0-11.5-.195313-17.175782-.566406 50.5-3.359376 96.980469-21.34375 135.253906-49.789063 12.351563-9.167969 23.847657-19.429687 34.34375-30.625zm0 0" fill="#84b75b"/><path d="m318.347656 226.605469c0 36.824219-54.613281 135.429687-74.371094 169.898437-3.113281 5.429688-10.9375 5.429688-14.050781 0-19.757812-34.46875-74.367187-133.074218-74.367187-169.898437 0-44.953125 36.441406-81.394531 81.394531-81.394531s81.394531 36.441406 81.394531 81.394531zm0 0" fill="#eb5777"/><path d="m274.679688 217.851562c0 20.835938-16.890626 37.726563-37.726563 37.726563s-37.726563-16.890625-37.726563-37.726563c0-20.835937 16.890626-37.726562 37.726563-37.726562s37.726563 16.890625 37.726563 37.726562zm0 0" fill="#ebeef2"/><g fill="#5f9eeb"><path d="m117.375 350.003906h-18.53125c-4.265625 0-7.722656-3.457031-7.722656-7.722656 0-4.269531 3.457031-7.726562 7.722656-7.726562h18.53125c4.265625 0 7.726562 3.457031 7.726562 7.726562 0 4.265625-3.460937 7.722656-7.726562 7.722656zm0 0"/><path d="m162.566406 378.632812h-63.722656c-4.265625 0-7.722656-3.457031-7.722656-7.726562 0-4.265625 3.457031-7.722656 7.722656-7.722656h63.722656c4.265625 0 7.722656 3.457031 7.722656 7.722656 0 4.269531-3.457031 7.726562-7.722656 7.726562zm0 0"/><path d="m162.566406 400.355469h-63.722656c-4.265625 0-7.722656-3.457031-7.722656-7.726563 0-4.265625 3.457031-7.726562 7.722656-7.726562h63.722656c4.265625 0 7.722656 3.460937 7.722656 7.726562 0 4.269532-3.457031 7.726563-7.722656 7.726563zm0 0"/></g></svg>