<svg height="512pt" viewBox="-89 0 512 512.001" width="512pt" xmlns="http://www.w3.org/2000/svg"><path d="m323.476562 158.132812h-13.390624v-81.386718h13.390624c5.691407 0 10.304688 4.613281 10.304688 10.304687v60.78125c0 5.6875-4.613281 10.300781-10.304688 10.300781zm0 0" fill="#93a3af"/><path d="m10.300781 251.878906h13.394531v-40.175781h-13.394531c-5.6875 0-10.300781 4.609375-10.300781 10.300781v19.574219c0 5.6875 4.613281 10.300781 10.300781 10.300781zm0 0" fill="#93a3af"/><path d="m10.300781 178.734375h13.394531v-101.988281h-13.394531c-5.6875 0-10.300781 4.613281-10.300781 10.304687v81.382813c0 5.691406 4.613281 10.300781 10.300781 10.300781zm0 0" fill="#93a3af"/><path d="m10.300781 315.75h13.394531v-40.175781h-13.394531c-5.6875 0-10.300781 4.609375-10.300781 10.300781v19.574219c0 5.6875 4.613281 10.300781 10.300781 10.300781zm0 0" fill="#93a3af"/><path d="m21.035156 491.394531v-470.789062c0-11.378907 9.226563-20.605469 20.605469-20.605469h250.5c11.378906 0 20.605469 9.226562 20.605469 20.605469v470.792969c0 11.378906-9.226563 20.601562-20.605469 20.601562h-250.5c-11.378906 0-20.605469-9.226562-20.605469-20.605469zm0 0" fill="#3a82d0"/><path d="m312.742188 20.605469v470.792969c0 11.382812-9.21875 20.601562-20.601563 20.601562h-20.171875c11.382812 0 20.605469-9.21875 20.605469-20.601562v-470.792969c0-11.386719-9.222657-20.605469-20.605469-20.605469h20.171875c11.382813 0 20.601563 9.21875 20.601563 20.605469zm0 0" fill="#0d73ce"/><path d="m21.039062 52.023438h291.703126v407.953124h-291.703126zm0 0" fill="#7fb7ea"/><path d="m292.574219 52.023438h20.171875v407.953124h-20.171875zm0 0" fill="#5f9eeb"/><path d="m21.039062 353.867188h291.703126v106.109374h-291.703126zm0 0" fill="#ebeef2"/><path d="m292.574219 353.867188h20.167969v106.109374h-20.167969zm0 0" fill="#d3d8df"/><path d="m21.039062 158.132812h291.703126v195.734376h-291.703126zm0 0" fill="#a0d37d"/><path d="m292.574219 158.132812h20.167969v195.734376h-20.167969zm0 0" fill="#84b75b"/><path d="m312.742188 211.53125v15.449219h-30.8125c-4.269532 0-7.730469-3.449219-7.730469-7.730469 0-4.261719 3.460937-7.71875 7.730469-7.71875zm0 0" fill="#ebeef2"/><path d="m312.742188 189.769531v15.449219h-16.742188c-1.230469 0-2.398438-.289062-3.429688-.808594-2.539062-1.261718-4.289062-3.890625-4.289062-6.910156 0-3.03125 1.75-5.660156 4.289062-6.921875 1.03125-.519531 2.199219-.808594 3.429688-.808594zm0 0" fill="#ebeef2"/><path d="m312.742188 189.769531v15.449219h-16.742188c-1.230469 0-2.398438-.289062-3.429688-.808594v-13.832031c1.03125-.519531 2.199219-.808594 3.429688-.808594zm0 0" fill="#d3d8df"/><path d="m292.570312 211.53125h20.171876v15.449219h-20.171876zm0 0" fill="#d3d8df"/><path d="m312.742188 274.953125v78.914063h-218.984376l129.925782-129.925782c3.511718-3.511718 9.023437-4.019531 13.113281-1.207031l55.773437 38.355469zm0 0" fill="#d88852"/><path d="m312.742188 274.953125v78.914063h-20.167969v-92.777344zm0 0" fill="#ba6f3c"/><path d="m188.988281 353.867188h-167.949219v-46.875l64.6875-44.476563c4.09375-2.816406 9.609376-2.308594 13.121094 1.203125zm0 0" fill="#e39f6e"/><path d="m187.0625 35.367188h-40.34375c-4.269531 0-7.726562-3.457032-7.726562-7.722657 0-4.269531 3.457031-7.726562 7.726562-7.726562h40.34375c4.269531 0 7.726562 3.457031 7.726562 7.726562 0 4.265625-3.457031 7.722657-7.726562 7.722657zm0 0" fill="#0d73ce"/><g fill="#ebeef2"><path d="m187.363281 106.445312h-40.945312c-4.269531 0-7.726563-3.457031-7.726563-7.722656 0-4.269531 3.457032-7.726562 7.726563-7.726562h40.945312c4.269531 0 7.726563 3.457031 7.726563 7.726562 0 4.265625-3.457032 7.722656-7.726563 7.722656zm0 0"/><path d="m171.910156 127.402344h-10.039062c-4.269532 0-7.726563-3.457032-7.726563-7.722656 0-4.269532 3.457031-7.726563 7.726563-7.726563h10.039062c4.269532 0 7.726563 3.457031 7.726563 7.726563 0 4.265624-3.457031 7.722656-7.726563 7.722656zm0 0"/><path d="m138.175781 199.042969h-82.203125c-4.265625 0-7.722656-3.460938-7.722656-7.726563 0-4.269531 3.457031-7.726562 7.722656-7.726562h82.203125c4.269531 0 7.726563 3.460937 7.726563 7.726562s-3.460938 7.726563-7.726563 7.726563zm0 0"/><path d="m110.917969 220.800781h-13.84375c-4.269531 0-7.726563-3.457031-7.726563-7.726562 0-4.265625 3.460938-7.722657 7.726563-7.722657h13.84375c4.265625 0 7.726562 3.457032 7.726562 7.722657 0 4.269531-3.460937 7.726562-7.726562 7.726562zm0 0"/><path d="m232.480469 268.429688h-87.222657c-4.269531 0-7.726562-3.460938-7.726562-7.726563 0-4.269531 3.460938-7.726563 7.726562-7.726563h87.222657c4.265625 0 7.726562 3.457032 7.726562 7.726563 0 4.265625-3.460937 7.726563-7.726562 7.726563zm0 0"/><path d="m177.535156 244.839844h-9.746094c-4.265624 0-7.722656-3.457032-7.722656-7.726563 0-4.265625 3.457032-7.726562 7.722656-7.726562h9.746094c4.265625 0 7.726563 3.460937 7.726563 7.726562 0 4.269531-3.460938 7.726563-7.726563 7.726563zm0 0"/></g><path d="m55.972656 392.957031h-6.523437c-4.269531 0-7.726563-3.460937-7.726563-7.726562s3.460938-7.726563 7.726563-7.726563h6.523437c4.269532 0 7.726563 3.460938 7.726563 7.726563s-3.457031 7.726562-7.726563 7.726562zm0 0" fill="#7b8c98"/><path d="m87.910156 392.957031h-6.523437c-4.269531 0-7.726563-3.460937-7.726563-7.726562s3.457032-7.726563 7.726563-7.726563h6.523437c4.265625 0 7.726563 3.460938 7.726563 7.726563s-3.460938 7.726562-7.726563 7.726562zm0 0" fill="#7b8c98"/><path d="m119.84375 392.957031h-6.523438c-4.265624 0-7.726562-3.460937-7.726562-7.726562s3.460938-7.726563 7.726562-7.726563h6.523438c4.269531 0 7.726562 3.460938 7.726562 7.726563s-3.457031 7.726562-7.726562 7.726562zm0 0" fill="#7b8c98"/><path d="m169.980469 424.949219h-60.78125c-4.265625 0-7.726563-3.457031-7.726563-7.726563 0-4.265625 3.460938-7.726562 7.726563-7.726562h60.78125c4.269531 0 7.726562 3.460937 7.726562 7.726562 0 4.269532-3.457031 7.726563-7.726562 7.726563zm0 0" fill="#7b8c98"/><path d="m87.910156 424.949219h-38.460937c-4.269531 0-7.726563-3.457031-7.726563-7.726563 0-4.265625 3.460938-7.726562 7.726563-7.726562h38.460937c4.265625 0 7.726563 3.460937 7.726563 7.726562 0 4.269532-3.460938 7.726563-7.726563 7.726563zm0 0" fill="#7b8c98"/></svg>