<svg height="512pt" viewBox="-89 0 512 512.001" width="512pt" xmlns="http://www.w3.org/2000/svg"><path d="m323.476562 158.132812h-13.390624v-81.386718h13.390624c5.691407 0 10.304688 4.613281 10.304688 10.304687v60.78125c0 5.6875-4.613281 10.300781-10.304688 10.300781zm0 0" fill="#93a3af"/><path d="m10.300781 251.878906h13.394531v-40.175781h-13.394531c-5.6875 0-10.300781 4.609375-10.300781 10.300781v19.574219c0 5.6875 4.613281 10.300781 10.300781 10.300781zm0 0" fill="#93a3af"/><path d="m10.300781 178.734375h13.394531v-101.988281h-13.394531c-5.6875 0-10.300781 4.613281-10.300781 10.304687v81.382813c0 5.691406 4.613281 10.300781 10.300781 10.300781zm0 0" fill="#93a3af"/><path d="m10.300781 315.75h13.394531v-40.175781h-13.394531c-5.6875 0-10.300781 4.609375-10.300781 10.300781v19.574219c0 5.6875 4.613281 10.300781 10.300781 10.300781zm0 0" fill="#93a3af"/><path d="m21.035156 491.394531v-470.789062c0-11.378907 9.226563-20.605469 20.605469-20.605469h250.5c11.378906 0 20.605469 9.226562 20.605469 20.605469v470.792969c0 11.378906-9.226563 20.601562-20.605469 20.601562h-250.5c-11.378906 0-20.605469-9.226562-20.605469-20.605469zm0 0" fill="#d3d8df"/><path d="m312.742188 20.605469v470.792969c0 11.382812-9.21875 20.601562-20.601563 20.601562h-20.171875c11.382812 0 20.605469-9.21875 20.605469-20.601562v-470.792969c0-11.386719-9.222657-20.605469-20.605469-20.605469h20.171875c11.382813 0 20.601563 9.21875 20.601563 20.605469zm0 0" fill="#c2c6cc"/><path d="m21.035156 52.023438h291.710938v407.953124h-291.710938zm0 0" fill="#7fb7ea"/><path d="m264.242188 226.351562v11.679688c0 5.347656-4.328126 9.675781-9.671876 9.675781h-6.183593c5.347656 0 9.675781 4.335938 9.675781 9.683594v11.679687c0 5.335938-4.328125 9.675782-9.675781 9.675782h-6.179688c5.347657 0 9.671875 4.328125 9.671875 9.671875v11.683593c0 5.347657-4.324218 9.671876-9.671875 9.671876h-10.300781c5.347656 0 9.671875 4.335937 9.671875 9.675781v11.679687c0 5.347656-4.328125 9.675782-9.671875 9.675782h-130.089844v-124.125h26.101563l46.96875-54.394532c2.738281-3.183594 7.136719-4.378906 11.113281-3.03125 14.507812 4.933594 21.070312 21.75 13.753906 35.203125l-3.675781 6.765625-8.40625 15.453125h66.898437c5.34375.003907 9.671876 4.339844 9.671876 9.675781zm0 0" fill="#ffd6c0"/><path d="m21.035156 222.433594h48.503906v116.742187h-48.503906zm0 0" fill="#0d73ce"/><path d="m89.605469 353.289062h-9.765625c-5.6875 0-10.300782-4.613281-10.300782-10.300781v-120.304687c0-5.691406 4.613282-10.304688 10.300782-10.304688h21.289062c5.691406 0 10.304688 4.613282 10.304688 10.304688v108.777344c0 12.054687-9.773438 21.828124-21.828125 21.828124zm0 0" fill="#ebeef2"/><path d="m90.542969 319.355469c-.023438 0-.046875 0-.070313 0l-.113281-.003907c-4.265625-.035156-7.695313-3.527343-7.65625-7.792968.039063-4.242188 3.488281-7.65625 7.722656-7.65625h.070313.113281c4.269531.039062 7.695313 3.527344 7.65625 7.796875-.035156 4.242187-3.488281 7.65625-7.722656 7.65625zm0 0" fill="#0d73ce"/><path d="m264.242188 232.253906v5.777344c0 5.347656-4.328126 9.675781-9.671876 9.675781h-23.292968c-4.265625 0-7.726563-3.453125-7.726563-7.726562 0-4.265625 3.460938-7.726563 7.726563-7.726563zm0 0" fill="#f8c298"/><path d="m258.0625 263.292969v5.78125c0 5.335937-4.328125 9.671875-9.675781 9.671875h-22.261719c-4.261719 0-7.722656-3.460938-7.722656-7.726563 0-4.261719 3.460937-7.722656 7.722656-7.722656h31.9375zm0 0" fill="#f8c298"/><path d="m251.878906 294.324219v5.777343c0 5.347657-4.324218 9.671876-9.671875 9.671876h-27.925781c-4.265625 0-7.726562-3.460938-7.726562-7.722657 0-4.265625 3.460937-7.726562 7.726562-7.726562zm0 0" fill="#f8c298"/><path d="m196.074219 201.226562-8.40625 15.453126h-12.195313c-4.265625 0-7.726562-3.464844-7.726562-7.726563 0-4.265625 3.460937-7.726563 7.726562-7.726563zm0 0" fill="#f8c298"/><path d="m292.574219 52.023438h20.171875v407.953124h-20.171875zm0 0" fill="#5f9eeb"/><path d="m187.0625 35.371094h-40.34375c-4.269531 0-7.726562-3.460938-7.726562-7.726563s3.457031-7.726562 7.726562-7.726562h40.34375c4.269531 0 7.726562 3.460937 7.726562 7.726562s-3.457031 7.726563-7.726562 7.726563zm0 0" fill="#93a3af"/><g fill="#ebeef2"><path d="m187.363281 396.265625h-40.945312c-4.269531 0-7.726563-3.460937-7.726563-7.726563 0-4.265624 3.457032-7.726562 7.726563-7.726562h40.945312c4.269531 0 7.726563 3.460938 7.726563 7.726562 0 4.265626-3.457032 7.726563-7.726563 7.726563zm0 0"/><path d="m171.910156 417.222656h-10.039062c-4.269532 0-7.726563-3.457031-7.726563-7.726562 0-4.265625 3.457031-7.726563 7.726563-7.726563h10.039062c4.269532 0 7.726563 3.460938 7.726563 7.726563 0 4.269531-3.457031 7.726562-7.726563 7.726562zm0 0"/><path d="m160.828125 109.988281c-.023437 0-.050781 0-.078125-.003906-4.265625-.039063-7.691406-3.535156-7.648438-7.800781l.03125-3.160156c.042969-4.265626 3.539063-7.691407 7.800782-7.648438 4.269531.039062 7.691406 3.535156 7.652344 7.800781l-.03125 3.160157c-.042969 4.242187-3.496094 7.652343-7.726563 7.652343zm0 0"/><path d="m160.5625 140.347656c-.027344 0-.050781 0-.078125 0-4.265625-.042968-7.691406-3.535156-7.648437-7.804687l.03125-3.160157c.039062-4.238281 3.492187-7.648437 7.722656-7.648437h.078125c4.265625.042969 7.691406 3.535156 7.648437 7.800781l-.03125 3.160156c-.039062 4.242188-3.492187 7.652344-7.722656 7.652344zm0 0"/><path d="m177.46875 123.734375c-.023438 0-.050781 0-.074219 0l-3.160156-.03125c-4.269531-.042969-7.695313-3.535156-7.652344-7.800781.039063-4.269532 3.519531-7.707032 7.800781-7.652344l3.160157.03125c4.269531.042969 7.695312 3.535156 7.652343 7.800781-.039062 4.242188-3.492187 7.652344-7.726562 7.652344zm0 0"/><path d="m147.113281 123.46875c-.027343 0-.050781 0-.078125 0l-3.160156-.03125c-4.265625-.042969-7.691406-3.535156-7.652344-7.800781.042969-4.269531 3.585938-7.683594 7.804688-7.652344l3.160156.03125c4.265625.039063 7.691406 3.535156 7.648438 7.800781-.039063 4.242188-3.492188 7.652344-7.722657 7.652344zm0 0"/><path d="m244.386719 152.953125c-.027344 0-.050781 0-.074219-.003906-4.269531-.039063-7.695312-3.53125-7.652344-7.796875l.027344-3.164063c.042969-4.238281 3.492188-7.648437 7.726562-7.648437h.074219c4.265625.039062 7.691407 3.53125 7.652344 7.800781l-.03125 3.160156c-.039063 4.238281-3.492187 7.652344-7.722656 7.652344zm0 0"/><path d="m244.117188 183.308594c-.023438 0-.050782 0-.078126 0-4.265624-.042969-7.691406-3.535156-7.648437-7.800782l.03125-3.160156c.042969-4.242187 3.492187-7.652344 7.722656-7.652344h.078125c4.269532.042969 7.691406 3.535157 7.652344 7.804688l-.03125 3.160156c-.042969 4.242188-3.492188 7.648438-7.726562 7.648438zm0 0"/><path d="m261.027344 166.699219c-.023438 0-.050782 0-.074219 0l-3.164063-.03125c-4.265624-.042969-7.691406-3.535157-7.648437-7.800781.039063-4.242188 3.492187-7.652344 7.722656-7.652344h.078125l3.160156.03125c4.265626.042968 7.691407 3.535156 7.652344 7.800781-.042968 4.242187-3.496094 7.652344-7.726562 7.652344zm0 0"/><path d="m230.667969 166.433594c-.023438 0-.050781 0-.074219-.003906l-3.164062-.03125c-4.265626-.039063-7.691407-3.53125-7.648438-7.800782.042969-4.265625 3.539062-7.742187 7.800781-7.648437l3.160157.03125c4.269531.039062 7.691406 3.53125 7.652343 7.800781-.042969 4.242188-3.492187 7.652344-7.726562 7.652344zm0 0"/></g></svg>