<svg height="512pt" viewBox="-89 0 512 512.001" width="512pt" xmlns="http://www.w3.org/2000/svg"><g fill="#93a3af"><path d="m323.476562 158.132812h-13.390624v-81.386718h13.390624c5.691407 0 10.304688 4.613281 10.304688 10.304687v60.78125c0 5.6875-4.613281 10.300781-10.304688 10.300781zm0 0"/><path d="m10.300781 251.878906h13.394531v-40.175781h-13.394531c-5.6875 0-10.300781 4.609375-10.300781 10.300781v19.574219c0 5.6875 4.613281 10.300781 10.300781 10.300781zm0 0"/><path d="m10.300781 178.734375h13.394531v-101.988281h-13.394531c-5.6875 0-10.300781 4.613281-10.300781 10.304687v81.382813c0 5.691406 4.613281 10.300781 10.300781 10.300781zm0 0"/><path d="m10.300781 315.75h13.394531v-40.175781h-13.394531c-5.6875 0-10.300781 4.609375-10.300781 10.300781v19.574219c0 5.6875 4.613281 10.300781 10.300781 10.300781zm0 0"/></g><path d="m21.035156 491.394531v-470.789062c0-11.378907 9.226563-20.605469 20.605469-20.605469h250.5c11.378906 0 20.605469 9.226562 20.605469 20.605469v470.792969c0 11.378906-9.226563 20.601562-20.605469 20.601562h-250.5c-11.378906 0-20.605469-9.226562-20.605469-20.605469zm0 0" fill="#7b8c98"/><path d="m312.742188 20.605469v470.792969c0 11.382812-9.21875 20.601562-20.601563 20.601562h-20.171875c11.382812 0 20.605469-9.21875 20.605469-20.601562v-470.792969c0-11.386719-9.222657-20.605469-20.605469-20.605469h20.171875c11.382813 0 20.601563 9.21875 20.601563 20.605469zm0 0" fill="#627687"/><path d="m21.035156 52.023438h291.710938v407.953124h-291.710938zm0 0" fill="#a0d37d"/><path d="m292.574219 52.023438h20.171875v407.953124h-20.171875zm0 0" fill="#84b75b"/><path d="m21.035156 223.921875h291.710938v236.054687h-291.710938zm0 0" fill="#faaa3c"/><path d="m292.574219 223.921875h20.171875v236.054687h-20.171875zm0 0" fill="#e79732"/><path d="m21.035156 376.042969h291.710938v83.933593h-291.710938zm0 0" fill="#eb5777"/><path d="m292.574219 376.042969h20.171875v83.933593h-20.171875zm0 0" fill="#ce3f63"/><path d="m187.0625 35.371094h-40.34375c-4.269531 0-7.726562-3.460938-7.726562-7.726563s3.457031-7.726562 7.726562-7.726562h40.34375c4.269531 0 7.726562 3.460937 7.726562 7.726562s-3.457031 7.726563-7.726562 7.726563zm0 0" fill="#627687"/><path d="m233.484375 256h-31.488281c-3.414063 0-6.179688-2.765625-6.179688-6.179688v-153.78125c0-6.480468-8.703125-8.589843-11.675781-2.832031l-79.296875 153.777344c-2.121094 4.117187.867188 9.015625 5.496094 9.015625h31.484375c3.414062 0 6.183593 2.765625 6.183593 6.179688v153.78125c0 6.480468 8.703126 8.589843 11.671876 2.832031l79.296874-153.777344c2.121094-4.117187-.863281-9.015625-5.492187-9.015625zm0 0" fill="#ffeb9b"/><path d="m56.050781 92.019531c-.027343 0-.054687 0-.085937 0-4.265625-.042969-7.734375-3.539062-7.6875-7.808593.042968-4.238282 3.449218-7.644532 7.675781-7.644532h.085937.09375c4.265626.046875 7.6875 3.542969 7.644532 7.8125-.046875 4.234375-3.496094 7.640625-7.726563 7.640625zm0 0" fill="#ebeef2"/><path d="m86.082031 122.054688c-4.269531 0-7.773437-3.460938-7.773437-7.726563 0-4.269531 3.410156-7.726563 7.679687-7.726563h.09375c4.265625 0 7.726563 3.457032 7.726563 7.726563 0 4.265625-3.460938 7.726563-7.726563 7.726563zm0 0" fill="#ebeef2"/><path d="m58.574219 119.480469c-1.980469 0-3.957031-.753907-5.464844-2.265625-3.015625-3.015625-3.015625-7.90625 0-10.925782l24.890625-24.886718c3.015625-3.019532 7.910156-3.015625 10.925781 0 3.019531 3.015625 3.019531 7.910156 0 10.925781l-24.890625 24.890625c-1.507812 1.507812-3.484375 2.261719-5.460937 2.261719zm0 0" fill="#ebeef2"/></svg>