<svg height="512pt" viewBox="0 -68 512 512" width="512pt" xmlns="http://www.w3.org/2000/svg"><g fill="#93a3af"><path d="m158.132812 52.796875v13.390625h-81.386718v-13.390625c0-5.691406 4.613281-10.300781 10.304687-10.300781h60.78125c5.6875 0 10.300781 4.609375 10.300781 10.300781zm0 0"/><path d="m251.878906 365.972656v-13.394531h-40.175781v13.394531c0 5.6875 4.609375 10.300782 10.300781 10.300782h19.574219c5.6875 0 10.300781-4.613282 10.300781-10.300782zm0 0"/><path d="m178.734375 365.972656v-13.394531h-101.988281v13.394531c0 5.6875 4.613281 10.300782 10.304687 10.300782h81.382813c5.691406 0 10.300781-4.613282 10.300781-10.300782zm0 0"/><path d="m315.75 365.972656v-13.394531h-40.175781v13.394531c0 5.6875 4.609375 10.300782 10.300781 10.300782h19.574219c5.6875 0 10.300781-4.613282 10.300781-10.300782zm0 0"/></g><path d="m512 84.132812v250.5c0 11.382813-9.21875 20.605469-20.605469 20.605469h-470.789062c-11.386719-.003906-20.605469-9.222656-20.605469-20.605469v-250.5c0-11.382812 9.21875-20.601562 20.605469-20.601562h470.792969c11.382812 0 20.601562 9.21875 20.601562 20.601562zm0 0" fill="#7b8c98"/><path d="m512 84.132812v250.5c0 11.382813-9.21875 20.605469-20.605469 20.605469h-18.027343c11.386718 0 20.605468-9.222656 20.605468-20.605469v-250.5c0-11.382812-9.21875-20.601562-20.605468-20.601562h18.027343c11.386719 0 20.605469 9.21875 20.605469 20.601562zm0 0" fill="#627687"/><path d="m52.023438 63.527344h407.953124v291.703125h-407.953124zm0 0" fill="#ebeef2"/><path d="m459.976562 63.53125v15.648438l-190.089843 147.398437c-3.957031 3.070313-8.878907 4.757813-13.886719 4.757813s-9.929688-1.691407-13.886719-4.757813l-190.089843-147.398437v-15.648438zm0 0" fill="#d3d8df"/><path d="m442.464844 63.53125h17.511718v291.707031h-17.511718zm0 0" fill="#d3d8df"/><path d="m459.976562 345.023438v10.207031h-11.816406l-192.160156-166.484375-192.160156 166.484375h-11.816406v-10.207031l198.917968-172.339844c2.90625-2.511719 7.210938-2.511719 10.117188 0zm0 0" fill="#d3d8df"/><path d="m52.023438 63.53125 197.664062 153.277344c3.714844 2.882812 8.910156 2.882812 12.625 0l197.664062-153.277344zm0 0" fill="#eb5777"/><path d="m27.644531 237.28125c-4.269531 0-7.726562-3.457031-7.726562-7.722656v-40.347656c0-4.265626 3.457031-7.726563 7.726562-7.726563 4.265625 0 7.722657 3.460937 7.722657 7.726563v40.347656c.003906 4.265625-3.457032 7.722656-7.722657 7.722656zm0 0" fill="#627687"/><path d="m485.726562 66.1875c0 36.558594-29.632812 66.191406-66.191406 66.191406-36.554687 0-66.1875-29.632812-66.1875-66.191406 0-36.554688 29.632813-66.1875 66.1875-66.1875 36.558594 0 66.191406 29.632812 66.191406 66.1875zm0 0" fill="#a0d37d"/><path d="m432.847656 82.371094h-1.253906v-40.089844c0-2.703125-1.410156-5.207031-3.722656-6.605469-2.308594-1.402343-5.183594-1.492187-7.578125-.242187l-9.398438 4.902344c-3.785156 1.972656-5.25 6.640624-3.277343 10.425781 1.652343 3.167969 5.195312 4.714843 8.523437 3.96875v27.640625h-1.253906c-4.269531 0-7.726563 3.457031-7.726563 7.726562 0 4.265625 3.457032 7.722656 7.726563 7.722656h17.960937c4.265625 0 7.726563-3.457031 7.726563-7.722656 0-4.269531-3.460938-7.726562-7.726563-7.726562zm0 0" fill="#ebeef2"/></svg>