<svg height="512pt" viewBox="0 -89 512 512" width="512pt" xmlns="http://www.w3.org/2000/svg"><path d="m158.132812 10.300781v13.394531h-81.386718v-13.394531c0-5.6875 4.613281-10.300781 10.304687-10.300781h60.78125c5.6875 0 10.300781 4.613281 10.300781 10.300781zm0 0" fill="#93a3af"/><path d="m251.878906 323.476562v-13.390624h-40.175781v13.390624c0 5.691407 4.609375 10.304688 10.300781 10.304688h19.574219c5.6875-.003906 10.300781-4.613281 10.300781-10.304688zm0 0" fill="#93a3af"/><path d="m178.734375 323.476562v-13.390624h-101.988281v13.390624c0 5.691407 4.613281 10.304688 10.304687 10.304688h81.382813c5.691406-.003906 10.300781-4.613281 10.300781-10.304688zm0 0" fill="#93a3af"/><path d="m315.75 323.476562v-13.390624h-40.175781v13.390624c0 5.691407 4.609375 10.304688 10.300781 10.304688h19.574219c5.6875-.003906 10.300781-4.613281 10.300781-10.304688zm0 0" fill="#93a3af"/><path d="m512 41.640625v250.5c0 11.382813-9.21875 20.601563-20.605469 20.601563h-470.789062c-11.386719 0-20.605469-9.21875-20.605469-20.605469v-250.496094c0-11.382813 9.21875-20.605469 20.605469-20.605469h470.792969c11.382812 0 20.601562 9.222656 20.601562 20.605469zm0 0" fill="#7b8c98"/><path d="m512 41.640625v250.5c0 11.382813-9.21875 20.601563-20.605469 20.601563h-18.027343c11.386718 0 20.605468-9.21875 20.605468-20.601563v-250.5c0-11.382813-9.21875-20.605469-20.605468-20.605469h18.027343c11.386719 0 20.605469 9.222656 20.605469 20.605469zm0 0" fill="#627687"/><path d="m52.023438 21.035156h407.953124v291.707032h-407.953124zm0 0" fill="#74e2cd"/><path d="m442.464844 21.035156h17.511718v291.707032h-17.511718zm0 0" fill="#4fceb7"/><path d="m52.023438 162.125h407.953124v150.613281h-407.953124zm0 0" fill="#ebeef2"/><path d="m442.464844 162.125h17.511718v150.621094h-17.511718zm0 0" fill="#d3d8df"/><path d="m27.644531 194.789062c-4.269531 0-7.726562-3.460937-7.726562-7.726562v-40.34375c0-4.269531 3.457031-7.726562 7.726562-7.726562 4.265625 0 7.722657 3.457031 7.722657 7.726562v40.34375c.003906 4.265625-3.457032 7.726562-7.722657 7.726562zm0 0" fill="#627687"/><g fill="#7b8c98"><path d="m101.011719 210.136719c-.023438 0-.046875 0-.070313 0h-.113281c-4.265625-.039063-7.695313-3.53125-7.65625-7.796875.039063-4.242188 3.488281-7.65625 7.722656-7.65625h.070313.113281c4.269531.039062 7.695313 3.527344 7.65625 7.796875-.035156 4.242187-3.488281 7.65625-7.722656 7.65625zm0 0"/><path d="m135.46875 210.136719c-.027344 0-.046875 0-.070312 0h-.113282c-4.269531-.039063-7.695312-3.53125-7.65625-7.796875.035156-4.242188 3.488282-7.65625 7.722656-7.65625h.070313.113281c4.265625.039062 7.695313 3.527344 7.65625 7.796875-.039062 4.242187-3.488281 7.65625-7.722656 7.65625zm0 0"/><path d="m169.921875 210.136719c-.023437 0-.046875 0-.070313 0h-.113281c-4.265625-.039063-7.695312-3.53125-7.65625-7.796875.035157-4.242188 3.488281-7.65625 7.722657-7.65625h.070312.113281c4.265625.039062 7.695313 3.527344 7.65625 7.796875-.035156 4.242187-3.488281 7.65625-7.722656 7.65625zm0 0"/><path d="m204.375 210.136719c-.023438 0-.046875 0-.070312 0h-.113282c-4.265625-.039063-7.695312-3.53125-7.65625-7.796875.039063-4.242188 3.492188-7.65625 7.726563-7.65625h.066406.113281c4.269532.039062 7.695313 3.527344 7.660156 7.796875-.039062 4.242187-3.492187 7.65625-7.726562 7.65625zm0 0"/><path d="m238.828125 210.136719c-.023437 0-.046875 0-.066406 0h-.113281c-4.269532-.039063-7.695313-3.53125-7.660157-7.796875.039063-4.242188 3.492188-7.65625 7.726563-7.65625h.070312.113282c4.265624.039062 7.695312 3.527344 7.65625 7.796875-.039063 4.242187-3.488282 7.65625-7.726563 7.65625zm0 0"/><path d="m273.285156 210.136719c-.023437 0-.046875 0-.070312 0h-.113282c-4.265624-.039063-7.695312-3.53125-7.65625-7.796875.039063-4.242188 3.488282-7.65625 7.726563-7.65625h.066406.113281c4.269532.039062 7.695313 3.527344 7.660157 7.796875-.039063 4.242187-3.492188 7.65625-7.726563 7.65625zm0 0"/><path d="m307.738281 210.136719c-.023437 0-.046875 0-.070312 0h-.113281c-4.265626-.039063-7.695313-3.53125-7.65625-7.796875.039062-4.242188 3.492187-7.65625 7.726562-7.65625h.070312.113282c4.265625.039062 7.695312 3.527344 7.65625 7.796875-.039063 4.242187-3.488282 7.65625-7.726563 7.65625zm0 0"/><path d="m342.195312 210.136719c-.023437 0-.046874 0-.070312 0h-.113281c-4.269531-.039063-7.695313-3.53125-7.65625-7.796875.035156-4.242188 3.488281-7.65625 7.722656-7.65625h.070313.113281c4.265625.039062 7.695312 3.527344 7.65625 7.796875-.035157 4.242187-3.488281 7.65625-7.722657 7.65625zm0 0"/><path d="m376.648438 210.136719c-.023438 0-.046876 0-.070313 0h-.113281c-4.265625-.039063-7.695313-3.53125-7.65625-7.796875.039062-4.242188 3.492187-7.65625 7.726562-7.65625h.070313.113281c4.265625.039062 7.691406 3.527344 7.65625 7.796875-.039062 4.242187-3.492188 7.65625-7.726562 7.65625zm0 0"/><path d="m411.105469 210.136719c-.023438 0-.046875 0-.070313 0h-.113281c-4.269531-.039063-7.695313-3.53125-7.65625-7.796875.035156-4.242188 3.488281-7.65625 7.722656-7.65625h.070313.113281c4.265625.039062 7.695313 3.527344 7.65625 7.796875-.039063 4.242187-3.488281 7.65625-7.722656 7.65625zm0 0"/><path d="m101.011719 245.164062c-.023438 0-.046875 0-.070313 0l-.113281-.003906c-4.265625-.035156-7.695313-3.527344-7.65625-7.792968.039063-4.242188 3.488281-7.65625 7.722656-7.65625h.070313.113281c4.269531.039062 7.695313 3.527343 7.65625 7.796874-.035156 4.242188-3.488281 7.65625-7.722656 7.65625zm0 0"/><path d="m135.46875 245.164062c-.027344 0-.046875 0-.070312 0l-.113282-.003906c-4.269531-.035156-7.695312-3.527344-7.65625-7.792968.035156-4.242188 3.488282-7.65625 7.722656-7.65625h.070313.113281c4.265625.039062 7.695313 3.527343 7.65625 7.796874-.039062 4.242188-3.488281 7.65625-7.722656 7.65625zm0 0"/><path d="m169.921875 245.164062c-.023437 0-.046875 0-.070313 0l-.113281-.003906c-4.265625-.035156-7.695312-3.527344-7.65625-7.792968.035157-4.242188 3.488281-7.65625 7.722657-7.65625h.070312.113281c4.265625.039062 7.695313 3.527343 7.65625 7.796874-.035156 4.242188-3.488281 7.65625-7.722656 7.65625zm0 0"/><path d="m204.375 245.164062c-.023438 0-.046875 0-.070312 0l-.113282-.003906c-4.265625-.035156-7.695312-3.527344-7.65625-7.792968.039063-4.242188 3.492188-7.65625 7.726563-7.65625h.066406.113281c4.269532.039062 7.695313 3.527343 7.660156 7.796874-.039062 4.242188-3.492187 7.65625-7.726562 7.65625zm0 0"/><path d="m238.828125 245.164062c-.023437 0-.046875 0-.066406 0l-.113281-.003906c-4.269532-.035156-7.695313-3.527344-7.660157-7.792968.039063-4.242188 3.492188-7.65625 7.726563-7.65625h.070312.113282c4.265624.039062 7.695312 3.527343 7.65625 7.796874-.039063 4.242188-3.488282 7.65625-7.726563 7.65625zm0 0"/><path d="m273.285156 245.164062c-.023437 0-.046875 0-.070312 0l-.113282-.003906c-4.265624-.035156-7.695312-3.527344-7.65625-7.792968.039063-4.242188 3.488282-7.65625 7.726563-7.65625h.066406.113281c4.269532.039062 7.695313 3.527343 7.660157 7.796874-.039063 4.242188-3.492188 7.65625-7.726563 7.65625zm0 0"/><path d="m307.738281 245.164062c-.023437 0-.046875 0-.070312 0l-.113281-.003906c-4.265626-.035156-7.695313-3.527344-7.65625-7.792968.039062-4.242188 3.492187-7.65625 7.726562-7.65625h.070312.113282c4.265625.039062 7.695312 3.527343 7.65625 7.796874-.039063 4.242188-3.488282 7.65625-7.726563 7.65625zm0 0"/><path d="m342.195312 245.164062c-.023437 0-.046874 0-.070312 0l-.113281-.003906c-4.269531-.035156-7.695313-3.527344-7.65625-7.792968.035156-4.242188 3.488281-7.65625 7.722656-7.65625h.070313.113281c4.265625.039062 7.695312 3.527343 7.65625 7.796874-.035157 4.242188-3.488281 7.65625-7.722657 7.65625zm0 0"/><path d="m376.648438 245.164062c-.023438 0-.046876 0-.070313 0l-.113281-.003906c-4.265625-.035156-7.695313-3.527344-7.65625-7.792968.039062-4.242188 3.492187-7.65625 7.726562-7.65625h.070313.113281c4.265625.039062 7.691406 3.527343 7.65625 7.796874-.039062 4.242188-3.492188 7.65625-7.726562 7.65625zm0 0"/><path d="m411.105469 245.164062c-.023438 0-.046875 0-.070313 0l-.113281-.003906c-4.269531-.035156-7.695313-3.527344-7.65625-7.792968.035156-4.242188 3.488281-7.65625 7.722656-7.65625h.070313.113281c4.265625.039062 7.695313 3.527343 7.65625 7.796874-.039063 4.242188-3.488281 7.65625-7.722656 7.65625zm0 0"/><path d="m101.011719 280.191406c-.023438 0-.046875 0-.070313-.003906h-.113281c-4.265625-.039062-7.695313-3.527344-7.65625-7.792969.039063-4.246093 3.488281-7.660156 7.722656-7.660156.027344 0 .046875 0 .070313.003906h.113281c4.269531.039063 7.695313 3.527344 7.65625 7.792969-.035156 4.246094-3.488281 7.660156-7.722656 7.660156zm0 0"/><path d="m135.46875 280.191406c-.027344 0-.046875 0-.070312-.003906h-.113282c-4.269531-.039062-7.695312-3.527344-7.65625-7.792969.035156-4.246093 3.488282-7.660156 7.722656-7.660156.023438 0 .046876 0 .070313.003906h.113281c4.265625.039063 7.695313 3.527344 7.65625 7.792969-.039062 4.246094-3.488281 7.660156-7.722656 7.660156zm0 0"/><path d="m169.921875 280.191406c-.023437 0-.046875 0-.070313-.003906h-.113281c-4.265625-.039062-7.695312-3.527344-7.65625-7.792969.035157-4.269531 3.527344-7.726562 7.792969-7.660156l.113281.003906c4.269531.035157 7.695313 3.527344 7.65625 7.792969-.035156 4.246094-3.488281 7.660156-7.722656 7.660156zm0 0"/></g><path d="m307.738281 280.191406-103.476562-.003906c-4.269531 0-7.726563-3.457031-7.726563-7.722656 0-4.269532 3.460938-7.726563 7.726563-7.726563h103.476562c4.269531 0 7.726563 3.457031 7.726563 7.726563 0 4.265625-3.460938 7.726562-7.726563 7.726562zm0 0" fill="#74e2cd"/><path d="m342.195312 280.191406c-.023437 0-.046874 0-.070312-.003906h-.113281c-4.269531-.039062-7.695313-3.527344-7.65625-7.792969.035156-4.246093 3.488281-7.660156 7.722656-7.660156.023437 0 .046875 0 .070313.003906h.113281c4.265625.039063 7.695312 3.527344 7.65625 7.792969-.035157 4.246094-3.488281 7.660156-7.722657 7.660156zm0 0" fill="#7b8c98"/><path d="m376.648438 280.191406c-.023438 0-.046876 0-.070313-.003906h-.113281c-4.265625-.039062-7.695313-3.527344-7.65625-7.792969.039062-4.246093 3.492187-7.660156 7.726562-7.660156.023438 0 .042969 0 .070313.003906h.113281c4.265625.039063 7.691406 3.527344 7.65625 7.792969-.039062 4.246094-3.492188 7.660156-7.726562 7.660156zm0 0" fill="#7b8c98"/><path d="m411.105469 280.191406c-.023438 0-.046875 0-.070313-.003906h-.113281c-4.269531-.039062-7.695313-3.527344-7.65625-7.792969.035156-4.246093 3.488281-7.660156 7.722656-7.660156.023438 0 .046875 0 .070313.003906h.113281c4.265625.039063 7.695313 3.527344 7.65625 7.792969-.039063 4.246094-3.488281 7.660156-7.722656 7.660156zm0 0" fill="#7b8c98"/><path d="m111.773438 97.609375h-15.453126c-4.265624 0-7.722656-3.457031-7.722656-7.726563 0-4.265624 3.457032-7.726562 7.722656-7.726562h15.453126c4.269531 0 7.726562 3.460938 7.726562 7.726562 0 4.269532-3.457031 7.726563-7.726562 7.726563zm0 0" fill="#627687"/><path d="m251.878906 120.402344h-155.558594c-4.265624 0-7.722656-3.457032-7.722656-7.726563 0-4.265625 3.457032-7.726562 7.722656-7.726562h155.558594c4.265625 0 7.726563 3.460937 7.726563 7.726562 0 4.269531-3.460938 7.726563-7.726563 7.726563zm0 0" fill="#627687"/><path d="m413.28125 84.503906c-4.269531 0-7.726562 3.460938-7.726562 7.726563v12.371093h-9.980469c2.945312-3.023437 2.921875-7.855468-.066407-10.847656-3.019531-3.019531-7.910156-3.019531-10.929687 0l-13.113281 13.113282c-1.449219 1.449218-2.261719 3.414062-2.261719 5.460937 0 2.050781.8125 4.015625 2.261719 5.464844l13.113281 13.109375c1.507813 1.511718 3.488281 2.265625 5.464844 2.265625 1.976562 0 3.953125-.757813 5.464843-2.265625 2.988282-2.992188 3.011719-7.824219.066407-10.847656h17.707031c4.269531 0 7.726562-3.457032 7.726562-7.726563v-20.097656c0-4.265625-3.460937-7.726563-7.726562-7.726563zm0 0" fill="#ebeef2"/></svg>