<svg height="512pt" viewBox="-89 0 512 512.001" width="512pt" xmlns="http://www.w3.org/2000/svg"><g fill="#93a3af"><path d="m323.476562 158.132812h-13.390624v-81.386718h13.390624c5.691407 0 10.304688 4.613281 10.304688 10.304687v60.78125c0 5.6875-4.613281 10.300781-10.304688 10.300781zm0 0"/><path d="m10.300781 251.878906h13.394531v-40.175781h-13.394531c-5.6875 0-10.300781 4.609375-10.300781 10.300781v19.574219c0 5.6875 4.613281 10.300781 10.300781 10.300781zm0 0"/><path d="m10.300781 178.734375h13.394531v-101.988281h-13.394531c-5.6875 0-10.300781 4.613281-10.300781 10.304687v81.382813c0 5.691406 4.613281 10.300781 10.300781 10.300781zm0 0"/><path d="m10.300781 315.75h13.394531v-40.175781h-13.394531c-5.6875 0-10.300781 4.609375-10.300781 10.300781v19.574219c0 5.6875 4.613281 10.300781 10.300781 10.300781zm0 0"/></g><path d="m21.035156 491.394531v-470.789062c0-11.378907 9.226563-20.605469 20.605469-20.605469h250.5c11.378906 0 20.605469 9.226562 20.605469 20.605469v470.792969c0 11.378906-9.226563 20.601562-20.605469 20.601562h-250.5c-11.378906 0-20.605469-9.226562-20.605469-20.605469zm0 0" fill="#7b8c98"/><path d="m312.742188 20.605469v470.792969c0 11.382812-9.21875 20.601562-20.601563 20.601562h-20.171875c11.382812 0 20.605469-9.21875 20.605469-20.601562v-470.792969c0-11.386719-9.222657-20.605469-20.605469-20.605469h20.171875c11.382813 0 20.601563 9.21875 20.601563 20.605469zm0 0" fill="#627687"/><path d="m21.035156 52.023438h291.710938v407.953124h-291.710938zm0 0" fill="#faaa3c"/><path d="m292.574219 52.023438h20.171875v407.953124h-20.171875zm0 0" fill="#e79732"/><path d="m187.0625 35.371094h-40.34375c-4.269531 0-7.726562-3.460938-7.726562-7.726563s3.457031-7.726562 7.726562-7.726562h40.34375c4.269531 0 7.726562 3.460937 7.726562 7.726562s-3.457031 7.726563-7.726562 7.726563zm0 0" fill="#627687"/><path d="m200.199219 384.945312c0 18.394532-14.914063 33.308594-33.308594 33.308594s-33.308594-14.914062-33.308594-33.308594c0-18.394531 14.914063-33.308593 33.308594-33.308593s33.308594 14.914062 33.308594 33.308593zm0 0" fill="#ebeef2"/><path d="m87.910156 395.933594h-17.855468c-4.269532 0-7.726563-3.460938-7.726563-7.726563s3.457031-7.726562 7.726563-7.726562h17.855468c4.265625 0 7.726563 3.460937 7.726563 7.726562s-3.460938 7.726563-7.726563 7.726563zm0 0" fill="#5f9eeb"/><path d="m263.726562 395.933594h-17.855468c-4.269532 0-7.726563-3.460938-7.726563-7.726563s3.460938-7.726562 7.726563-7.726562h17.855468c4.269532 0 7.726563 3.460937 7.726563 7.726562s-3.457031 7.726563-7.726563 7.726563zm0 0" fill="#eb5777"/><path d="m222.527344 149.890625h-111.273438c-11.089844 0-20.082031-8.992187-20.082031-20.082031v-7.824219c0-11.089844 8.992187-20.082031 20.082031-20.082031h111.273438c11.089844 0 20.082031 8.992187 20.082031 20.082031v7.824219c0 11.089844-8.992187 20.082031-20.082031 20.082031zm0 0" fill="#ebeef2"/><path d="m130.835938 134.953125c-4.269532 0-7.726563-3.457031-7.726563-7.726563v-3.605468c0-4.265625 3.457031-7.726563 7.726563-7.726563 4.265624 0 7.722656 3.460938 7.722656 7.726563v3.605468c0 4.265626-3.457032 7.726563-7.722656 7.726563zm0 0" fill="#93a3af"/><path d="m208.613281 133.152344h-54.085937c-4.265625 0-7.726563-3.460938-7.726563-7.726563 0-4.269531 3.460938-7.726562 7.726563-7.726562h54.085937c4.265625 0 7.726563 3.457031 7.726563 7.726562 0 4.265625-3.460938 7.726563-7.726563 7.726563zm0 0" fill="#93a3af"/><path d="m213.546875 309.875h-93.3125c-10.910156 0-19.789063-8.878906-19.789063-19.792969v-51.304687c0-10.914063 8.875-19.792969 19.789063-19.792969h11.929687l1.9375-9.335937c1.898438-9.136719 10.050782-15.765626 19.378907-15.765626h26.820312c9.332031 0 17.480469 6.628907 19.378907 15.765626l1.941406 9.335937h11.925781c10.914063 0 19.792969 8.878906 19.792969 19.792969v51.304687c-.003906 10.914063-8.882813 19.792969-19.792969 19.792969zm-93.3125-75.4375c-2.390625 0-4.335937 1.949219-4.335937 4.339844v51.308594c0 2.390624 1.945312 4.335937 4.335937 4.335937h93.3125c2.390625 0 4.335937-1.945313 4.335937-4.335937v-51.308594c0-2.390625-1.945312-4.339844-4.335937-4.339844h-18.214844c-3.660156 0-6.820312-2.570312-7.5625-6.152344l-3.21875-15.492187c-.417969-2.003907-2.203125-3.457031-4.25-3.457031h-26.820312c-2.046875 0-3.832031 1.453124-4.246094 3.457031l-3.222656 15.492187c-.742188 3.582032-3.902344 6.152344-7.5625 6.152344zm0 0" fill="#ba6f3c"/><path d="m213.546875 309.875h-93.3125c-10.910156 0-19.789063-8.878906-19.789063-19.792969v-51.304687c0-10.914063 8.875-19.792969 19.789063-19.792969h11.929687l1.9375-9.335937c1.898438-9.136719 10.050782-15.765626 19.378907-15.765626h26.820312c9.332031 0 17.480469 6.628907 19.378907 15.765626l1.941406 9.335937h11.925781c10.914063 0 19.792969 8.878906 19.792969 19.792969v51.304687c-.003906 10.914063-8.882813 19.792969-19.792969 19.792969zm-93.3125-75.4375c-2.390625 0-4.335937 1.949219-4.335937 4.339844v51.308594c0 2.390624 1.945312 4.335937 4.335937 4.335937h93.3125c2.390625 0 4.335937-1.945313 4.335937-4.335937v-51.308594c0-2.390625-1.945312-4.339844-4.335937-4.339844h-18.214844c-3.660156 0-6.820312-2.570312-7.5625-6.152344l-3.21875-15.492187c-.417969-2.003907-2.203125-3.457031-4.25-3.457031h-26.820312c-2.046875 0-3.832031 1.453124-4.246094 3.457031l-3.222656 15.492187c-.742188 3.582032-3.902344 6.152344-7.5625 6.152344zm0 0" fill="#ba6f3c"/><path d="m166.890625 282.3125c-12.355469 0-22.40625-10.050781-22.40625-22.40625s10.050781-22.40625 22.40625-22.40625 22.40625 10.050781 22.40625 22.40625-10.050781 22.40625-22.40625 22.40625zm0-29.359375c-3.835937 0-6.953125 3.117187-6.953125 6.953125s3.117188 6.953125 6.953125 6.953125c3.832031 0 6.953125-3.117187 6.953125-6.953125s-3.121094-6.953125-6.953125-6.953125zm0 0" fill="#ba6f3c"/></svg>