<svg height="512pt" viewBox="-59 0 512 512" width="512pt" xmlns="http://www.w3.org/2000/svg"><path d="m27.445312 70.046875h239.902344v123.042969h-239.902344zm0 0" fill="#ba6f3c"/><path d="m291.480469 383.207031v118.492188c0 5.6875-4.613281 10.300781-10.300781 10.300781h-270.878907c-5.6875 0-10.300781-4.613281-10.300781-10.300781v-118.492188c0-38.171875 30.945312-69.113281 69.113281-69.113281h153.261719c38.15625 0 69.105469 30.945312 69.105469 69.113281zm0 0" fill="#627687"/><path d="m291.472656 383.191406v118.503906c0 5.691407-4.609375 10.304688-10.300781 10.304688h-13.246094v-128.796875c0-38.164063-30.949219-69.109375-69.109375-69.109375h23.558594c38.164062 0 69.097656 30.933594 69.097656 69.097656zm0 0" fill="#455e6d"/><path d="m56.296875 512h-45.988281c-5.691406 0-10.30468775-4.613281-10.30468775-10.300781v-70.316407h56.29296875zm0 0" fill="#f8c298"/><path d="m281.171875 512h-45.988281v-80.617188h56.289062v70.316407c0 5.6875-4.609375 10.300781-10.300781 10.300781zm0 0" fill="#f8c298"/><g fill="#e39f6e"><path d="m281.171875 512h-13.246094v-80.617188h23.546875v70.316407c0 5.6875-4.609375 10.300781-10.300781 10.300781zm0 0"/><path d="m147.398438 353.007812c-13.011719 0-23.558594-10.546874-23.558594-23.558593v-66.078125h47.113281v66.078125c0 13.011719-10.546875 23.558593-23.554687 23.558593zm0 0"/><path d="m285.917969 183.777344c0 17.515625-14.199219 31.714844-31.714844 31.714844s-31.714844-14.199219-31.714844-31.714844 14.199219-31.714844 31.714844-31.714844 31.714844 14.199219 31.714844 31.714844zm0 0"/><path d="m72.304688 183.777344c0 17.515625-14.199219 31.714844-31.714844 31.714844s-31.714844-14.199219-31.714844-31.714844 14.199219-31.714844 31.714844-31.714844 31.714844 14.199219 31.714844 31.714844zm0 0"/></g><path d="m147.398438 290c-43.113282 0-79.476563-32.105469-84.820313-74.882812l-8.351563-66.855469c-3.941406-31.570313 20.675782-59.453125 52.492188-59.453125h81.355469c31.816406 0 56.4375 27.882812 52.492187 59.453125l-8.351562 66.855469c-5.34375 42.777343-41.707032 74.882812-84.816406 74.882812zm0 0" fill="#f8c298"/><path d="m99.3125 189.6875c-4.167969 0-7.601562-3.320312-7.71875-7.515625l-.136719-5.027344c-.117187-4.265625 3.246094-7.816406 7.511719-7.933593 4.253906-.113282 7.816406 3.246093 7.933594 7.511718l.140625 5.027344c.117187 4.265625-3.246094 7.816406-7.511719 7.933594-.074219.003906-.144531.003906-.21875.003906zm0 0" fill="#0d73ce"/><path d="m192.296875 189.6875c-4.167969 0-7.605469-3.320312-7.71875-7.515625l-.136719-5.027344c-.117187-4.265625 3.246094-7.816406 7.511719-7.933593 4.261719-.113282 7.816406 3.246093 7.933594 7.511718l.140625 5.027344c.117187 4.265625-3.246094 7.816406-7.511719 7.933594-.074219.003906-.144531.003906-.21875.003906zm0 0" fill="#0d73ce"/><path d="m145.742188 234.238281c-13.617188 0-26.519532-6.59375-34.519532-17.644531-2.503906-3.453125-1.730468-8.285156 1.722656-10.789062 3.457032-2.5 8.289063-1.730469 10.789063 1.726562 5.105469 7.046875 13.332031 11.253906 22.007813 11.253906 8.675781 0 16.902343-4.207031 22.003906-11.253906 2.503906-3.457031 7.335937-4.226562 10.789062-1.726562 3.457032 2.503906 4.230469 7.335937 1.726563 10.789062-8 11.050781-20.90625 17.644531-34.519531 17.644531zm0 0" fill="#e39f6e"/><path d="m64.027344 404.117188v107.882812h-15.453125v-107.882812c0-4.261719 3.460937-7.722657 7.726562-7.722657s7.726563 3.460938 7.726563 7.722657zm0 0" fill="#455e6d"/><path d="m242.90625 404.117188v107.882812h-15.453125v-107.882812c0-4.261719 3.460937-7.722657 7.726563-7.722657 4.277343 0 7.726562 3.460938 7.726562 7.722657zm0 0" fill="#455e6d"/><path d="m288.832031 11.476562v12.15625c0 47.800782-38.757812 86.554688-86.566406 86.554688h-175.058594c-6.34375 0-11.484375-5.140625-11.484375-11.476562v-12.15625c0-47.800782 38.753906-86.554688 86.5625-86.554688h175.0625c6.34375 0 11.484375 5.140625 11.484375 11.476562zm0 0" fill="#c2c6cc"/><path d="m196.972656 78.613281c-7.273437 12.824219-17.289062 23.558594-29.105468 31.574219h-41.660157c24.054688-3.472656 45.226563-17.851562 57.320313-39.199219 2.113281-3.707031 6.820312-5.015625 10.539062-2.914062 3.707032 2.113281 5.007813 6.820312 2.90625 10.539062zm0 0" fill="#93a3af"/><path d="m227.761719 78.613281c-7.273438 12.824219-17.285157 23.558594-29.101563 31.574219h-41.660156c24.054688-3.472656 45.226562-17.851562 57.320312-39.199219 2.109376-3.707031 6.820313-5.015625 10.539063-2.914062 3.707031 2.113281 5.003906 6.820312 2.902344 10.539062zm0 0" fill="#93a3af"/><path d="m194.441406 444.898438h-101.171875c-4.128906 0-7.097656-3.972657-5.925781-7.929688l7.082031-23.960938c.777344-2.628906 3.1875-4.429687 5.929688-4.429687h101.167969c4.128906 0 7.097656 3.972656 5.925781 7.933594l-7.082031 23.960937c-.777344 2.625-3.1875 4.425782-5.925782 4.425782zm0 0" fill="#f1dd47"/><path d="m393.605469 322.121094c0 45.257812-36.6875 81.945312-81.945313 81.945312-45.253906 0-81.941406-36.6875-81.941406-81.945312 0-45.253906 36.6875-81.941406 81.941406-81.941406 45.257813 0 81.945313 36.6875 81.945313 81.941406zm0 0" fill="#a0d37d"/><path d="m300.355469 359.691406c-3.417969 0-6.691407-1.355468-9.109375-3.769531l-20.652344-20.65625c-5.027344-5.027344-5.027344-13.179687 0-18.210937 5.027344-5.027344 13.183594-5.027344 18.210938 0l11.546874 11.550781 35.179688-35.179688c5.027344-5.027343 13.183594-5.027343 18.210938 0 5.027343 5.027344 5.027343 13.183594 0 18.210938l-44.285157 44.285156c-2.410156 2.414063-5.6875 3.769531-9.101562 3.769531zm0 0" fill="#ebeef2"/></svg>