<svg height="512pt" viewBox="-89 0 512 512.001" width="512pt" xmlns="http://www.w3.org/2000/svg"><path d="m323.476562 158.132812h-13.390624v-81.386718h13.390624c5.691407 0 10.304688 4.613281 10.304688 10.304687v60.78125c0 5.6875-4.613281 10.300781-10.304688 10.300781zm0 0" fill="#93a3af"/><path d="m10.300781 251.878906h13.394531v-40.175781h-13.394531c-5.6875 0-10.300781 4.609375-10.300781 10.300781v19.574219c0 5.6875 4.613281 10.300781 10.300781 10.300781zm0 0" fill="#93a3af"/><path d="m10.300781 178.734375h13.394531v-101.988281h-13.394531c-5.6875 0-10.300781 4.613281-10.300781 10.304687v81.382813c0 5.691406 4.613281 10.300781 10.300781 10.300781zm0 0" fill="#93a3af"/><path d="m10.300781 315.75h13.394531v-40.175781h-13.394531c-5.6875 0-10.300781 4.609375-10.300781 10.300781v19.574219c0 5.6875 4.613281 10.300781 10.300781 10.300781zm0 0" fill="#93a3af"/><path d="m21.035156 491.394531v-470.789062c0-11.378907 9.226563-20.605469 20.605469-20.605469h250.5c11.378906 0 20.605469 9.226562 20.605469 20.605469v470.792969c0 11.378906-9.226563 20.601562-20.605469 20.601562h-250.5c-11.378906 0-20.605469-9.226562-20.605469-20.605469zm0 0" fill="#7b8c98"/><path d="m312.742188 20.605469v470.792969c0 11.382812-9.21875 20.601562-20.601563 20.601562h-20.171875c11.382812 0 20.605469-9.21875 20.605469-20.601562v-470.792969c0-11.386719-9.222657-20.605469-20.605469-20.605469h20.171875c11.382813 0 20.601563 9.21875 20.601563 20.605469zm0 0" fill="#627687"/><path d="m21.035156 52.023438h291.710938v407.953124h-291.710938zm0 0" fill="#7fb7ea"/><path d="m292.574219 52.023438h20.171875v407.953124h-20.171875zm0 0" fill="#5f9eeb"/><path d="m187.0625 35.371094h-40.34375c-4.265625 0-7.726562-3.460938-7.726562-7.726563s3.460937-7.726562 7.726562-7.726562h40.34375c4.269531 0 7.726562 3.460937 7.726562 7.726562s-3.457031 7.726563-7.726562 7.726563zm0 0" fill="#627687"/><path d="m254.820312 315.75h-175.859374c-8.046876 0-14.574219-6.527344-14.574219-14.574219v-23.390625c0-8.046875 6.527343-14.574218 14.574219-14.574218h175.855468c8.050782 0 14.574219 6.527343 14.574219 14.574218v23.390625c.003906 8.050781-6.523437 14.574219-14.570313 14.574219zm0 0" fill="#d3d8df"/><path d="m254.820312 396.105469h-175.859374c-8.046876 0-14.574219-6.527344-14.574219-14.574219v-23.390625c0-8.046875 6.527343-14.574219 14.574219-14.574219h175.855468c8.050782 0 14.574219 6.527344 14.574219 14.574219v23.390625c.003906 8.046875-6.523437 14.574219-14.570313 14.574219zm0 0" fill="#d3d8df"/><g fill="#3a82d0"><path d="m99.929688 297.207031c-.023438 0-.046876 0-.070313 0h-.113281c-4.265625-.039062-7.695313-3.527343-7.65625-7.796875.039062-4.265625 3.511718-7.707031 7.796875-7.65625l.113281.003906c4.265625.035157 7.695312 3.527344 7.65625 7.792969-.039062 4.242188-3.492188 7.65625-7.726562 7.65625zm0 0"/><path d="m128.886719 297.207031c-.023438 0-.046875 0-.070313 0h-.113281c-4.265625-.039062-7.695313-3.527343-7.65625-7.796875.039063-4.265625 3.546875-7.707031 7.796875-7.65625l.113281.003906c4.265625.035157 7.695313 3.527344 7.65625 7.792969-.039062 4.242188-3.492187 7.65625-7.726562 7.65625zm0 0"/><path d="m157.847656 297.207031c-.023437 0-.046875 0-.070312 0h-.113282c-4.265624-.039062-7.695312-3.527343-7.65625-7.796875.035157-4.242187 3.488282-7.65625 7.722657-7.65625h.070312l.113281.003906c4.265626.035157 7.695313 3.527344 7.65625 7.792969-.039062 4.242188-3.488281 7.65625-7.722656 7.65625zm0 0"/><path d="m186.804688 297.207031c-.023438 0-.046876 0-.070313 0h-.113281c-4.269532-.039062-7.695313-3.527343-7.65625-7.796875.035156-4.265625 3.519531-7.707031 7.792968-7.65625l.113282.003906c4.265625.035157 7.695312 3.527344 7.65625 7.792969-.035156 4.242188-3.488282 7.65625-7.722656 7.65625zm0 0"/><path d="m215.761719 297.207031c-.023438 0-.046875 0-.070313 0h-.113281c-4.265625-.039062-7.695313-3.527343-7.65625-7.796875.039063-4.265625 3.554687-7.707031 7.792969-7.65625l.113281.003906c4.269531.035157 7.695313 3.527344 7.660156 7.792969-.039062 4.242188-3.492187 7.65625-7.726562 7.65625zm0 0"/><path d="m99.929688 377.5625c-.023438 0-.046876 0-.070313 0h-.113281c-4.265625-.039062-7.695313-3.53125-7.65625-7.796875.039062-4.242187 3.492187-7.65625 7.726562-7.65625h.066406.113282c4.269531.039063 7.695312 3.527344 7.660156 7.796875-.039062 4.242188-3.492188 7.65625-7.726562 7.65625zm0 0"/><path d="m128.886719 377.5625c-.023438 0-.046875 0-.070313 0h-.113281c-4.265625-.039062-7.695313-3.53125-7.65625-7.796875.039063-4.242187 3.492187-7.65625 7.726563-7.65625h.066406.113281c4.269531.039063 7.695313 3.527344 7.660156 7.796875-.039062 4.242188-3.492187 7.65625-7.726562 7.65625zm0 0"/><path d="m157.847656 377.5625c-.023437 0-.046875 0-.070312 0h-.113282c-4.265624-.039062-7.695312-3.53125-7.65625-7.796875.035157-4.242187 3.488282-7.65625 7.722657-7.65625h.070312.113281c4.265626.039063 7.695313 3.527344 7.65625 7.796875-.039062 4.242188-3.488281 7.65625-7.722656 7.65625zm0 0"/></g><path d="m211.703125 171.78125c0 5.429688-.96875 10.632812-2.738281 15.453125-6.296875 17.132813-22.757813 29.363281-42.074219 29.363281s-35.777344-12.230468-42.074219-29.363281c-1.769531-4.820313-2.738281-10.023437-2.738281-15.453125 0-24.753906 20.066406-44.8125 44.8125-44.8125s44.8125 20.058594 44.8125 44.8125zm0 0" fill="#74e2cd"/><path d="m208.964844 187.234375c-6.296875 17.132813-22.757813 29.359375-42.074219 29.359375s-35.777344-12.226562-42.074219-29.359375c6.296875-17.140625 22.757813-29.359375 42.074219-29.359375s35.777344 12.21875 42.074219 29.359375zm0 0" fill="#eb5777"/><path d="m191.613281 139.074219c0 13.65625-11.066406 24.722656-24.722656 24.722656s-24.722656-11.066406-24.722656-24.722656 11.066406-24.722657 24.722656-24.722657 24.722656 11.066407 24.722656 24.722657zm0 0" fill="#f8c298"/></svg>