<svg height="512pt" viewBox="-25 0 512 512.00025" width="512pt" xmlns="http://www.w3.org/2000/svg"><path d="m227.035156 368.140625-140.710937 140.710937c-4.199219 4.199219-11.007813 4.199219-15.207031 0l-67.964844-67.96875c-5.078125-5.078124-3.847656-13.613281 2.460937-17.046874l179.429688-97.6875zm0 0" fill="#3a82d0"/><path d="m227.035156 368.144531-140.710937 140.703125c-4.195313 4.203125-11.003907 4.203125-15.207031 0l-8.722657-8.714844 148.3125-148.316406zm0 0" fill="#0d73ce"/><path d="m453.804688 54.253906c6.519531 0 10.925781 6.554688 8.582031 12.636719-5.078125 13.171875-17.855469 22.515625-32.816407 22.515625-19.417968 0-35.15625-15.738281-35.15625-35.15625h59.390626zm0 0" fill="#ffcf64"/><path d="m358.867188 355.90625c-59.398438 59.402344-155.710938 59.402344-215.109376 0-15.082031-15.082031-26.320312-32.53125-33.75-51.167969l162.140626-162.128906 35.5625-35.5625c18.625 7.417969 36.085937 18.667969 51.15625 33.738281 8.65625 8.664063 16.050781 18.097656 22.191406 28.101563 35.953125 58.597656 28.558594 136.273437-22.191406 187.019531zm0 0" fill="#5f9eeb"/><path d="m381.058594 168.886719c-11.476563 4.863281-23.929688 7.410156-36.777344 7.410156-.742188 0-1.472656-.011719-2.214844-.023437-24.074218-.554688-46.832031-10.269532-64.085937-27.363282-2.050781-2.027344-4-4.128906-5.832031-6.304687l35.5625-35.558594c18.625 7.414063 36.085937 18.664063 51.15625 33.734375 8.65625 8.667969 16.050781 18.105469 22.191406 28.105469zm0 0" fill="#3a82d0"/><path d="m358.867188 355.90625c-33.480469 33.480469-78.683594 48.089844-122.394532 43.824219 33.851563-3.296875 66.796875-17.90625 92.714844-43.824219 59.402344-59.398438 59.402344-155.710938 0-215.121094-9.550781-9.539062-20.046875-17.554687-31.191406-24.023437l9.714844-9.714844c18.625 7.417969 36.085937 18.667969 51.15625 33.738281 59.414062 59.410156 59.414062 155.722656 0 215.121094zm0 0" fill="#3a82d0"/><path d="m274.171875 71.828125c70.539063 70.539063 70.539063 184.90625 0 255.445313-67.804687 67.804687-176.105469 70.433593-247.046875 7.886718-4.679688-4.125-4.96875-11.316406-.558594-15.726562zm0 0" fill="#a9d2f7"/><path d="m274.171875 71.828125c38.671875 38.675781 38.671875 101.378906 0 140.050781-38.675781 38.671875-101.378906 38.671875-140.050781 0zm0 0" fill="#f1dd47"/><path d="m274.167969 211.878906c-28 28-68.601563 35.726563-103.554688 23.167969 29.730469 4.171875 60.984375-5.183594 83.855469-28.042969 34.480469-34.488281 38.222656-88.070312 11.21875-126.691406l8.480469-8.476562c38.671875 38.671874 38.671875 101.367187 0 140.042968zm0 0" fill="#efc40f"/><path d="m347.285156.0742188c0-.0234376 0-.0507813 0-.0742188h-93.21875c-7.082031 0-12.207031 6.71875-10.390625 13.558594 3.121094 11.738281 10.199219 21.867187 19.714844 28.875 3.761719 2.769531 5.175781 7.75 3.613281 12.15625-3.324218 9.367187-4.992187 19.515625-4.648437 30.101562 1.40625 43.210938 36.777343 78.230469 79.996093 79.21875 46.148438 1.058594 83.894532-36.035156 83.894532-81.945312 0-44.257813-35.089844-80.304688-78.960938-81.8906252zm0 0" fill="#5f9eeb"/><g fill="#0d73ce"><path d="m84.027344 336.605469c-1.667969 0-3.335938-.539063-4.730469-1.617188l-6.679687-5.171875c-3.371094-2.613281-3.988282-7.464844-1.378907-10.839844 2.613281-3.375 7.464844-3.992187 10.839844-1.378906l1.984375 1.535156 2.4375-1.855468c3.394531-2.589844 8.242188-1.9375 10.828125 1.457031 2.589844 3.394531 1.9375 8.242187-1.457031 10.828125l-7.15625 5.460938c-1.386719 1.054687-3.039063 1.582031-4.6875 1.582031zm0 0"/><path d="m133.882812 336.605469c-1.671874 0-3.339843-.539063-4.730468-1.617188l-6.679688-5.171875c-3.375-2.613281-3.992187-7.464844-1.378906-10.839844s7.464844-3.992187 10.839844-1.378906l1.984375 1.535156 2.4375-1.855468c3.390625-2.589844 8.238281-1.9375 10.828125 1.457031 2.585937 3.394531 1.933594 8.242187-1.460938 10.828125l-7.15625 5.460938c-1.382812 1.054687-3.035156 1.582031-4.683594 1.582031zm0 0"/><path d="m133.882812 292.609375c-1.671874 0-3.339843-.539063-4.730468-1.617187l-6.679688-5.171876c-3.375-2.613281-3.992187-7.46875-1.378906-10.839843 2.613281-3.375 7.464844-3.992188 10.839844-1.378907l1.984375 1.535157 2.433593-1.859375c3.394532-2.585938 8.242188-1.933594 10.828126 1.460937 2.589843 3.390625 1.9375 8.238281-1.457032 10.828125l-7.15625 5.457032c-1.382812 1.058593-3.035156 1.585937-4.683594 1.585937zm0 0"/><path d="m183.738281 336.605469c-1.671875 0-3.339843-.539063-4.730469-1.617188l-6.679687-5.171875c-3.375-2.613281-3.992187-7.464844-1.378906-10.839844s7.464843-3.992187 10.839843-1.378906l1.984376 1.535156 2.4375-1.855468c3.390624-2.589844 8.238281-1.9375 10.828124 1.457031 2.585938 3.394531 1.933594 8.242187-1.457031 10.828125l-7.160156 5.460938c-1.382813 1.054687-3.035156 1.582031-4.683594 1.582031zm0 0"/><path d="m183.738281 289.878906c-1.671875 0-3.339843-.539062-4.730469-1.617187l-6.679687-5.171875c-3.375-2.613282-3.992187-7.46875-1.378906-10.839844s7.464843-3.992188 10.839843-1.378906l1.984376 1.535156 2.433593-1.855469c3.394531-2.589843 8.242188-1.9375 10.832031 1.457031 2.585938 3.390626 1.933594 8.238282-1.460937 10.828126l-7.15625 5.460937c-1.382813 1.054687-3.035156 1.582031-4.683594 1.582031zm0 0"/></g><path d="m396.742188 71.828125c0 15.871094-12.867188 28.738281-28.738282 28.738281s-28.734375-12.867187-28.734375-28.738281c0-15.867187 12.863281-28.734375 28.734375-28.734375s28.738282 12.867188 28.738282 28.734375zm0 0" fill="#93a3af"/><path d="m377.203125 79.558594c-.023437 0-.042969 0-.066406-.003906h-.117188c-4.269531-.035157-7.699219-3.523438-7.660156-7.792969.035156-4.265625 3.492187-7.726563 7.792969-7.660157l.117187.003907c4.265625.035156 7.695313 3.523437 7.660157 7.789062-.039063 4.246094-3.488282 7.664063-7.726563 7.664063zm0 0" fill="#455e6d"/></svg>