<svg height="512pt" viewBox="-94 0 512 512" width="512pt" xmlns="http://www.w3.org/2000/svg"><path d="m323.621094 411.660156v71.011719c0 11.257813-9.042969 20.394531-20.199219 20.394531h-293.316406c-5.582031 0-10.105469-4.574218-10.105469-10.199218v-81.207032zm0 0" fill="#3a82d0"/><path d="m323.621094 411.660156v37.703125c-5.570313 4.433594-12.628906 7.078125-20.292969 7.078125h-293.179687c-3.648438 0-7.097657-.875-10.148438-2.429687v-42.351563zm0 0" fill="#0d73ce"/><path d="m300.550781 411.660156v71.003906c0 11.269532-9.035156 20.398438-20.195312 20.398438h23.066406c11.15625 0 20.191406-9.128906 20.191406-20.398438v-71.003906zm0 0" fill="#0d73ce"/><path d="m287.019531 418.140625v48.632813c0 5.605468-4.542969 10.148437-10.148437 10.148437h-266.722656c-5.605469 0-10.148438-4.542969-10.148438-10.148437v-48.632813zm0 0" fill="#ebeef2"/><path d="m287.019531 418.140625v38.300781h-276.871093c-3.648438 0-7.097657-.875-10.148438-2.429687v-35.871094zm0 0" fill="#d3d8df"/><path d="m90.371094 512h-36.851563c-5.578125 0-10.097656-4.566406-10.097656-10.195312v-75.230469h57.046875v75.230469c0 5.628906-4.519531 10.195312-10.097656 10.195312zm0 0" fill="#eb5777"/><path d="m303.324219 444.078125h-293.171875c-5.605469 0-10.14843775-4.542969-10.14843775-10.144531v-423.785156c0-5.605469 4.54296875-10.148438 10.14843775-10.148438h293.171875c11.207031 0 20.292969 9.085938 20.292969 20.296875v403.488281c0 11.207032-9.085938 20.292969-20.292969 20.292969zm0 0" fill="#5f9eeb"/><path d="m323.613281 20.394531v403.289063c0 11.265625-9.035156 20.394531-20.191406 20.394531h-23.066406c11.160156 0 20.195312-9.128906 20.195312-20.394531v-403.289063c0-11.257812-9.035156-20.394531-20.195312-20.394531h23.066406c11.15625 0 20.191406 9.136719 20.191406 20.394531zm0 0" fill="#3a82d0"/><path d="m267.320312 181.949219c-.070312 6.203125-.6875 12.488281-1.863281 18.824219-.125.699218-.257812 1.390624-.402343 2.089843l-5.386719 26.289063h-204.335938l-5.398437-26.289063c-1.535156-7.5-2.277344-14.949219-2.277344-22.273437 0-59.089844 47.996094-109.570313 109.835938-109.570313 45.535156 0 83.582031 27.371094 100.453124 65.40625 3.007813 6.769531 5.347657 13.886719 6.933594 21.242188.125.566406.238282 1.132812.351563 1.710937 1.183593 5.902344 1.882812 11.96875 2.058593 18.140625.042969 1.464844.054688 2.949219.03125 4.429688zm0 0" fill="#627687"/><path d="m223.730469 198.019531c-7.652344 1.011719-15.488281 1.183594-23.496094.523438-38.578125-2.910157-67.019531-22.972657-67.261719-23.144531-.007812 0-.011718 0-.019531 0-16 11.675781-32.6875 15.226562-45.566406 15.8125-2.828125.140624-5.667969.140624-8.496094-.015626-3.777344-.1875-6.960937-.582031-9.347656-.976562-3.757813-.050781-7.085938 2.632812-7.722657 6.453125-.699218 4.203125 2.144532 8.191406 6.359376 8.878906 10.949218 1.8125 38.339843 3.9375 64.921874-13.164062 7.34375 4.449219 22.949219 12.824219 43.410157 17.851562 11.085937 2.730469 22.035156 4.082031 32.769531 4.082031 19.6875 0 38.613281-4.554687 56.175781-13.546874 1.09375-5.886719 1.683594-11.722657 1.820313-17.496094-14.804688 8.570312-29.546875 13.015625-43.546875 14.742187zm0 0" fill="#455e6d"/><path d="m271.0625 239.441406c0 14.363282-11.640625 26.003906-26 26.003906-14.363281 0-26.003906-11.640624-26.003906-26.003906 0-14.359375 11.640625-26 26.003906-26 14.359375 0 26 11.640625 26 26zm0 0" fill="#f8c298"/><path d="m95.933594 239.441406c0 14.363282-11.640625 26.003906-26.003906 26.003906-14.359376 0-26-11.640624-26-26.003906 0-14.359375 11.640624-26 26-26 14.363281 0 26.003906 11.640625 26.003906 26zm0 0" fill="#f8c298"/><path d="m157.496094 326.53125c-35.34375 0-65.15625-26.320312-69.539063-61.394531l-12.933593-103.550781h164.945312l-12.933594 103.550781c-4.382812 35.074219-34.195312 61.394531-69.539062 61.394531zm0 0" fill="#ffd6c0"/><path d="m64.648438 189.207031s35.609374 10.058594 68.3125-13.8125c0 0 73.03125 51.777344 144.089843 1.621094 3.601563-2.546875 3.511719-7.921875-.210937-10.292969l-44.140625-28.132812h-168.050781zm0 0" fill="#627687"/><g fill="#455e6d"><path d="m265.230469 159.378906-32.914063-20.964844c-3.59375-2.296874-4.65625-7.074218-2.359375-10.671874 2.289063-3.59375 7.066407-4.65625 10.664063-2.359376l17.328125 11.042969c3.007812 6.769531 5.347656 13.886719 6.933593 21.242188.121094.566406.234376 1.132812.347657 1.710937zm0 0"/><path d="m119.433594 245.679688c-4.171875 0-7.605469-3.320313-7.71875-7.515626l-.113282-4.121093c-.117187-4.265625 3.246094-7.816407 7.511719-7.933594 4.273438-.132813 7.816407 3.246094 7.933594 7.511719l.113281 4.121094c.117188 4.265624-3.246094 7.820312-7.511718 7.9375-.074219 0-.144532 0-.214844 0zm0 0"/><path d="m195.664062 245.679688c-4.167968 0-7.605468-3.320313-7.71875-7.515626l-.113281-4.121093c-.117187-4.265625 3.246094-7.816407 7.511719-7.933594 4.300781-.113281 7.820312 3.246094 7.9375 7.511719l.113281 4.121094c.117188 4.265624-3.246093 7.820312-7.511719 7.9375-.074218 0-.144531 0-.21875 0zm0 0"/></g><path d="m157.496094 282.207031c-11.609375 0-22.609375-5.621093-29.429688-15.042969-2.503906-3.453124-1.730468-8.285156 1.726563-10.785156 3.457031-2.503906 8.285156-1.730468 10.789062 1.726563 3.921875 5.417969 10.246094 8.652343 16.914063 8.652343 6.667968 0 12.988281-3.234374 16.910156-8.652343 2.503906-3.457031 7.335938-4.230469 10.789062-1.726563 3.457032 2.5 4.230469 7.332032 1.730469 10.785156-6.820312 9.421876-17.820312 15.042969-29.429687 15.042969zm0 0" fill="#f8c298"/><path d="m196.15625 369.636719h-68.691406c-4.269532 0-7.726563-3.460938-7.726563-7.726563 0-4.269531 3.457031-7.726562 7.726563-7.726562h68.691406c4.269531 0 7.726562 3.457031 7.726562 7.726562 0 4.265625-3.457031 7.726563-7.726562 7.726563zm0 0" fill="#ebeef2"/><path d="m175.554688 394.035156h-27.488282c-4.265625 0-7.726562-3.457031-7.726562-7.726562 0-4.265625 3.460937-7.722656 7.726562-7.722656h27.488282c4.265624 0 7.726562 3.457031 7.726562 7.722656 0 4.269531-3.460938 7.726562-7.726562 7.726562zm0 0" fill="#ebeef2"/></svg>