<svg height="512pt" viewBox="-31 0 511 512" width="512pt" xmlns="http://www.w3.org/2000/svg"><path d="m450.296875 33.089844v345.203125c0 18.273437-14.8125 33.097656-33.089844 33.097656h-383.617187c-18.273438 0-33.089844-14.824219-33.089844-33.097656v-345.203125c0-18.277344 14.8125-33.089844 33.089844-33.089844h383.621094c18.273437 0 33.085937 14.8125 33.085937 33.089844zm0 0" fill="#5f9eeb"/><path d="m450.296875 33.089844v345.203125c0 18.273437-14.8125 33.097656-33.089844 33.097656h-17.6875c18.277344 0 33.089844-14.824219 33.089844-33.097656v-345.203125c0-18.277344-14.8125-33.089844-33.089844-33.089844h17.6875c18.277344 0 33.089844 14.8125 33.089844 33.089844zm0 0" fill="#3a82d0"/><path d="m428.34375 321.417969c0 32.296875-7.582031 62.851562-21.054688 89.976562h-363.859374c-13.796876-27.785156-20.976563-58.371093-20.976563-89.976562 0-26.992188 5.347656-57.289063 15.464844-87.640625 3.058593-9.175782 11.628906-15.335938 21.3125-15.335938 5.046875 0 9.839843 1.648438 13.855469 4.769532 19.398437 15.082031 42.703124 23.054687 67.363281 23.054687 60.636719 0 109.964843-49.324219 109.964843-109.953125 0-15.265625-3.082031-30.039062-9.140624-43.925781-3.039063-6.972657-2.378907-14.917969 1.773437-21.261719 4.183594-6.386719 11.175781-10.210938 18.707031-10.210938 2.574219 0 5.121094.453126 7.59375 1.328126 39.25 14.074218 77.242188 47.625 107.003906 94.511718 27.125 42.722656 45.566407 93.652344 50.582032 139.742188.9375 8.539062 1.410156 16.925781 1.410156 24.921875zm0 0" fill="#3a82d0"/><path d="m415.980469 321.421875c0 105.261719-85.328125 190.578125-190.582031 190.578125-63.890626 0-120.425782-31.429688-155.003907-79.679688-22.398437-31.242187-35.574219-69.527343-35.574219-110.898437 0-26.179687 5.273438-55.078125 14.820313-83.734375 2.21875-6.648438 10.316406-9.027344 15.851563-4.71875 20.703124 16.089844 46.71875 25.660156 74.960937 25.660156 67.550781 0 122.316406-54.753906 122.316406-122.3125 0-17.375-3.628906-33.902344-10.164062-48.875-3.519531-8.066406 4.285156-16.515625 12.574219-13.550781 78.964843 28.292969 139.847656 135.683594 149.46875 223.945313.875 8.046874 1.332031 15.929687 1.332031 23.585937zm0 0" fill="#faaa3c"/><path d="m415.980469 321.421875c0 105.261719-85.328125 190.578125-190.582031 190.578125-4.054688 0-8.085938-.132812-12.078126-.371094 99.605469-6.253906 178.457032-89.019531 178.457032-190.207031 0-7.65625-.453125-15.539063-1.328125-23.585937-9.136719-83.777344-64.457031-184.792969-137.582031-219.039063 2.167968-4.175781 7.140624-6.753906 12.3125-4.910156 78.964843 28.296875 139.847656 135.683593 149.46875 223.949219.875 8.046874 1.332031 15.929687 1.332031 23.585937zm0 0" fill="#e79732"/><path d="m415.980469 321.421875c0 105.261719-85.328125 190.578125-190.582031 190.578125-4.054688 0-8.078126-.132812-12.058594-.371094-.011719 0-.011719 0-.019532 0-58.898437-3.691406-110.546874-34.125-142.925781-79.308594 62.386719-68.296874 167.832031-146.144531 319.792969-136.726562 8.015625.503906 16.171875 1.242188 24.460938 2.242188.875 8.046874 1.332031 15.929687 1.332031 23.585937zm0 0" fill="#eb5777"/><path d="m415.980469 321.421875c0 105.261719-85.328125 190.578125-190.582031 190.578125-4.054688 0-8.078126-.132812-12.058594-.371094 99.59375-6.265625 178.4375-89.03125 178.4375-190.207031 0-7.65625-.453125-15.539063-1.332032-23.585937-.078124-.746094-.160156-1.492188-.261718-2.242188 8.015625.503906 16.175781 1.242188 24.464844 2.242188.875 8.046874 1.332031 15.929687 1.332031 23.585937zm0 0" fill="#ce3f63"/><path d="m217.746094 450.914062c-1.667969 0-3.335938-.539062-4.730469-1.617187l-6.535156-5.0625c-3.375-2.613281-3.992188-7.464844-1.378907-10.839844 2.613282-3.375 7.464844-3.988281 10.839844-1.378906l1.84375 1.429687 2.28125-1.742187c3.394532-2.589844 8.242188-1.933594 10.832032 1.457031 2.585937 3.394532 1.933593 8.242188-1.457032 10.828125l-7.007812 5.34375c-1.382813 1.054688-3.035156 1.582031-4.6875 1.582031zm0 0" fill="#faaa3c"/><path d="m321.195312 252.460938c-1.667968 0-3.335937-.539063-4.726562-1.617188l-6.539062-5.0625c-3.375-2.613281-3.992188-7.464844-1.378907-10.839844s7.46875-3.992187 10.839844-1.378906l1.84375 1.425781 2.28125-1.742187c3.394531-2.585938 8.242187-1.933594 10.832031 1.457031 2.585938 3.394531 1.933594 8.242187-1.457031 10.832031l-7.007813 5.34375c-1.382812 1.054688-3.035156 1.582032-4.6875 1.582032zm0 0" fill="#eb5777"/><path d="m168.984375 427.722656c-1.671875 0-3.339844-.539062-4.730469-1.617187l-6.535156-5.0625c-3.375-2.613281-3.992188-7.464844-1.378906-10.839844 2.609375-3.375 7.464844-3.988281 10.839844-1.378906l1.839843 1.429687 2.285157-1.746094c3.394531-2.585937 8.242187-1.933593 10.828124 1.457032 2.589844 3.394531 1.9375 8.242187-1.457031 10.832031l-7.003906 5.34375c-1.386719 1.054687-3.039063 1.582031-4.6875 1.582031zm0 0" fill="#faaa3c"/><g fill="#ebeef2"><path d="m79.613281 64.828125h-18.527343c-4.269532 0-7.726563-3.460937-7.726563-7.726563 0-4.265624 3.457031-7.726562 7.726563-7.726562h18.527343c4.269531 0 7.726563 3.460938 7.726563 7.726562 0 4.265626-3.457032 7.726563-7.726563 7.726563zm0 0"/><path d="m124.804688 93.453125h-63.71875c-4.269532 0-7.726563-3.457031-7.726563-7.722656 0-4.269531 3.457031-7.726563 7.726563-7.726563h63.71875c4.269531 0 7.726562 3.457032 7.726562 7.726563 0 4.265625-3.457031 7.722656-7.726562 7.722656zm0 0"/><path d="m124.804688 115.179688h-63.71875c-4.269532 0-7.726563-3.460938-7.726563-7.726563 0-4.269531 3.457031-7.726563 7.726563-7.726563h63.71875c4.269531 0 7.726562 3.457032 7.726562 7.726563 0 4.265625-3.457031 7.726563-7.726562 7.726563zm0 0"/></g></svg>