<svg height="511pt" viewBox="-2 1 511 511.99999" width="511pt" xmlns="http://www.w3.org/2000/svg"><path d="m506.605469 37.230469v388.417969c0 20.566406-16.667969 37.246093-37.230469 37.246093h-431.644531c-20.5625 0-37.230469-16.679687-37.230469-37.246093v-388.417969c0-20.5625 16.667969-37.230469 37.230469-37.230469h431.644531c20.5625 0 37.230469 16.667969 37.230469 37.230469zm0 0" fill="#faaa3c"/><path d="m506.605469 37.230469v388.417969c0 20.566406-16.667969 37.246093-37.230469 37.246093h-28.144531c20.5625 0 37.230469-16.679687 37.230469-37.246093v-388.417969c0-20.5625-16.667969-37.230469-37.230469-37.230469h28.144531c20.5625 0 37.230469 16.667969 37.230469 37.230469zm0 0" fill="#e79732"/><g fill="#ebeef2"><path d="m393.695312 71.976562h-14.667968c-4.269532 0-7.726563-3.460937-7.726563-7.726562 0-4.269531 3.457031-7.726562 7.726563-7.726562h14.667968c4.265626 0 7.726563 3.457031 7.726563 7.726562 0 4.265625-3.460937 7.726562-7.726563 7.726562zm0 0"/><path d="m444.542969 104.1875h-65.515625c-4.269532 0-7.726563-3.460938-7.726563-7.726562 0-4.269532 3.457031-7.726563 7.726563-7.726563h65.515625c4.265625 0 7.726562 3.460937 7.726562 7.726563 0 4.265624-3.460937 7.726562-7.726562 7.726562zm0 0"/><path d="m444.542969 128.628906h-65.515625c-4.269532 0-7.726563-3.457031-7.726563-7.726562 0-4.265625 3.457031-7.722656 7.726563-7.722656h65.515625c4.265625 0 7.726562 3.457031 7.726562 7.722656 0 4.269531-3.460937 7.726562-7.726562 7.726562zm0 0"/><path d="m143.386719 462.90625c0 27.113281-21.980469 49.09375-49.09375 49.09375s-49.09375-21.980469-49.09375-49.09375c0-27.109375 21.980469-49.089844 49.09375-49.089844s49.09375 21.980469 49.09375 49.089844zm0 0"/><path d="m55.792969 91.140625c223.738281 5.550781 404.714843 186.523437 410.265625 410.265625.144531 5.816406-4.574219 10.59375-10.394532 10.59375h-71.597656c-5.589844 0-10.214844-4.425781-10.382812-10.019531-5.210938-173.265625-145.199219-313.253907-318.464844-318.464844-5.589844-.167969-10.015625-4.792969-10.015625-10.382813v-71.601562c-.003906-5.816406 4.773437-10.535156 10.589844-10.390625zm0 0"/><path d="m308.5625 501.164062c-5.554688-136.742187-115.785156-246.972656-252.527344-252.527343-5.90625-.242188-10.835937 4.480469-10.835937 10.390625v61.101562c0 5.535156 4.34375 10.074219 9.871093 10.371094 92.382813 4.96875 166.660157 79.242188 171.628907 171.632812.296875 5.523438 4.835937 9.867188 10.371093 9.867188h61.101563c5.910156 0 10.632813-4.929688 10.390625-10.835938zm0 0"/></g></svg>