<svg height="512pt" viewBox="0 -21 512.00008 512" width="512pt" xmlns="http://www.w3.org/2000/svg"><path d="m422.164062 211.085938c0 116.578124-94.503906 211.082031-211.082031 211.082031s-211.082031-94.503907-211.082031-211.082031c0-116.578126 94.503906-211.08203175 211.082031-211.08203175s211.082031 94.50390575 211.082031 211.08203175zm0 0" fill="#74e2cd"/><path d="m422.171875 211.085938c0 116.574218-94.515625 211.078124-211.089844 211.078124-4.402343 0-8.773437-.136718-13.113281-.410156 110.464844-6.757812 197.960938-98.496094 197.960938-210.667968 0-112.179688-87.496094-203.917969-197.960938-210.675782 4.339844-.273437 8.710938-.410156 13.113281-.410156 116.574219 0 211.089844 94.503906 211.089844 211.085938zm0 0" fill="#4fceb7"/><g fill="#627687"><path d="m503.339844 338.226562c-2.089844 5.414063-8.175782 8.109376-13.589844 6.015626l-10.289062-3.976563c-56.230469-21.722656-117.835938-38.574219-183.105469-50.082031-65.269531-11.511719-128.925781-16.746094-189.199219-15.566406l-11.027344.21875c-5.800781.113281-10.597656-4.496094-10.714844-10.300782l-.429687-22.058594c-.117187-5.800781 4.496094-10.597656 10.300781-10.710937l11.027344-.21875c63.054688-1.234375 129.507812 4.21875 197.523438 16.210937 68.011718 11.988282 132.324218 29.597657 191.148437 52.324219l10.289063 3.976563c5.414062 2.089844 8.109374 8.175781 6.015624 13.589844zm0 0"/><path d="m452.691406 401.71875c-2.089844 5.414062-8.175781 8.105469-13.589844 6.015625l-10.289062-3.976563c-44.453125-17.171874-93.402344-30.539062-145.480469-39.722656-52.082031-9.183594-102.648437-13.363281-150.296875-12.429687l-11.027344.214843c-5.800781.113282-10.597656-4.496093-10.710937-10.300781l-.433594-22.054687c-.117187-5.804688 4.496094-10.601563 10.300781-10.714844l11.027344-.21875c50.429688-.988281 103.796875 3.410156 158.621094 13.078125 54.820312 9.667969 106.472656 23.785156 153.523438 41.964844l10.289062 3.972656c5.414062 2.09375 8.109375 8.179687 6.015625 13.59375zm0 0"/><path d="m141.929688 419.128906-.433594-22.054687c-.113282-5.804688 4.5-10.601563 10.304687-10.714844l11.027344-.214844c35.855469-.703125 75.597656 2.589844 114.925781 9.523438 39.328125 6.933593 77.796875 17.433593 111.25 30.355469l10.289063 3.976562c5.414062 2.09375 8.109375 8.175781 6.015625 13.589844l-7.949219 20.578125c-2.089844 5.414062-8.175781 8.109375-13.589844 6.015625l-10.289062-3.972656c-30.894531-11.9375-66.582031-21.660157-103.207031-28.117188s-73.488282-9.527344-106.597657-8.878906l-11.03125.21875c-5.804687.113281-10.601562-4.5-10.714843-10.304688zm0 0"/></g><path d="m283.1875 123.597656h-21.269531c-4.265625 0-7.726563-3.460937-7.726563-7.726562s3.460938-7.726563 7.726563-7.726563h21.269531c4.265625 0 7.726562 3.460938 7.726562 7.726563s-3.460937 7.726562-7.726562 7.726562zm0 0" fill="#ebeef2"/><path d="m335.0625 152.089844h-73.144531c-4.265625 0-7.726563-3.460938-7.726563-7.726563 0-4.269531 3.460938-7.726562 7.726563-7.726562h73.144531c4.265625 0 7.726562 3.457031 7.726562 7.726562 0 4.265625-3.460937 7.726563-7.726562 7.726563zm0 0" fill="#ebeef2"/><path d="m335.0625 175.765625h-73.144531c-4.265625 0-7.726563-3.457031-7.726563-7.722656 0-4.269531 3.460938-7.726563 7.726563-7.726563h73.144531c4.265625 0 7.726562 3.457032 7.726562 7.726563 0 4.265625-3.460937 7.722656-7.726562 7.722656zm0 0" fill="#ebeef2"/></svg>