<svg height="512pt" viewBox="-44 0 512 512.00088" width="512pt" xmlns="http://www.w3.org/2000/svg"><path d="m405.773438 287.234375-18.84375 11.816406-15.851563 9.949219-175.835937 110.277344-15.894532 9.96875-122.875 77.058594c-24.558594 15.402343-56.472656-2.25-56.472656-31.234376v-438.140624c0-28.984376 31.914062-46.636719 56.472656-31.234376l78.683594 49.351563 56.738281 35.582031 180.25 113.042969 15.527344 9.738281 18.101563 11.355469c23.039062 14.445313 23.039062 48.023437 0 62.46875zm0 0" fill="#ebeef2"/><path d="m392.5 254.734375c0 15.042969-1.871094 29.890625-5.570312 44.316406l-15.851563 9.945313-175.835937 110.28125-15.894532 9.96875c-82.363281-16.453125-142.789062-89.054688-142.789062-174.511719 0-43.285156 15.730468-85.011719 44.285156-117.480469 3.472656-3.945312 7.101562-7.726562 10.882812-11.324218 2.351563-16.632813 9.933594-31.605469 21.019532-43.203126-.101563-2.027343.042968-4.082031.441406-6.117187 1.472656-7.34375 6.085938-13.601563 12.671875-17.167969 3.019531-1.632812 6.125-3.113281 9.296875-4.398437l56.738281 35.582031 180.25 113.046875 15.527344 9.738281c3.214844 13.480469 4.828125 27.320313 4.828125 41.324219zm0 0" fill="#d3d8df"/><path d="m380.167969 254.734375c0 19.011719-3.203125 37.257813-9.089844 54.261719l-175.835937 110.28125c-82.394532-9.554688-146.355469-79.578125-146.355469-164.542969 0-83.800781 62.238281-153.074219 143.007812-164.109375 7.398438-1.003906 14.957031-1.53125 22.632813-1.53125 73.660156 0 136.089844 48.085938 157.617187 114.578125 5.210938 16.078125 8.023438 33.25 8.023438 51.0625zm0 0" fill="#eb5777"/><path d="m312.203125 201.65625c-6.3125 0-11.433594-5.117188-11.433594-11.433594v-53.222656c0-23.949219-19.484375-43.4375-43.4375-43.4375h-87.769531c-23.949219 0-43.4375 19.488281-43.4375 43.4375v53.222656c0 6.316406-5.117188 11.433594-11.433594 11.433594s-11.433594-5.117188-11.433594-11.433594v-53.222656c0-36.558594 29.746094-66.304688 66.304688-66.304688h87.769531c36.558594 0 66.304688 29.746094 66.304688 66.304688v53.222656c0 6.316406-5.121094 11.433594-11.433594 11.433594zm0 0" fill="#627687"/><path d="m150.988281 308.777344h-39.675781c-14.597656 0-26.433594-11.835938-26.433594-26.433594v-71.726562c0-14.601563 11.835938-26.433594 26.433594-26.433594h39.675781zm0 0" fill="#ebeef2"/><path d="m155.210938 321.492188c-12.410157 0-22.472657-10.0625-22.472657-22.472657v-105c0-12.414062 10.0625-22.476562 22.472657-22.476562 12.414062 0 22.472656 10.0625 22.472656 22.476562v105c0 12.410157-10.058594 22.472657-22.472656 22.472657zm0 0" fill="#627687"/><path d="m275.90625 308.777344h39.675781c14.597657 0 26.433594-11.835938 26.433594-26.433594v-71.726562c0-14.601563-11.835937-26.433594-26.433594-26.433594h-39.675781zm0 0" fill="#ebeef2"/><path d="m294.15625 247.347656h47.859375v27.363282h-47.859375zm0 0" fill="#74e2cd"/><g fill="#627687"><path d="m271.683594 321.492188c12.410156 0 22.472656-10.0625 22.472656-22.472657v-105c0-12.414062-10.0625-22.476562-22.472656-22.476562-12.414063 0-22.476563 10.0625-22.476563 22.476562v105c0 12.410157 10.0625 22.472657 22.476563 22.472657zm0 0"/><path d="m108.957031 276.746094c-.019531 0-.039062 0-.054687 0h-.140625c-4.265625-.03125-7.703125-3.515625-7.671875-7.785156.03125-4.246094 3.484375-7.667969 7.726562-7.667969h.054688.140625c4.265625.03125 7.699219 3.515625 7.671875 7.78125-.03125 4.25-3.484375 7.671875-7.726563 7.671875zm0 0"/><path d="m108.957031 257.09375c-.019531 0-.039062 0-.054687 0h-.140625c-4.265625-.03125-7.703125-3.515625-7.671875-7.78125.03125-4.25 3.484375-7.671875 7.726562-7.671875h.054688.140625c4.265625.03125 7.699219 3.515625 7.671875 7.785156-.03125 4.246094-3.484375 7.667969-7.726563 7.667969zm0 0"/></g><path d="m288.402344 102.59375c-3.710938 4.578125-10.058594 5.957031-15.386719 3.445312-5.332031-2.511718-11.148437-3.8125-17.199219-3.8125h-84.738281c-6.050781 0-11.871094 1.300782-17.199219 3.8125-5.332031 2.511719-11.675781 1.132813-15.386718-3.445312l-10.617188-13.097656c-5.023438-6.195313-3.15625-15.414063 3.855469-19.214844 12.019531-6.515625 25.578125-10.007812 39.347656-10.007812h84.738281c13.769532 0 27.324219 3.492187 39.347656 10.007812 7.011719 3.800781 8.878907 13.019531 3.855469 19.214844zm0 0" fill="#74e2cd"/></svg>