<svg height="512pt" viewBox="0 -43 512 511" width="512pt" xmlns="http://www.w3.org/2000/svg"><g fill="#93a3af"><path d="m158.132812 102.097656v13.394532h-81.386718v-13.394532c0-5.6875 4.613281-10.300781 10.304687-10.300781h60.78125c5.6875 0 10.300781 4.613281 10.300781 10.300781zm0 0"/><path d="m251.878906 415.273438v-13.390626h-40.175781v13.390626c0 5.691406 4.609375 10.300781 10.300781 10.300781h19.574219c5.6875 0 10.300781-4.609375 10.300781-10.300781zm0 0"/><path d="m178.734375 415.273438v-13.390626h-101.988281v13.390626c0 5.691406 4.613281 10.300781 10.304687 10.300781h81.382813c5.691406 0 10.300781-4.609375 10.300781-10.300781zm0 0"/><path d="m315.75 415.273438v-13.390626h-40.175781v13.390626c0 5.691406 4.609375 10.300781 10.300781 10.300781h19.574219c5.6875 0 10.300781-4.609375 10.300781-10.300781zm0 0"/></g><path d="m512 133.4375v250.496094c0 11.382812-9.21875 20.605468-20.605469 20.605468h-470.789062c-11.386719 0-20.605469-9.21875-20.605469-20.605468v-250.496094c0-11.386719 9.21875-20.605469 20.605469-20.605469h470.792969c11.382812 0 20.601562 9.222657 20.601562 20.605469zm0 0" fill="#d3d8df"/><path d="m512 133.4375v250.496094c0 11.382812-9.21875 20.605468-20.605469 20.605468h-18.027343c11.386718 0 20.605468-9.21875 20.605468-20.605468v-250.496094c0-11.386719-9.21875-20.605469-20.605468-20.605469h18.027343c11.386719 0 20.605469 9.222657 20.605469 20.605469zm0 0" fill="#c2c6cc"/><path d="m52.023438 112.832031h407.953124v291.707031h-407.953124zm0 0" fill="#5f9eeb"/><path d="m442.464844 112.832031h17.511718v291.707031h-17.511718zm0 0" fill="#3a82d0"/><path d="m27.644531 286.585938c-4.269531 0-7.726562-3.457032-7.726562-7.726563v-40.34375c0-4.269531 3.457031-7.726563 7.726562-7.726563 4.265625 0 7.722657 3.457032 7.722657 7.726563v40.34375c.003906 4.269531-3.457032 7.726563-7.722657 7.726563zm0 0" fill="#c2c6cc"/><path d="m368.597656 91.703125-40.1875 52.230469 1.816406 65.871094c.171876 6.386718-6.121093 10.949218-12.136718 8.816406l-62.089844-22.085938-62.089844 22.085938c-6.015625 2.132812-12.308594-2.429688-12.132812-8.816406l.359375-12.960938 1.453125-52.910156-40.1875-52.230469c-3.894532-5.054687-1.480469-12.453125 4.636718-14.265625l63.210938-18.625 37.25-54.363281c3.617188-5.265625 11.382812-5.265625 15 0l37.25 54.363281 15 4.417969 48.214844 14.207031c6.117187 1.8125 8.527344 9.207031 4.632812 14.265625zm0 0" fill="#f1dd47"/><path d="m329.628906 187.914062.597656 21.890626c.171876 6.386718-6.121093 10.949218-12.136718 8.816406l-14.144532-5.027344zm0 0" fill="#efc40f"/><path d="m368.597656 91.703125-40.1875 52.230469.371094 13.402344-48.003906 48.007812-24.777344-8.808594-62.089844 22.085938c-6.015625 2.132812-12.308594-2.429688-12.132812-8.816406l.359375-12.960938 133.613281-133.613281 48.214844 14.207031c6.117187 1.8125 8.527344 9.207031 4.632812 14.265625zm0 0" fill="#efc40f"/><path d="m141.515625 296.980469-20.1875 7.179687c-1.957031.695313-4.003906-.792968-3.945313-2.867187l.589844-21.417969-13.066406-16.980469c-1.265625-1.644531-.484375-4.050781 1.507812-4.636719l20.550782-6.058593 12.109375-17.671875c1.175781-1.710938 3.703125-1.710938 4.878906 0l12.109375 17.671875 20.550781 6.058593c1.992188.585938 2.773438 2.992188 1.507813 4.636719l-13.066406 16.980469.589843 21.417969c.058594 2.074219-1.988281 3.5625-3.945312 2.867187zm0 0" fill="#f1dd47"/><path d="m256 337.675781-20.1875 7.179688c-1.957031.695312-4.003906-.789063-3.945312-2.867188l.589843-21.417969-13.066406-16.976562c-1.265625-1.648438-.484375-4.054688 1.507813-4.640625l20.550781-6.058594 12.109375-17.671875c1.175781-1.710937 3.703125-1.710937 4.878906 0l12.113281 17.671875 20.546875 6.058594c1.992188.585937 2.773438 2.992187 1.507813 4.640625l-13.066407 16.976562.589844 21.417969c.058594 2.074219-1.988281 3.5625-3.945312 2.867188zm0 0" fill="#f1dd47"/><path d="m370.484375 296.980469-20.183594 7.179687c-1.957031.695313-4.003906-.792968-3.945312-2.867187l.585937-21.417969-13.0625-16.980469c-1.269531-1.644531-.484375-4.050781 1.507813-4.636719l20.546875-6.058593 12.113281-17.671875c1.175781-1.710938 3.703125-1.710938 4.878906 0l12.109375 17.671875 20.550782 6.058593c1.992187.585938 2.773437 2.992188 1.507812 4.636719l-13.066406 16.980469.589844 21.417969c.058593 2.074219-1.988282 3.5625-3.945313 2.867187zm0 0" fill="#f1dd47"/></svg>