<svg height="512pt" viewBox="-50 0 512 512.001" width="512pt" xmlns="http://www.w3.org/2000/svg"><g fill="#93a3af"><path d="m323.476562 158.132812h-13.390624v-81.386718h13.390624c5.691407 0 10.304688 4.613281 10.304688 10.304687v60.78125c0 5.6875-4.613281 10.300781-10.304688 10.300781zm0 0"/><path d="m10.300781 251.878906h13.394531v-40.175781h-13.394531c-5.6875 0-10.300781 4.609375-10.300781 10.300781v19.574219c0 5.6875 4.613281 10.300781 10.300781 10.300781zm0 0"/><path d="m10.300781 178.734375h13.394531v-101.988281h-13.394531c-5.6875 0-10.300781 4.613281-10.300781 10.304687v81.382813c0 5.691406 4.613281 10.300781 10.300781 10.300781zm0 0"/><path d="m10.300781 315.75h13.394531v-40.175781h-13.394531c-5.6875 0-10.300781 4.609375-10.300781 10.300781v19.574219c0 5.6875 4.613281 10.300781 10.300781 10.300781zm0 0"/></g><path d="m21.035156 491.394531v-470.789062c0-11.378907 9.226563-20.605469 20.605469-20.605469h250.5c11.378906 0 20.605469 9.226562 20.605469 20.605469v470.792969c0 11.378906-9.226563 20.601562-20.605469 20.601562h-250.5c-11.378906 0-20.605469-9.226562-20.605469-20.605469zm0 0" fill="#7b8c98"/><path d="m312.742188 20.605469v470.792969c0 11.382812-9.21875 20.601562-20.601563 20.601562h-20.171875c11.382812 0 20.605469-9.21875 20.605469-20.601562v-470.792969c0-11.386719-9.222657-20.605469-20.605469-20.605469h20.171875c11.382813 0 20.601563 9.21875 20.601563 20.605469zm0 0" fill="#627687"/><path d="m21.035156 52.023438h291.710938v407.953124h-291.710938zm0 0" fill="#ebeef2"/><path d="m292.574219 52.023438h20.171875v407.953124h-20.171875zm0 0" fill="#d3d8df"/><path d="m187.0625 35.367188h-40.34375c-4.269531 0-7.726562-3.457032-7.726562-7.722657 0-4.269531 3.457031-7.726562 7.726562-7.726562h40.34375c4.265625 0 7.726562 3.457031 7.726562 7.726562 0 4.265625-3.460937 7.722657-7.726562 7.722657zm0 0" fill="#627687"/><path d="m99.929688 112.898438h-24.417969c-4.265625 0-7.722657-3.457032-7.722657-7.726563 0-4.265625 3.457032-7.726563 7.722657-7.726563h24.417969c4.265624 0 7.726562 3.460938 7.726562 7.726563 0 4.269531-3.460938 7.726563-7.726562 7.726563zm0 0" fill="#93a3af"/><path d="m170.578125 406.921875h-23.859375c-4.269531 0-7.726562-3.457031-7.726562-7.726563 0-4.265624 3.457031-7.726562 7.726562-7.726562h23.859375c4.269531 0 7.726563 3.460938 7.726563 7.726562 0 4.269532-3.457032 7.726563-7.726563 7.726563zm0 0" fill="#93a3af"/><path d="m123.046875 406.921875h-47.535156c-4.265625 0-7.726563-3.457031-7.726563-7.726563 0-4.265624 3.460938-7.726562 7.726563-7.726562h47.535156c4.265625 0 7.726563 3.460938 7.726563 7.726562 0 4.269532-3.460938 7.726563-7.726563 7.726563zm0 0" fill="#93a3af"/><path d="m87.71875 379.234375h-12.207031c-4.265625 0-7.726563-3.457031-7.726563-7.726563 0-4.265624 3.460938-7.726562 7.726563-7.726562h12.207031c4.269531 0 7.726562 3.460938 7.726562 7.726562 0 4.269532-3.457031 7.726563-7.726562 7.726563zm0 0" fill="#93a3af"/><path d="m178.523438 265.3125h-93.3125c-10.910157 0-19.789063-8.878906-19.789063-19.792969v-51.304687c0-10.914063 8.878906-19.792969 19.789063-19.792969h11.925781l1.941406-9.335937c1.898437-9.136719 10.046875-15.765626 19.378906-15.765626h26.820313c9.332031 0 17.480468 6.628907 19.378906 15.765626l1.9375 9.335937h11.929688c10.910156 0 19.789062 8.878906 19.789062 19.792969v51.304687c.003906 10.914063-8.878906 19.792969-19.789062 19.792969zm-93.3125-75.4375c-2.390626 0-4.339844 1.949219-4.339844 4.339844v51.304687c0 2.394531 1.949218 4.339844 4.339844 4.339844h93.3125c2.390624 0 4.339843-1.945313 4.339843-4.339844v-51.304687c0-2.390625-1.949219-4.339844-4.339843-4.339844h-18.214844c-3.660156 0-6.820313-2.566406-7.5625-6.152344l-3.21875-15.492187c-.417969-2.003907-2.203125-3.457031-4.25-3.457031h-26.820313c-2.046875 0-3.832031 1.453124-4.25 3.457031l-3.21875 15.492187c-.742187 3.585938-3.902343 6.152344-7.5625 6.152344zm0 0" fill="#faaa3c"/><path d="m178.523438 265.3125h-93.3125c-10.910157 0-19.789063-8.878906-19.789063-19.792969v-51.304687c0-10.914063 8.878906-19.792969 19.789063-19.792969h11.925781l1.941406-9.335937c1.898437-9.136719 10.046875-15.765626 19.378906-15.765626h26.820313c9.332031 0 17.480468 6.628907 19.378906 15.765626l1.9375 9.335937h11.929688c10.910156 0 19.789062 8.878906 19.789062 19.792969v51.304687c.003906 10.914063-8.878906 19.792969-19.789062 19.792969zm-93.3125-75.4375c-2.390626 0-4.339844 1.949219-4.339844 4.339844v51.304687c0 2.394531 1.949218 4.339844 4.339844 4.339844h93.3125c2.390624 0 4.339843-1.945313 4.339843-4.339844v-51.304687c0-2.390625-1.949219-4.339844-4.339843-4.339844h-18.214844c-3.660156 0-6.820313-2.566406-7.5625-6.152344l-3.21875-15.492187c-.417969-2.003907-2.203125-3.457031-4.25-3.457031h-26.820313c-2.046875 0-3.832031 1.453124-4.25 3.457031l-3.21875 15.492187c-.742187 3.585938-3.902343 6.152344-7.5625 6.152344zm0 0" fill="#faaa3c"/><path d="m131.867188 237.75c-12.355469 0-22.40625-10.050781-22.40625-22.40625s10.050781-22.40625 22.40625-22.40625c12.355468 0 22.40625 10.050781 22.40625 22.40625s-10.050782 22.40625-22.40625 22.40625zm0-29.359375c-3.835938 0-6.953126 3.117187-6.953126 6.953125 0 3.832031 3.117188 6.953125 6.953126 6.953125 3.835937 0 6.953124-3.121094 6.953124-6.953125 0-3.835938-3.117187-6.953125-6.953124-6.953125zm0 0" fill="#faaa3c"/><path d="m397.976562 345.609375-77.015624 77.015625c-3.964844 3.96875-10.402344 3.96875-14.371094 0l-77.015625-77.015625c-6.394531-6.394531-1.863281-17.347656 7.179687-17.347656h17.730469v-102.863281c0-5.605469 4.542969-10.160157 10.15625-10.160157h98.269531c5.605469 0 10.160156 4.554688 10.160156 10.160157v102.863281h17.71875c9.054688 0 13.585938 10.953125 7.1875 17.347656zm0 0" fill="#74e2cd"/><path d="m397.976562 345.609375-77.015624 77.015625c-3.964844 3.96875-10.402344 3.96875-14.371094 0l-41.441406-41.441406 107.921874-107.921875v55h17.71875c9.054688 0 13.585938 10.953125 7.1875 17.347656zm0 0" fill="#4fceb7"/><path d="m362.765625 192.492188h-97.980469c-5.6875 0-10.300781-4.613282-10.300781-10.300782v-23.03125c0-5.6875 4.613281-10.300781 10.300781-10.300781h97.980469c5.6875 0 10.300781 4.613281 10.300781 10.300781v23.03125c0 5.6875-4.613281 10.300782-10.300781 10.300782zm0 0" fill="#74e2cd"/><path d="m362.765625 127.617188h-97.980469c-5.6875 0-10.300781-4.609376-10.300781-10.300782v-8.605468c0-5.691407 4.613281-10.304688 10.300781-10.304688h97.980469c5.6875 0 10.300781 4.613281 10.300781 10.304688v8.605468c0 5.6875-4.613281 10.300782-10.300781 10.300782zm0 0" fill="#74e2cd"/><path d="m393.75 488.304688h-159.949219c-9.957031 0-18.027343-8.070313-18.027343-18.027344v-39.660156c0-5.691407 4.609374-10.304688 10.300781-10.304688h15.453125c5.6875 0 10.300781 4.613281 10.300781 10.304688v21.632812h123.894531v-21.632812c0-5.691407 4.613282-10.304688 10.300782-10.304688h15.453124c5.691407 0 10.304688 4.613281 10.304688 10.304688v39.660156c-.003906 9.957031-8.074219 18.027344-18.03125 18.027344zm0 0" fill="#74e2cd"/></svg>