<svg height="512pt" viewBox="-56 0 512 512.001" width="512pt" xmlns="http://www.w3.org/2000/svg"><g fill="#93a3af"><path d="m323.476562 158.132812h-13.390624v-81.386718h13.390624c5.691407 0 10.304688 4.613281 10.304688 10.304687v60.78125c0 5.6875-4.613281 10.300781-10.304688 10.300781zm0 0"/><path d="m10.300781 251.878906h13.394531v-40.175781h-13.394531c-5.6875 0-10.300781 4.609375-10.300781 10.300781v19.574219c0 5.6875 4.613281 10.300781 10.300781 10.300781zm0 0"/><path d="m10.300781 178.734375h13.394531v-101.988281h-13.394531c-5.6875 0-10.300781 4.613281-10.300781 10.304687v81.382813c0 5.691406 4.613281 10.300781 10.300781 10.300781zm0 0"/><path d="m10.300781 315.75h13.394531v-40.175781h-13.394531c-5.6875 0-10.300781 4.609375-10.300781 10.300781v19.574219c0 5.6875 4.613281 10.300781 10.300781 10.300781zm0 0"/></g><path d="m21.035156 491.394531v-470.789062c0-11.378907 9.226563-20.605469 20.605469-20.605469h250.5c11.378906 0 20.605469 9.226562 20.605469 20.605469v470.792969c0 11.378906-9.226563 20.601562-20.605469 20.601562h-250.5c-11.378906 0-20.605469-9.226562-20.605469-20.605469zm0 0" fill="#7b8c98"/><path d="m312.742188 20.605469v470.792969c0 11.382812-9.21875 20.601562-20.601563 20.601562h-20.171875c11.382812 0 20.605469-9.21875 20.605469-20.601562v-470.792969c0-11.386719-9.222657-20.605469-20.605469-20.605469h20.171875c11.382813 0 20.601563 9.21875 20.601563 20.605469zm0 0" fill="#627687"/><path d="m21.035156 52.023438h291.710938v407.953124h-291.710938zm0 0" fill="#ebeef2"/><path d="m292.574219 52.023438h20.171875v407.953124h-20.171875zm0 0" fill="#d3d8df"/><path d="m187.0625 35.367188h-40.34375c-4.269531 0-7.726562-3.457032-7.726562-7.722657 0-4.269531 3.457031-7.726562 7.726562-7.726562h40.34375c4.265625 0 7.726562 3.457031 7.726562 7.726562 0 4.265625-3.457031 7.722657-7.726562 7.722657zm0 0" fill="#627687"/><path d="m99.929688 112.898438h-24.417969c-4.265625 0-7.722657-3.457032-7.722657-7.726563 0-4.265625 3.457032-7.726563 7.722657-7.726563h24.417969c4.265624 0 7.726562 3.460938 7.726562 7.726563 0 4.269531-3.460938 7.726563-7.726562 7.726563zm0 0" fill="#93a3af"/><path d="m170.582031 406.921875h-23.863281c-4.269531 0-7.726562-3.457031-7.726562-7.726563 0-4.265624 3.457031-7.726562 7.726562-7.726562h23.863281c4.265625 0 7.722657 3.460938 7.722657 7.726562 0 4.269532-3.457032 7.726563-7.722657 7.726563zm0 0" fill="#93a3af"/><path d="m123.046875 406.921875h-47.535156c-4.265625 0-7.722657-3.457031-7.722657-7.726563 0-4.265624 3.457032-7.726562 7.722657-7.726562h47.535156c4.265625 0 7.726563 3.460938 7.726563 7.726562 0 4.269532-3.460938 7.726563-7.726563 7.726563zm0 0" fill="#93a3af"/><path d="m87.71875 379.234375h-12.207031c-4.265625 0-7.726563-3.457031-7.726563-7.726563 0-4.265624 3.460938-7.726562 7.726563-7.726562h12.207031c4.269531 0 7.726562 3.460938 7.726562 7.726562 0 4.269532-3.457031 7.726563-7.726562 7.726563zm0 0" fill="#93a3af"/><path d="m229.570312 178.398438 77.015626-77.015626c3.96875-3.964843 10.40625-3.964843 14.371093 0l41.445313 41.445313 35.574218 35.570313c6.394532 6.398437 1.863282 17.347656-7.179687 17.347656h-17.730469v102.867187c0 5.601563-4.542968 10.15625-10.160156 10.15625h-98.269531c-5.601563 0-10.15625-4.554687-10.15625-10.15625v-102.867187h-17.71875c-9.054688 0-13.585938-10.949219-7.191407-17.347656zm0 0" fill="#eb5777"/><path d="m373.066406 341.824219v23.023437c0 5.6875-4.613281 10.300782-10.300781 10.300782h-97.980469c-5.6875 0-10.300781-4.613282-10.300781-10.300782v-23.023437c0-5.695313 4.613281-10.300781 10.300781-10.300781h97.980469c5.6875 0 10.300781 4.605468 10.300781 10.300781zm0 0" fill="#eb5777"/><path d="m373.066406 343.65625v21.191406c0 5.6875-4.613281 10.304688-10.300781 10.304688h-21.191406zm0 0" fill="#ce3f63"/><path d="m373.066406 406.695312v8.601563c0 5.695313-4.613281 10.300781-10.300781 10.300781h-97.980469c-5.6875 0-10.300781-4.605468-10.300781-10.300781v-8.601563c0-5.6875 4.613281-10.300781 10.300781-10.300781h97.980469c5.6875 0 10.300781 4.613281 10.300781 10.300781zm0 0" fill="#eb5777"/><path d="m373.066406 406.695312v8.601563c0 5.695313-4.613281 10.300781-10.300781 10.300781h-71.648437l29.214843-29.203125h42.433594c5.6875 0 10.300781 4.613281 10.300781 10.300781zm0 0" fill="#ce3f63"/><path d="m188.625 159.164062v150.949219c0 5.699219-4.617188 10.304688-10.304688 10.304688h-95.671874c-5.695313 0-10.300782-4.605469-10.300782-10.304688v-150.949219c0-5.6875 4.605469-10.304687 10.300782-10.304687h95.671874c5.6875 0 10.304688 4.617187 10.304688 10.304687zm0 0" fill="#74e2cd"/><path d="m188.625 276.171875v33.945313c0 5.695312-4.617188 10.300781-10.304688 10.300781h-95.671874c-5.695313 0-10.300782-4.605469-10.300782-10.300781v-33.925782c13.523438-17.222656 34.550782-28.289062 58.152344-28.289062s44.609375 11.054687 58.125 28.269531zm0 0" fill="#faaa3c"/><path d="m155.957031 225.496094c0 14.070312-11.40625 25.472656-25.472656 25.472656-14.070313 0-25.472656-11.402344-25.472656-25.472656 0-14.066406 11.402343-25.472656 25.472656-25.472656 14.066406 0 25.472656 11.40625 25.472656 25.472656zm0 0" fill="#f8c298"/></svg>