<svg height="512pt" viewBox="-37 0 512 512" width="512pt" xmlns="http://www.w3.org/2000/svg"><path d="m438.859375 256c0 121.1875-98.242187 219.429688-219.429687 219.429688s-219.429688-98.242188-219.429688-219.429688 98.242188-219.429688 219.429688-219.429688 219.429687 98.242188 219.429687 219.429688zm0 0" fill="#5f9eeb"/><path d="m438.859375 256c0 121.191406-98.238281 219.429688-219.429687 219.429688-5.253907 0-10.46875-.1875-15.628907-.546876 113.898438-8.023437 203.789063-102.945312 203.789063-218.882812s-89.890625-210.855469-203.789063-218.882812c5.160157-.359376 10.375-.546876 15.628907-.546876 121.191406 0 219.429687 98.238282 219.429687 219.429688zm0 0" fill="#3a82d0"/><path d="m157.128906 512c-21.417968 0-38.78125-17.363281-38.78125-38.785156v-5.101563c0-21.417969 17.363282-38.785156 38.78125-38.785156 21.421875 0 38.785156 17.367187 38.785156 38.785156v5.101563c0 21.421875-17.363281 38.785156-38.785156 38.785156zm0 0" fill="#eb5777"/><path d="m155.316406 135.039062c1.585938-14.726562 8.121094-28.34375 18.828125-38.898437 12.167969-12 28.214844-18.570313 45.289063-18.570313.308594 0 .617187 0 .925781.003907 34.566406.480469 63.078125 28.992187 63.558594 63.5625.242187 17.414062-6.347657 33.828125-18.5625 46.214843-12.21875 12.386719-28.527344 19.210938-45.925781 19.210938l-.445313-.003906c-.230469 0-.457031 0-.6875 0-26.683594 0-51.742187 10.304687-70.625 29.066406-18.910156 18.785156-29.324219 43.808594-29.324219 70.464844v75.148437c0 5.691407 4.613282 10.300781 10.300782 10.300781h56.964843c5.691407 0 10.300781-4.609374 10.300781-10.300781v-74.589843c0-5.992188 2.222657-11.859376 6.496094-16.0625 4.234375-4.171876 9.875-6.460938 15.808594-6.460938h.152344l1.058594.003906c38.324218 0 74.246093-15.027344 101.15625-42.3125 26.90625-27.285156 41.429687-63.421875 40.898437-101.761718-.519531-37.0625-15.324219-71.992188-41.6875-98.355469-26.367187-26.363281-61.300781-41.167969-98.359375-41.683594-.679688-.01171875-1.359375-.015625-2.039062-.015625-37.578126 0-72.921876 14.484375-99.722657 40.910156-25.609375 25.261719-40.417969 58.460938-42.140625 94.128906v23.816407c0 5.6875 4.609375 10.300781 10.300782 10.300781h57.167968c5.6875 0 10.300782-4.609375 10.300782-10.296875zm0 0" fill="#eb5777"/><g fill="#ebeef2"><path d="m259.472656 327.363281h-21.269531c-4.265625 0-7.726563-3.457031-7.726563-7.722656 0-4.269531 3.460938-7.726563 7.726563-7.726563h21.269531c4.269532 0 7.726563 3.457032 7.726563 7.726563 0 4.265625-3.457031 7.722656-7.726563 7.722656zm0 0"/><path d="m311.347656 355.855469h-73.144531c-4.265625 0-7.722656-3.457031-7.722656-7.726563 0-4.265625 3.457031-7.726562 7.722656-7.726562h73.144531c4.269532 0 7.726563 3.460937 7.726563 7.726562 0 4.269532-3.457031 7.726563-7.726563 7.726563zm0 0"/><path d="m311.347656 379.535156h-73.144531c-4.265625 0-7.722656-3.460937-7.722656-7.726562 0-4.269532 3.457031-7.726563 7.722656-7.726563h73.144531c4.269532 0 7.726563 3.460938 7.726563 7.726563s-3.457031 7.726562-7.726563 7.726562zm0 0"/></g></svg>