<svg height="512pt" viewBox="0 -30 512.0015 512" width="512pt" xmlns="http://www.w3.org/2000/svg"><path d="m186.339844 199.328125c-10.71875.542969-21.273438 4.90625-29.4375 13.070313l-113.5 113.496093c-17.519532 17.523438-17.519532 46.035157 0 63.558594l48.882812 48.882813c17.523438 17.519531 46.039063 17.519531 63.558594 0l113.496094-113.5c17.523437-17.519532 17.523437-46.035157 0-63.558594l-48.882813-48.882813c-9.355469-9.355469-21.839843-13.710937-34.117187-13.066406zm57.75 87.203125c3.597656 3.597656 3.597656 9.457031 0 13.054688l-113.5 113.496093c-3.59375 3.597657-9.445313 3.589844-13.042969-.007812l-48.882813-48.882813c-3.597656-3.597656-3.605468-9.449218-.007812-13.046875l113.5-113.496093c1.195312-1.195313 2.648438-2 4.183594-2.402344 3.074218-.785156 6.476562.007812 8.867187 2.402344zm0 0" fill="#5f9eeb"/><path d="m220.460938 212.394531 48.882812 48.882813c17.519531 17.523437 17.519531 46.039062 0 63.558594l-83 83v-50.503907l57.746094-57.75c3.597656-3.59375 3.597656-9.457031 0-13.050781l-48.882813-48.882812c-2.390625-2.394532-5.789062-3.191407-8.863281-2.402344v-35.917969c12.273438-.644531 24.757812 3.710937 34.117188 13.066406zm0 0" fill="#3a82d0"/><path d="m363.269531 7.347656c-2.515625 1.652344-4.898437 3.582032-7.109375 5.792969l-113.5 113.5c-17.519531 17.519531-17.519531 46.035156 0 63.554687l48.882813 48.882813c17.519531 17.523437 46.035156 17.523437 63.558593 0l113.496094-113.496094c17.523438-17.523437 17.523438-46.039062 0-63.558593l-48.882812-48.882813c-15.308594-15.308594-39.015625-17.242187-56.445313-5.792969zm80.070313 79.933594c3.597656 3.597656 3.601562 9.449219.007812 13.046875l-113.5 113.5c-3.597656 3.59375-9.457031 3.59375-13.054687 0l-48.882813-48.882813c-3.597656-3.597656-3.597656-9.457031 0-13.054687l113.5-113.5c3.597656-3.597656 9.449219-3.589844 13.046875.007813zm0 0" fill="#eb5777"/><path d="m419.714844 13.140625 48.882812 48.882813c17.523438 17.519531 17.523438 46.035156 0 63.554687l-105.320312 105.324219v-50.503906l80.070312-80.070313c3.59375-3.597656 3.585938-9.449219-.011718-13.046875l-48.882813-48.882812c-3.59375-3.597657-9.449219-3.601563-13.042969-.007813l-18.144531 18.144531v-49.1875c17.433594-11.449218 41.140625-9.515625 56.449219 5.792969zm0 0" fill="#ce3f63"/><path d="m207.292969 274.445312c6.972656 6.976563 18.28125 6.976563 25.253906 0l72.164063-72.160156c6.972656-6.976562 6.972656-18.28125 0-25.257812-6.972657-6.972656-18.28125-6.972656-25.257813 0l-72.160156 72.164062c-6.976563 6.972656-6.976563 18.28125 0 25.253906zm0 0" fill="#d3d8df"/><path d="m444.328125 203.570312c-1.921875 0-3.839844-.734374-5.304687-2.195312-2.929688-2.929688-2.929688-7.679688 0-10.609375l43.160156-43.160156c2.929687-2.925781 7.675781-2.925781 10.605468 0 2.929688 2.929687 2.929688 7.679687 0 10.609375l-43.160156 43.160156c-1.464844 1.460938-3.382812 2.195312-5.300781 2.195312zm0 0" fill="#eb5777"/><path d="m493.195312 188.730469c-1.921874 0-3.839843-.730469-5.304687-2.195313-2.929687-2.929687-2.929687-7.679687 0-10.609375l11.308594-11.304687c2.929687-2.929688 7.675781-2.929688 10.605469 0 2.929687 2.929687 2.929687 7.675781 0 10.605468l-11.308594 11.308594c-1.464844 1.460938-3.382813 2.195313-5.300782 2.195313zm0 0" fill="#eb5777"/><g fill="#5f9eeb"><path d="m24.515625 306.066406c-1.917969 0-3.839844-.734375-5.304687-2.195312-2.929688-2.929688-2.929688-7.679688 0-10.609375l43.160156-43.160157c2.929687-2.925781 7.675781-2.925781 10.605468 0 2.929688 2.929688 2.929688 7.679688 0 10.609376l-43.160156 43.160156c-1.460937 1.460937-3.382812 2.195312-5.300781 2.195312zm0 0"/><path d="m7.5 289.050781c-1.917969 0-3.839844-.730469-5.304688-2.195312-2.925781-2.929688-2.925781-7.679688 0-10.605469l11.308594-11.308594c2.929688-2.929687 7.679688-2.929687 10.609375 0 2.925781 2.929688 2.925781 7.675782 0 10.605469l-11.308593 11.308594c-1.464844 1.464843-3.386719 2.195312-5.304688 2.195312zm0 0"/></g></svg>