<svg height="512pt" viewBox="-15 0 511 512" width="512pt" xmlns="http://www.w3.org/2000/svg"><path d="m365.449219 42.335938v192.265624c0 5.144532-4.167969 9.3125-9.3125 9.3125h-311.972657c-5.136718 0-9.304687-4.167968-9.304687-9.3125v-156.382812c0-5.144531 4.167969-9.3125 9.304687-9.3125h262.910157l43.328125-33.90625c6.113281-4.777344 15.046875-.425781 15.046875 7.335938zm0 0" fill="#ebeef2"/><path d="m365.449219 210.285156v24.316406c0 5.144532-4.167969 9.3125-9.3125 9.3125h-242.074219v-47.984374c0-11.878907 9.679688-21.546876 21.578125-21.546876 4.808594 0 9.390625 1.589844 13.222656 4.59375l40.019531 31.308594zm0 0" fill="#d3d8df"/><path d="m222.75 121.851562h-85.136719c-4.265625 0-7.726562-3.457031-7.726562-7.722656 0-4.269531 3.460937-7.726562 7.726562-7.726562h85.136719c4.269531 0 7.726562 3.457031 7.726562 7.726562 0 4.265625-3.457031 7.722656-7.726562 7.722656zm0 0" fill="#74e2cd"/><path d="m113.40625 121.851562h-11.242188c-4.269531 0-7.726562-3.457031-7.726562-7.722656 0-4.269531 3.457031-7.726562 7.726562-7.726562h11.242188c4.269531 0 7.726562 3.457031 7.726562 7.726562 0 4.265625-3.457031 7.722656-7.726562 7.722656zm0 0" fill="#eb5777"/><path d="m312.0625 159.089844h-69.464844c-4.269531 0-7.726562-3.460938-7.726562-7.726563 0-4.269531 3.457031-7.726562 7.726562-7.726562h69.464844c4.269531 0 7.726562 3.460937 7.726562 7.726562s-3.460937 7.726563-7.726562 7.726563zm0 0" fill="#93a3af"/><path d="m220.894531 159.089844h-118.730469c-4.269531 0-7.726562-3.460938-7.726562-7.726563 0-4.269531 3.457031-7.726562 7.726562-7.726562h118.730469c4.269531 0 7.726563 3.460937 7.726563 7.726562s-3.457032 7.726563-7.726563 7.726563zm0 0" fill="#93a3af"/><path d="m456.875 231.8125v156.382812c0 5.144532-4.164062 9.3125-9.300781 9.3125h-311.976563c-5.144531 0-9.3125-4.167968-9.3125-9.3125v-192.265624c0-7.753907 8.9375-12.113282 15.050782-7.324219l43.328124 33.90625h262.910157c5.136719 0 9.300781 4.164062 9.300781 9.300781zm0 0" fill="#a0d37d"/><path d="m377.675781 310.421875v87.085937h-242.078125c-5.144531 0-9.3125-4.167968-9.3125-9.3125v-63.417968h176.570313l40.007812-31.308594c3.839844-3.003906 8.414063-4.59375 13.234375-4.59375 11.898438 0 21.578125 9.667969 21.578125 21.546875zm0 0" fill="#84b75b"/><path d="m307.070312 336.996094h-262.90625c-5.140624 0-9.308593 4.167968-9.308593 9.308594v156.386718c0 5.140625 4.167969 9.308594 9.308593 9.308594h311.972657c5.140625 0 9.308593-4.167969 9.308593-9.308594v-192.269531c0-7.757813-8.933593-12.109375-15.042968-7.328125zm0 0" fill="#ebeef2"/><path d="m222.75 389.941406h-85.136719c-4.265625 0-7.726562-3.457031-7.726562-7.722656 0-4.269531 3.460937-7.726562 7.726562-7.726562h85.136719c4.269531 0 7.726562 3.457031 7.726562 7.726562 0 4.265625-3.457031 7.722656-7.726562 7.722656zm0 0" fill="#74e2cd"/><path d="m113.40625 389.941406h-11.242188c-4.269531 0-7.726562-3.457031-7.726562-7.722656 0-4.269531 3.457031-7.726562 7.726562-7.726562h11.242188c4.269531 0 7.726562 3.457031 7.726562 7.726562 0 4.265625-3.457031 7.722656-7.726562 7.722656zm0 0" fill="#eb5777"/><g fill="#93a3af"><path d="m312.0625 427.175781h-34.222656c-4.269532 0-7.726563-3.457031-7.726563-7.726562 0-4.265625 3.460938-7.722657 7.726563-7.722657h34.222656c4.265625 0 7.726562 3.457032 7.726562 7.722657 0 4.269531-3.460937 7.726562-7.726562 7.726562zm0 0"/><path d="m256.136719 427.175781h-153.972657c-4.269531 0-7.726562-3.457031-7.726562-7.726562 0-4.265625 3.457031-7.722657 7.726562-7.722657h153.972657c4.269531 0 7.726562 3.457032 7.726562 7.722657 0 4.269531-3.457031 7.726562-7.726562 7.726562zm0 0"/><path d="m312.0625 450.914062h-91.167969c-4.265625 0-7.726562-3.460937-7.726562-7.726562s3.460937-7.726562 7.726562-7.726562h91.167969c4.265625 0 7.726562 3.460937 7.726562 7.726562s-3.460937 7.726562-7.726562 7.726562zm0 0"/><path d="m200.027344 450.914062h-97.867188c-4.265625 0-7.722656-3.460937-7.722656-7.726562s3.457031-7.726562 7.722656-7.726562h97.867188c4.269531 0 7.726562 3.460937 7.726562 7.726562s-3.457031 7.726562-7.726562 7.726562zm0 0"/><path d="m251.964844 474.652344h-149.800782c-4.269531 0-7.726562-3.460938-7.726562-7.726563 0-4.269531 3.457031-7.726562 7.726562-7.726562h149.800782c4.269531 0 7.726562 3.460937 7.726562 7.726562s-3.457031 7.726563-7.726562 7.726563zm0 0"/></g><path d="m480.792969 219.273438c0 5.679687-1.011719 11.121093-2.867188 16.167968-6.582031 17.921875-23.808593 30.714844-44.015625 30.714844-20.210937 0-37.433594-12.792969-44.019531-30.714844-1.855469-5.046875-2.867187-10.488281-2.867187-16.167968 0-25.902344 20.996093-46.886719 46.886718-46.886719 25.886719 0 46.882813 20.984375 46.882813 46.886719zm0 0" fill="#eb5777"/><path d="m477.925781 235.441406c-6.582031 17.921875-23.808593 30.714844-44.015625 30.714844-20.210937 0-37.433594-12.792969-44.019531-30.714844 6.585937-17.9375 23.808594-30.71875 44.019531-30.71875 20.207032 0 37.433594 12.78125 44.015625 30.71875zm0 0" fill="#faaa3c"/><path d="m459.777344 185.050781c0 14.289063-11.582032 25.871094-25.867188 25.871094-14.289062 0-25.871094-11.582031-25.871094-25.871094 0-14.285156 11.582032-25.867187 25.871094-25.867187 14.285156 0 25.867188 11.582031 25.867188 25.867187zm0 0" fill="#f8c298"/><path d="m94.269531 328.3125c0 5.679688-1.011719 11.125-2.867187 16.167969-6.585938 17.925781-23.808594 30.71875-44.015625 30.71875-20.210938 0-37.433594-12.792969-44.019531-30.71875-1.855469-5.042969-2.867188-10.488281-2.867188-16.167969 0-25.898438 20.996094-46.882812 46.886719-46.882812 25.886719 0 46.882812 20.984374 46.882812 46.882812zm0 0" fill="#74e2cd"/><path d="m91.402344 344.480469c-6.585938 17.925781-23.808594 30.71875-44.015625 30.71875-20.210938 0-37.433594-12.792969-44.019531-30.71875 6.585937-17.933594 23.808593-30.71875 44.019531-30.71875 20.207031 0 37.429687 12.785156 44.015625 30.71875zm0 0" fill="#eb5777"/><path d="m73.253906 294.09375c0 14.285156-11.582031 25.867188-25.867187 25.867188-14.289063 0-25.871094-11.582032-25.871094-25.867188 0-14.289062 11.582031-25.867188 25.871094-25.867188 14.285156 0 25.867187 11.578126 25.867187 25.867188zm0 0" fill="#f8c298"/><path d="m94.269531 60.089844c0 5.679687-1.011719 11.121094-2.867187 16.164062-6.585938 17.925782-23.808594 30.71875-44.015625 30.71875-20.210938 0-37.433594-12.792968-44.019531-30.714844-1.855469-5.046874-2.867188-10.488281-2.867188-16.167968 0-25.902344 20.996094-46.886719 46.886719-46.886719 25.886719 0 46.882812 20.984375 46.882812 46.886719zm0 0" fill="#74e2cd"/><path d="m91.402344 76.257812c-6.585938 17.921876-23.808594 30.714844-44.015625 30.714844-20.210938 0-37.433594-12.792968-44.019531-30.714844 6.585937-17.9375 23.808593-30.71875 44.019531-30.71875 20.207031 0 37.429687 12.78125 44.015625 30.71875zm0 0" fill="#eb5777"/><path d="m73.253906 25.867188c0 14.289062-11.582031 25.867187-25.867187 25.867187-14.289063 0-25.871094-11.578125-25.871094-25.867187 0-14.285157 11.582031-25.867188 25.871094-25.867188 14.285156 0 25.867187 11.582031 25.867187 25.867188zm0 0" fill="#f8c298"/><path d="m334.035156 273.6875h-153.851562c-4.269532 0-7.726563-3.457031-7.726563-7.726562 0-4.265626 3.457031-7.726563 7.726563-7.726563h153.851562c4.269532 0 7.726563 3.460937 7.726563 7.726563 0 4.269531-3.457031 7.726562-7.726563 7.726562zm0 0" fill="#faaa3c"/><path d="m266.480469 308.824219h-86.296875c-4.269532 0-7.726563-3.460938-7.726563-7.726563s3.457031-7.726562 7.726563-7.726562h86.296875c4.265625 0 7.722656 3.460937 7.722656 7.726562s-3.457031 7.726563-7.722656 7.726563zm0 0" fill="#7b8c98"/><path d="m306.867188 308.824219h-11.917969c-4.265625 0-7.722657-3.460938-7.722657-7.726563s3.457032-7.726562 7.722657-7.726562h11.917969c4.269531 0 7.726562 3.460937 7.726562 7.726562s-3.457031 7.726563-7.726562 7.726563zm0 0" fill="#7b8c98"/></svg>