<svg height="512pt" viewBox="-23 0 512 512.001" width="512pt" xmlns="http://www.w3.org/2000/svg"><path d="m389.417969 158.132812h-13.390625v-81.386718h13.390625c5.691406 0 10.304687 4.613281 10.304687 10.304687v60.78125c0 5.6875-4.613281 10.300781-10.304687 10.300781zm0 0" fill="#93a3af"/><path d="m76.246094 178.734375h13.390625v-101.988281h-13.390625c-5.691406 0-10.304688 4.613281-10.304688 10.304687v81.382813c0 5.691406 4.613282 10.300781 10.304688 10.300781zm0 0" fill="#93a3af"/><path d="m86.976562 491.394531v-470.789062c0-11.378907 9.226563-20.605469 20.605469-20.605469h250.5c11.378907 0 20.605469 9.226562 20.605469 20.605469v470.792969c0 11.378906-9.226562 20.601562-20.605469 20.601562h-250.5c-11.378906 0-20.605469-9.226562-20.605469-20.605469zm0 0" fill="#93a3af"/><path d="m378.683594 20.605469v470.792969c0 11.382812-9.21875 20.601562-20.601563 20.601562h-20.171875c11.382813 0 20.605469-9.21875 20.605469-20.601562v-470.792969c-.003906-11.386719-9.222656-20.605469-20.605469-20.605469h20.171875c11.382813 0 20.601563 9.21875 20.601563 20.605469zm0 0" fill="#7b8c98"/><path d="m86.976562 52.023438h291.710938v407.953124h-291.710938zm0 0" fill="#ebeef2"/><path d="m358.511719 52.023438h20.175781v407.953124h-20.175781zm0 0" fill="#d3d8df"/><path d="m253.003906 35.367188h-40.34375c-4.269531 0-7.726562-3.457032-7.726562-7.722657 0-4.269531 3.457031-7.726562 7.726562-7.726562h40.34375c4.269532 0 7.726563 3.457031 7.726563 7.726562 0 4.265625-3.457031 7.722657-7.726563 7.722657zm0 0" fill="#7b8c98"/><path d="m321.757812 215.203125v150.375c0 8.542969-6.921874 15.453125-15.453124 15.453125h-47.472657l-21.828125 28.230469c-6.191406 7.992187-18.265625 7.992187-24.445312 0l-21.839844-28.230469h-175.265625c-8.53125 0-15.453125-6.910156-15.453125-15.453125v-150.375c0-8.539063 6.921875-15.449219 15.453125-15.449219h290.851563c8.53125 0 15.453124 6.910156 15.453124 15.449219zm0 0" fill="#4fceb7"/><path d="m321.757812 215.203125v85.496094h-40.746093l-18.128907 23.425781c-5.304687 6.863281-13.320312 10.796875-21.996093 10.796875-8.671875 0-16.695313-3.933594-22.003907-10.796875l-18.121093-23.425781h-41.402344c-15.339844 0-27.816406-12.476563-27.816406-27.8125v-73.132813h174.761719c8.53125 0 15.453124 6.910156 15.453124 15.449219zm0 0" fill="#3db4a0"/><path d="m450.207031 107.054688h-290.84375c-8.535156 0-15.453125 6.917968-15.453125 15.453124v150.378907c0 8.535156 6.917969 15.453125 15.453125 15.453125h47.46875l21.832031 28.222656c6.183594 8 18.257813 8 24.445313 0l21.832031-28.222656h175.265625c8.535157 0 15.453125-6.917969 15.453125-15.453125v-150.378907c0-8.535156-6.917968-15.453124-15.453125-15.453124zm0 0" fill="#eb5777"/><g fill="#ce3f63"><path d="m411.277344 165.859375h-213.816406c-4.265626 0-7.722657-3.460937-7.722657-7.726563 0-4.265624 3.457031-7.726562 7.722657-7.726562h213.816406c4.265625 0 7.722656 3.460938 7.722656 7.726562 0 4.265626-3.457031 7.726563-7.722656 7.726563zm0 0"/><path d="m411.277344 192.59375h-213.816406c-4.265626 0-7.722657-3.457031-7.722657-7.726562 0-4.265626 3.457031-7.722657 7.722657-7.722657h213.816406c4.265625 0 7.722656 3.457031 7.722656 7.722657 0 4.269531-3.457031 7.726562-7.722656 7.726562zm0 0"/><path d="m411.277344 219.328125h-40.058594c-4.265625 0-7.722656-3.457031-7.722656-7.722656 0-4.269531 3.457031-7.726563 7.722656-7.726563h40.058594c4.265625 0 7.722656 3.457032 7.722656 7.726563 0 4.265625-3.457031 7.722656-7.722656 7.722656zm0 0"/><path d="m343.53125 219.328125h-146.070312c-4.265626 0-7.722657-3.457031-7.722657-7.722656 0-4.269531 3.457031-7.726563 7.722657-7.726563h146.070312c4.265625 0 7.726562 3.457032 7.726562 7.726563 0 4.265625-3.460937 7.722656-7.726562 7.722656zm0 0"/><path d="m277.816406 246.0625h-80.355468c-4.265626 0-7.722657-3.457031-7.722657-7.722656 0-4.269532 3.457031-7.726563 7.722657-7.726563h80.355468c4.269532 0 7.726563 3.457031 7.726563 7.726563 0 4.265625-3.457031 7.722656-7.726563 7.722656zm0 0"/></g><path d="m113.675781 259.042969h-70.742187c-4.265625 0-7.722656-3.460938-7.722656-7.726563 0-4.269531 3.457031-7.726562 7.722656-7.726562h70.742187c4.265625 0 7.726563 3.460937 7.726563 7.726562s-3.460938 7.726563-7.726563 7.726563zm0 0" fill="#3db4a0"/><path d="m113.675781 285.777344h-70.742187c-4.265625 0-7.722656-3.457032-7.722656-7.726563 0-4.265625 3.457031-7.726562 7.722656-7.726562h70.742187c4.265625 0 7.726563 3.460937 7.726563 7.726562 0 4.269531-3.460938 7.726563-7.726563 7.726563zm0 0" fill="#3db4a0"/><path d="m95.484375 312.511719h-52.550781c-4.265625 0-7.722656-3.457031-7.722656-7.726563 0-4.265625 3.457031-7.722656 7.722656-7.722656h52.550781c4.265625 0 7.726563 3.457031 7.726563 7.722656 0 4.269532-3.460938 7.726563-7.726563 7.726563zm0 0" fill="#3db4a0"/><path d="m71.84375 339.246094h-28.910156c-4.265625 0-7.722656-3.457032-7.722656-7.726563 0-4.265625 3.457031-7.722656 7.722656-7.722656h28.910156c4.265625 0 7.726562 3.457031 7.726562 7.722656 0 4.269531-3.460937 7.726563-7.726562 7.726563zm0 0" fill="#3db4a0"/></svg>