<svg height="512pt" viewBox="-89 0 512 512.001" width="512pt" xmlns="http://www.w3.org/2000/svg"><g fill="#93a3af"><path d="m323.476562 158.132812h-13.390624v-81.386718h13.390624c5.691407 0 10.304688 4.613281 10.304688 10.304687v60.78125c0 5.6875-4.613281 10.300781-10.304688 10.300781zm0 0"/><path d="m10.300781 251.878906h13.394531v-40.175781h-13.394531c-5.6875 0-10.300781 4.609375-10.300781 10.300781v19.574219c0 5.6875 4.613281 10.300781 10.300781 10.300781zm0 0"/><path d="m10.300781 178.734375h13.394531v-101.988281h-13.394531c-5.6875 0-10.300781 4.613281-10.300781 10.304687v81.382813c0 5.691406 4.613281 10.300781 10.300781 10.300781zm0 0"/><path d="m10.300781 315.75h13.394531v-40.175781h-13.394531c-5.6875 0-10.300781 4.609375-10.300781 10.300781v19.574219c0 5.6875 4.613281 10.300781 10.300781 10.300781zm0 0"/></g><path d="m21.035156 491.394531v-470.789062c0-11.378907 9.226563-20.605469 20.605469-20.605469h250.5c11.378906 0 20.605469 9.226562 20.605469 20.605469v470.792969c0 11.378906-9.226563 20.601562-20.605469 20.601562h-250.5c-11.378906 0-20.605469-9.226562-20.605469-20.605469zm0 0" fill="#faaa3c"/><path d="m312.742188 20.605469v470.792969c0 11.382812-9.21875 20.601562-20.601563 20.601562h-20.171875c11.382812 0 20.605469-9.21875 20.605469-20.601562v-470.792969c0-11.386719-9.222657-20.605469-20.605469-20.605469h20.171875c11.382813 0 20.601563 9.21875 20.601563 20.605469zm0 0" fill="#e79732"/><path d="m21.035156 52.023438h291.710938v407.953124h-291.710938zm0 0" fill="#ebeef2"/><path d="m231.933594 459.976562h-130.085938v-76.515624c0-5.6875 4.613282-10.300782 10.304688-10.300782h109.476562c5.691406 0 10.304688 4.613282 10.304688 10.300782zm0 0" fill="#74e2cd"/><path d="m231.933594 459.976562h-65.042969v-86.816406h54.738281c5.691406 0 10.304688 4.613282 10.304688 10.300782zm0 0" fill="#4fceb7"/><path d="m292.574219 52.023438h20.171875v407.953124h-20.171875zm0 0" fill="#d3d8df"/><path d="m187.0625 35.371094h-40.34375c-4.265625 0-7.726562-3.460938-7.726562-7.726563s3.460937-7.726562 7.726562-7.726562h40.34375c4.269531 0 7.726562 3.460937 7.726562 7.726562s-3.457031 7.726563-7.726562 7.726563zm0 0" fill="#e79732"/><path d="m50.207031 159.476562c-16.113281 0-29.171875-13.0625-29.171875-29.171874v-78.28125h58.34375v78.28125c0 16.109374-13.0625 29.171874-29.171875 29.171874zm0 0" fill="#74e2cd"/><path d="m108.546875 159.476562c-16.109375 0-29.167969-13.0625-29.167969-29.171874v-78.28125h58.339844v78.28125c0 16.109374-13.058594 29.171874-29.171875 29.171874zm0 0" fill="#eb5777"/><path d="m166.890625 159.476562c-16.109375 0-29.171875-13.0625-29.171875-29.171874v-78.28125h58.34375v78.28125c0 16.109374-13.0625 29.171874-29.171875 29.171874zm0 0" fill="#74e2cd"/><path d="m225.234375 159.476562c-16.113281 0-29.171875-13.0625-29.171875-29.171874v-78.28125h58.339844v78.28125c0 16.109374-13.058594 29.171874-29.167969 29.171874zm0 0" fill="#eb5777"/><path d="m283.574219 159.476562c-16.109375 0-29.171875-13.0625-29.171875-29.171874v-78.28125h58.34375v78.28125c0 16.109374-13.0625 29.171874-29.171875 29.171874zm0 0" fill="#74e2cd"/><path d="m125.535156 284.5625h67.324219.027344.027343 19.253907c2.988281 0 5.707031-1.722656 6.984375-4.421875l27.863281-58.914063c1.132813-2.390624.960937-5.199218-.457031-7.4375-1.417969-2.234374-3.878906-3.59375-6.527344-3.59375h-114.175781v-11.589843c0-7.101563-5.777344-12.878907-12.878907-12.878907h-19.230468c-4.265625 0-7.722656 3.460938-7.722656 7.726563 0 4.269531 3.457031 7.726563 7.722656 7.726563h16.65625v79.734374c0 1.777344-.691406 3.445313-1.945313 4.699219l-10.691406 10.691407c-3.695313 3.691406-4.792969 9.203124-2.792969 14.03125 1.992188 4.808593 6.628906 7.921874 11.832032 7.945312-.835938 2.382812-1.292969 4.9375-1.292969 7.601562 0 12.707032 10.339843 23.046876 23.046875 23.046876 12.710937 0 23.050781-10.339844 23.050781-23.046876 0-2.660156-.460937-5.21875-1.292969-7.597656h29.882813c-.597657 1.71875-1.019531 3.511719-1.199219 5.367188-1.230469 12.648437 8.0625 23.941406 20.710938 25.167968.753906.074219 1.503906.109376 2.246093.109376 11.710938 0 21.765625-8.925782 22.925781-20.820313.328126-3.378906-.105468-6.710937-1.195312-9.824219h8.683594c4.265625 0 7.726562-3.460937 7.726562-7.726562s-3.460937-7.726563-7.726562-7.726563h-119.28125l6.292968-6.292969c3.300782-3.296874 5.40625-7.460937 6.152344-11.976562zm.320313-29.457031h12.0625v14.003906h-12.0625zm74.742187-29.453125-4.320312 14h-13.769532l1-14zm-20.1875 43.457031 1-14.003906h10.097656l-4.324218 14.003906zm-13.394531-29.457031h-13.644531v-14h14.644531zm-1.097656 15.453125-1 14.003906h-11.546875v-14.003906zm41.359375 14.003906h-3.921875l4.324219-14.003906h6.21875zm13.929687-29.457031h-8.757812l4.320312-14h11.0625zm-83.289062-14v14h-12.0625v-14zm-1.761719 100.234375c0 4.1875-3.40625 7.59375-7.597656 7.59375-4.1875 0-7.59375-3.40625-7.59375-7.59375 0-4.191407 3.40625-7.597657 7.59375-7.597657 4.191406 0 7.597656 3.40625 7.597656 7.597657zm66.519531-7.5625c2.019531.199219 3.84375 1.167969 5.132813 2.734375 1.289062 1.566406 1.890625 3.542968 1.691406 5.5625-.40625 4.167968-4.125 7.226562-8.292969 6.824218-2.019531-.195312-3.839843-1.167968-5.128906-2.734374-1.289063-1.566407-1.894531-3.539063-1.695313-5.558594.195313-2.019532 1.164063-3.84375 2.734376-5.132813 1.371093-1.128906 3.054687-1.730469 4.808593-1.730469.25 0 .5.011719.75.035157zm0 0" fill="#eb5777"/></svg>