<svg height="512pt" viewBox="-28 0 511 512" width="512pt" xmlns="http://www.w3.org/2000/svg"><path d="m398.503906 512h-340.5625c-18.078125 0-28.3125-20.699219-17.378906-35.097656 16.132812-21.246094 35.785156-39.664063 58.105469-54.402344 37.160156-24.523438 81.6875-38.800781 129.554687-38.800781 47.871094 0 92.394532 14.277343 129.558594 38.800781 22.316406 14.738281 41.96875 33.15625 58.101562 54.402344 10.933594 14.398437.699219 35.097656-17.378906 35.097656zm0 0" fill="#93a3af"/><path d="m357.777344 422.5c-38.175782 25.027344-82.832032 38.453125-129.554688 38.453125s-91.378906-13.425781-129.558594-38.453125c37.164063-24.523438 81.6875-38.800781 129.558594-38.800781 47.867188 0 92.394532 14.277343 129.554688 38.800781zm0 0" fill="#7b8c98"/><path d="m452.144531 223.925781c0 123.667969-100.253906 223.921875-223.921875 223.921875-123.667968 0-223.921875-100.253906-223.921875-223.921875s100.253907-223.92187475 223.921875-223.92187475c123.667969 0 223.921875 100.25390575 223.921875 223.92187475zm0 0" fill="#ebeef2"/><path d="m452.148438 223.929688c0 123.667968-100.257813 223.914062-223.925782 223.914062-4.21875 0-8.402344-.117188-12.5625-.347656 117.824219-6.511719 211.363282-104.117188 211.363282-223.566406 0-119.453126-93.539063-217.070313-211.363282-223.578126 4.160156-.230468 8.347656-.351562 12.5625-.351562 123.667969 0 223.925782 100.257812 223.925782 223.929688zm0 0" fill="#d3d8df"/><path d="m419.292969 107.117188-26.328125 26.328124c-12.476563 12.476563-32.707032 12.476563-45.179688 0-12.488281-12.472656-12.488281-32.707031 0-45.179687l18.101563-18.101563 12.417969-12.421874c15.90625 14.375 29.746093 31.003906 40.988281 49.375zm0 0" fill="#b7c1c6"/><path d="m419.292969 107.117188-16.136719 16.136718c-9.820312-19.5-22.414062-37.371094-37.269531-53.089844l12.417969-12.421874c15.90625 14.375 29.746093 31.003906 40.988281 49.375zm0 0" fill="#93a3af"/><path d="m108.660156 133.445312c-12.472656 12.476563-32.707031 12.476563-45.179687 0l-26.328125-26.324218c11.242187-18.375 25.082031-35 40.988281-49.375l30.519531 30.519531c12.488282 12.476563 12.488282 32.707031 0 45.179687zm0 0" fill="#b7c1c6"/><path d="m246.796875 83.707031c0 10.257813-8.316406 18.574219-18.574219 18.574219-10.257812 0-18.574218-8.316406-18.574218-18.574219 0-10.257812 8.316406-18.574219 18.574218-18.574219 10.257813 0 18.574219 8.316407 18.574219 18.574219zm0 0" fill="#eb5777"/><path d="m246.800781 83.707031c0 10.261719-8.316406 18.574219-18.574219 18.574219-2.207031 0-4.328124-.382812-6.285156-1.09375 7.167969-2.574219 12.289063-9.425781 12.289063-17.480469 0-8.054687-5.121094-14.90625-12.289063-17.480469 1.957032-.710937 4.078125-1.09375 6.285156-1.09375 10.257813 0 18.574219 8.3125 18.574219 18.574219zm0 0" fill="#ce3f63"/><path d="m454.535156 186.445312c-8.066406 11.425782-17.308594 22.203126-27.578125 32.175782-19.121093 18.636718-41.804687 34.550781-67.054687 46.953125-39.867188 19.574219-85.402344 29.929687-131.675782 29.929687-46.289062 0-91.8125-10.355468-131.679687-29.929687-38.808594-19.046875-71.523437-46.410157-94.632813-79.117188-2.460937-3.480469-1.628906-8.304687 1.855469-10.765625 3.480469-2.460937 8.3125-1.636718 10.765625 1.855469 21.613282 30.59375 52.332032 56.234375 88.832032 74.164063 37.746093 18.53125 80.917968 28.339843 124.855468 28.339843s87.113282-9.808593 124.859375-28.339843c28.070313-13.785157 52.734375-32.152344 72.441407-53.820313 5.933593-6.5 11.40625-13.296875 16.390624-20.355469 2.460938-3.492187 7.28125-4.316406 10.765626-1.851562 3.484374 2.460937 4.316406 7.28125 1.855468 10.761718zm0 0" fill="#74e2cd"/><path d="m357.863281 266.84375c0 71.601562-58.042969 129.640625-129.640625 129.640625s-129.640625-58.039063-129.640625-129.640625c0-71.597656 58.042969-129.640625 129.640625-129.640625s129.640625 58.042969 129.640625 129.640625zm0 0" fill="#455e6d"/><path d="m330.765625 266.84375c0 56.636719-45.910156 102.539062-102.539063 102.539062-13.753906 0-26.890624-2.710937-38.875-7.617187-12.425781-5.105469-23.632812-12.566406-33.050781-21.835937-2.910156-2.851563-5.644531-5.890626-8.179687-9.074219-6.234375-7.757813-11.335938-16.449219-15.101563-25.816407-4.738281-11.800781-7.34375-24.695312-7.34375-38.195312 0-56.628906 45.910157-102.542969 102.550781-102.542969 13.496094 0 26.386719 2.605469 38.183594 7.34375 9.371094 3.765625 18.050782 8.871094 25.816406 15.09375 3.1875 2.535157 6.222657 5.277344 9.085938 8.1875 9.269531 9.417969 16.734375 20.625 21.824219 33.054688 4.917969 11.984375 7.628906 25.109375 7.628906 38.863281zm0 0" fill="#7b8c98"/><path d="m292.230469 186.734375-144.109375 144.121094c-6.234375-7.757813-11.335938-16.449219-14.960938-25.679688l133.390625-133.390625c9.230469 3.625 17.910157 8.726563 25.679688 14.949219zm0 0" fill="#93a3af"/><path d="m323.277344 228.117188-133.785156 133.785156c-12.425782-5.101563-23.632813-12.5625-33.050782-21.835938l145.011719-145c9.269531 9.417969 16.734375 20.625 21.824219 33.050782zm0 0" fill="#93a3af"/><path d="m346.242188 489.738281c-.019532 0-.042969 0-.066407 0h-.117187c-4.269532-.039062-7.699219-3.523437-7.664063-7.792969.039063-4.265624 3.519531-7.691406 7.792969-7.660156h.121094c4.265625.035156 7.695312 3.523438 7.660156 7.792969-.035156 4.242187-3.488281 7.660156-7.726562 7.660156zm0 0" fill="#eb5777"/><path d="m323.339844 489.738281c-.023438 0-.042969 0-.066406 0h-.121094c-4.265625-.039062-7.695313-3.527343-7.660156-7.792969.035156-4.246093 3.488281-7.660156 7.726562-7.660156h.066406.117188c4.269531.035156 7.699218 3.523438 7.660156 7.792969-.035156 4.242187-3.488281 7.660156-7.722656 7.660156zm0 0" fill="#ebeef2"/><path d="m300.433594 489.738281c-.019532 0-.042969 0-.066406 0h-.117188c-4.269531-.039062-7.695312-3.523437-7.660156-7.792969.035156-4.246093 3.484375-7.660156 7.722656-7.660156h.066406.121094c4.265625.035156 7.695312 3.523438 7.660156 7.792969-.035156 4.242187-3.488281 7.660156-7.726562 7.660156zm0 0" fill="#ebeef2"/><path d="m454.535156 186.445312c-8.066406 11.425782-17.308594 22.203126-27.578125 32.175782-.152343-6.996094-.640625-13.90625-1.433593-20.726563 5.9375-6.503906 11.40625-13.300781 16.390624-20.359375 2.464844-3.488281 7.285157-4.3125 10.765626-1.851562 3.484374 2.460937 4.316406 7.28125 1.855468 10.761718zm0 0" fill="#4fceb7"/></svg>