<svg height="512pt" viewBox="-89 0 512 512.001" width="512pt" xmlns="http://www.w3.org/2000/svg"><g fill="#93a3af"><path d="m323.476562 158.132812h-13.390624v-81.386718h13.390624c5.691407 0 10.304688 4.613281 10.304688 10.304687v60.78125c0 5.6875-4.613281 10.300781-10.304688 10.300781zm0 0"/><path d="m10.300781 251.878906h13.394531v-40.175781h-13.394531c-5.6875 0-10.300781 4.609375-10.300781 10.300781v19.574219c0 5.6875 4.613281 10.300781 10.300781 10.300781zm0 0"/><path d="m10.300781 178.734375h13.394531v-101.988281h-13.394531c-5.6875 0-10.300781 4.613281-10.300781 10.304687v81.382813c0 5.691406 4.613281 10.300781 10.300781 10.300781zm0 0"/><path d="m10.300781 315.75h13.394531v-40.175781h-13.394531c-5.6875 0-10.300781 4.609375-10.300781 10.300781v19.574219c0 5.6875 4.613281 10.300781 10.300781 10.300781zm0 0"/></g><path d="m21.035156 491.394531v-470.789062c0-11.378907 9.226563-20.605469 20.605469-20.605469h250.5c11.378906 0 20.605469 9.226562 20.605469 20.605469v470.792969c0 11.378906-9.226563 20.601562-20.605469 20.601562h-250.5c-11.378906 0-20.605469-9.226562-20.605469-20.605469zm0 0" fill="#7b8c98"/><path d="m312.742188 20.605469v470.792969c0 11.382812-9.21875 20.601562-20.601563 20.601562h-20.171875c11.382812 0 20.605469-9.21875 20.605469-20.601562v-470.792969c0-11.386719-9.222657-20.605469-20.605469-20.605469h20.171875c11.382813 0 20.601563 9.21875 20.601563 20.605469zm0 0" fill="#627687"/><path d="m21.035156 52.023438h291.710938v407.953124h-291.710938zm0 0" fill="#eb5777"/><path d="m264.242188 273.964844v11.683594c0 5.335937-4.328126 9.671874-9.671876 9.671874h-66.902343l8.40625 15.453126 3.679687 6.769531c7.3125 13.453125.75 30.265625-13.753906 35.199219-3.976562 1.351562-8.375.15625-11.117188-3.027344l-46.964843-54.394532h-26.105469v-124.125h130.089844c5.347656 0 9.675781 4.328126 9.675781 9.671876v11.683593c0 5.335938-4.328125 9.675781-9.675781 9.675781h10.304687c5.34375 0 9.671875 4.324219 9.671875 9.671876v11.679687c0 5.347656-4.328125 9.675781-9.671875 9.675781h6.179688c5.347656 0 9.671875 4.335938 9.671875 9.671875v11.683594c0 5.347656-4.324219 9.683594-9.671875 9.683594h6.179687c5.347656 0 9.675782 4.328125 9.675782 9.671875zm0 0" fill="#ffd6c0"/><path d="m21.035156 172.824219h48.503906v116.742187h-48.503906zm0 0" fill="#ffcf64"/><path d="m89.605469 158.710938h-9.765625c-5.6875 0-10.300782 4.613281-10.300782 10.300781v120.308593c0 5.6875 4.613282 10.300782 10.300782 10.300782h21.289062c5.691406 0 10.304688-4.613282 10.304688-10.300782v-108.78125c0-12.054687-9.773438-21.828124-21.828125-21.828124zm0 0" fill="#ebeef2"/><path d="m90.425781 208.097656c-4.234375 0-7.683593-3.414062-7.722656-7.65625-.039063-4.265625 3.390625-7.757812 7.65625-7.792968l.113281-.003907h.070313c4.234375 0 7.6875 3.414063 7.722656 7.65625.039063 4.269531-3.386719 7.757813-7.65625 7.796875h-.113281c-.023438 0-.046875 0-.070313 0zm0 0" fill="#ffcf64"/><path d="m258.0625 248.839844v5.769531c0 5.347656-4.328125 9.683594-9.675781 9.683594h-17.109375c-4.265625 0-7.726563-3.460938-7.726563-7.726563 0-4.273437 3.460938-7.726562 7.726563-7.726562zm0 0" fill="#f8c298"/><path d="m251.878906 217.800781v5.777344c0 5.347656-4.324218 9.675781-9.671875 9.675781h-16.082031c-4.265625 0-7.726562-3.460937-7.726562-7.726562s3.460937-7.726563 7.726562-7.726563zm0 0" fill="#f8c298"/><path d="m241.578125 186.773438v5.777343c0 5.335938-4.328125 9.675781-9.671875 9.675781h-17.628906c-4.265625 0-7.726563-3.464843-7.726563-7.726562 0-4.265625 3.460938-7.726562 7.726563-7.726562zm0 0" fill="#f8c298"/><path d="m196.074219 310.773438h-20.601563c-4.265625 0-7.726562-3.460938-7.726562-7.722657 0-4.265625 3.460937-7.726562 7.726562-7.726562h12.195313zm0 0" fill="#f8c298"/><path d="m292.574219 52.023438h20.171875v407.953124h-20.171875zm0 0" fill="#ce3f63"/><path d="m187.0625 35.371094h-40.34375c-4.269531 0-7.726562-3.460938-7.726562-7.726563s3.457031-7.726562 7.726562-7.726562h40.34375c4.269531 0 7.726562 3.460937 7.726562 7.726562s-3.457031 7.726563-7.726562 7.726563zm0 0" fill="#627687"/><path d="m187.363281 396.265625h-40.945312c-4.269531 0-7.726563-3.460937-7.726563-7.726563 0-4.265624 3.457032-7.726562 7.726563-7.726562h40.945312c4.269531 0 7.726563 3.460938 7.726563 7.726562 0 4.265626-3.457032 7.726563-7.726563 7.726563zm0 0" fill="#ebeef2"/><path d="m171.910156 417.222656h-10.039062c-4.269532 0-7.726563-3.457031-7.726563-7.726562 0-4.265625 3.457031-7.726563 7.726563-7.726563h10.039062c4.269532 0 7.726563 3.460938 7.726563 7.726563 0 4.269531-3.457031 7.726562-7.726563 7.726562zm0 0" fill="#ebeef2"/><path d="m174.101562 111.953125c-3.015624-3.019531-7.90625-3.019531-10.925781 0l-4.050781 4.050781-4.046875-4.050781c-3.019531-3.019531-7.910156-3.015625-10.929687 0-3.015626 3.019531-3.015626 7.910156 0 10.925781l4.050781 4.050782-4.050781 4.050781c-3.015626 3.015625-3.015626 7.910156 0 10.925781 1.511718 1.507812 3.488281 2.265625 5.464843 2.265625 1.976563 0 3.957031-.757813 5.464844-2.265625l4.046875-4.046875 4.050781 4.046875c1.507813 1.507812 3.488281 2.265625 5.464844 2.265625s3.953125-.757813 5.460937-2.265625c3.019532-3.015625 3.019532-7.910156 0-10.925781l-4.046874-4.050781 4.046874-4.050782c3.019532-3.015625 3.019532-7.90625 0-10.925781zm0 0" fill="#ebeef2"/><path d="m259.3125 343.777344 4.050781-4.050782c3.015625-3.015624 3.015625-7.910156 0-10.925781-3.019531-3.019531-7.910156-3.019531-10.929687 0l-4.046875 4.046875-4.050781-4.046875c-3.015626-3.019531-7.90625-3.019531-10.925782 0-3.019531 3.015625-3.019531 7.90625 0 10.925781l4.050782 4.050782-4.050782 4.046875c-3.019531 3.019531-3.019531 7.910156 0 10.929687 1.507813 1.507813 3.484375 2.261719 5.464844 2.261719 1.976562 0 3.953125-.753906 5.460938-2.261719l4.050781-4.050781 4.046875 4.050781c1.511718 1.507813 3.488281 2.261719 5.464844 2.261719 1.976562 0 3.957031-.753906 5.464843-2.261719 3.015625-3.019531 3.015625-7.910156 0-10.929687zm0 0" fill="#ebeef2"/></svg>