<svg height="512pt" viewBox="0 -89 512 512" width="512pt" xmlns="http://www.w3.org/2000/svg"><g fill="#93a3af"><path d="m158.132812 10.300781v13.394531h-81.386718v-13.394531c0-5.6875 4.613281-10.300781 10.304687-10.300781h60.78125c5.6875 0 10.300781 4.613281 10.300781 10.300781zm0 0"/><path d="m251.878906 323.476562v-13.390624h-40.175781v13.390624c0 5.691407 4.609375 10.304688 10.300781 10.304688h19.574219c5.6875-.003906 10.300781-4.613281 10.300781-10.304688zm0 0"/><path d="m178.734375 323.476562v-13.390624h-101.988281v13.390624c0 5.691407 4.613281 10.304688 10.304687 10.304688h81.382813c5.691406-.003906 10.300781-4.613281 10.300781-10.304688zm0 0"/><path d="m315.75 323.476562v-13.390624h-40.175781v13.390624c0 5.691407 4.609375 10.304688 10.300781 10.304688h19.574219c5.6875-.003906 10.300781-4.613281 10.300781-10.304688zm0 0"/></g><path d="m512 41.640625v250.5c0 11.382813-9.21875 20.601563-20.605469 20.601563h-470.789062c-11.386719 0-20.605469-9.21875-20.605469-20.605469v-250.496094c0-11.382813 9.21875-20.605469 20.605469-20.605469h470.792969c11.382812 0 20.601562 9.222656 20.601562 20.605469zm0 0" fill="#faaa3c"/><path d="m512 41.640625v250.5c0 11.382813-9.21875 20.601563-20.605469 20.601563h-18.027343c11.386718 0 20.605468-9.21875 20.605468-20.601563v-250.5c0-11.382813-9.21875-20.605469-20.605468-20.605469h18.027343c11.386719 0 20.605469 9.222656 20.605469 20.605469zm0 0" fill="#e79732"/><path d="m52.023438 21.035156h407.953124v291.707032h-407.953124zm0 0" fill="#627687"/><path d="m442.464844 21.035156h17.511718v291.707032h-17.511718zm0 0" fill="#455e6d"/><path d="m52.023438 21.035156h407.953124v188.207032h-407.953124zm0 0" fill="#ebeef2"/><path d="m442.464844 21.035156h17.511718v188.207032h-17.511718zm0 0" fill="#d3d8df"/><path d="m27.644531 194.789062c-4.269531 0-7.726562-3.460937-7.726562-7.726562v-40.34375c0-4.269531 3.457031-7.726562 7.726562-7.726562 4.265625 0 7.722657 3.457031 7.722657 7.726562v40.34375c.003906 4.265625-3.457032 7.726562-7.722657 7.726562zm0 0" fill="#e79732"/><path d="m222.78125 72.695312v59.167969c0 7.574219 8.335938 12.1875 14.75 8.164063l47.171875-29.585938c6.023437-3.777344 6.023437-12.546875 0-16.324218l-47.171875-29.582032c-6.414062-4.023437-14.75.585938-14.75 8.160156zm0 0" fill="#eb5777"/><path d="m433.707031 179.253906c0 4.261719-3.460937 7.722656-7.726562 7.722656h-326.570313c-4.261718 0-7.722656-3.460937-7.722656-7.722656 0-4.265625 3.460938-7.726562 7.722656-7.726562h326.570313c4.265625 0 7.726562 3.460937 7.726562 7.726562zm0 0" fill="#d3d8df"/><path d="m361.078125 171.527344v15.453125h-261.667969c-4.261718 0-7.722656-3.460938-7.722656-7.726563s3.460938-7.726562 7.722656-7.726562zm0 0" fill="#eb5777"/><path d="m361.078125 194.789062c-4.265625 0-7.726563-3.460937-7.726563-7.726562v-16.050781c0-4.269531 3.460938-7.726563 7.726563-7.726563s7.726563 3.457032 7.726563 7.726563v16.050781c0 4.265625-3.457032 7.726562-7.726563 7.726562zm0 0" fill="#627687"/><path d="m96.230469 243.695312h-6.523438c-4.265625 0-7.726562-3.460937-7.726562-7.726562s3.460937-7.726562 7.726562-7.726562h6.523438c4.269531 0 7.726562 3.460937 7.726562 7.726562.003907 4.265625-3.457031 7.726562-7.726562 7.726562zm0 0" fill="#455e6d"/><path d="m128.167969 243.695312h-6.523438c-4.269531 0-7.726562-3.460937-7.726562-7.726562s3.457031-7.726562 7.726562-7.726562h6.523438c4.265625 0 7.726562 3.460937 7.726562 7.726562s-3.460937 7.726562-7.726562 7.726562zm0 0" fill="#ebeef2"/><path d="m160.105469 243.695312h-6.527344c-4.265625 0-7.726563-3.460937-7.726563-7.726562s3.460938-7.726562 7.726563-7.726562h6.527344c4.265625 0 7.722656 3.460937 7.722656 7.726562s-3.457031 7.726562-7.722656 7.726562zm0 0" fill="#eb5777"/><path d="m210.238281 269.507812h-60.78125c-4.265625 0-7.726562-3.457031-7.726562-7.726562 0-4.265625 3.460937-7.726562 7.726562-7.726562h60.78125c4.269531 0 7.726563 3.460937 7.726563 7.726562 0 4.269531-3.457032 7.726562-7.726563 7.726562zm0 0" fill="#455e6d"/><path d="m128.167969 269.507812h-38.460938c-4.265625 0-7.726562-3.457031-7.726562-7.726562 0-4.265625 3.460937-7.726562 7.726562-7.726562h38.460938c4.265625 0 7.726562 3.460937 7.726562 7.726562 0 4.269531-3.460937 7.726562-7.726562 7.726562zm0 0" fill="#455e6d"/><path d="m289.21875 291.3125h-199.511719c-4.265625 0-7.726562-3.457031-7.726562-7.722656 0-4.269532 3.460937-7.726563 7.726562-7.726563h199.511719c4.269531 0 7.726562 3.457031 7.726562 7.726563 0 4.265625-3.457031 7.722656-7.726562 7.722656zm0 0" fill="#455e6d"/><path d="m425.980469 243.695312h-64.902344c-4.265625 0-7.726563-3.460937-7.726563-7.726562s3.460938-7.726562 7.726563-7.726562h64.902344c4.265625 0 7.726562 3.460937 7.726562 7.726562s-3.460937 7.726562-7.726562 7.726562zm0 0" fill="#455e6d"/><path d="m426.207031 269.738281c0 7.648438-6.199219 13.847657-13.847656 13.847657-7.652344 0-13.851563-6.199219-13.851563-13.847657 0-7.652343 6.199219-13.851562 13.851563-13.851562 7.648437 0 13.847656 6.199219 13.847656 13.851562zm0 0" fill="#5f9eeb"/></svg>